G04 #@! TF.GenerationSoftware,KiCad,Pcbnew,(6.0.5)*
G04 #@! TF.CreationDate,2022-05-29T12:34:13-07:00*
G04 #@! TF.ProjectId,ttocyobItnA,74746f63-796f-4624-9974-6e412e6b6963,rev?*
G04 #@! TF.SameCoordinates,Original*
G04 #@! TF.FileFunction,Legend,Bot*
G04 #@! TF.FilePolarity,Positive*
%FSLAX46Y46*%
G04 Gerber Fmt 4.6, Leading zero omitted, Abs format (unit mm)*
G04 Created by KiCad (PCBNEW (6.0.5)) date 2022-05-29 12:34:13*
%MOMM*%
%LPD*%
G01*
G04 APERTURE LIST*
G04 Aperture macros list*
%AMRoundRect*
0 Rectangle with rounded corners*
0 $1 Rounding radius*
0 $2 $3 $4 $5 $6 $7 $8 $9 X,Y pos of 4 corners*
0 Add a 4 corners polygon primitive as box body*
4,1,4,$2,$3,$4,$5,$6,$7,$8,$9,$2,$3,0*
0 Add four circle primitives for the rounded corners*
1,1,$1+$1,$2,$3*
1,1,$1+$1,$4,$5*
1,1,$1+$1,$6,$7*
1,1,$1+$1,$8,$9*
0 Add four rect primitives between the rounded corners*
20,1,$1+$1,$2,$3,$4,$5,0*
20,1,$1+$1,$4,$5,$6,$7,0*
20,1,$1+$1,$6,$7,$8,$9,0*
20,1,$1+$1,$8,$9,$2,$3,0*%
%AMRotRect*
0 Rectangle, with rotation*
0 The origin of the aperture is its center*
0 $1 length*
0 $2 width*
0 $3 Rotation angle, in degrees counterclockwise*
0 Add horizontal line*
21,1,$1,$2,0,0,$3*%
G04 Aperture macros list end*
%ADD10C,0.250000*%
%ADD11C,0.120000*%
%ADD12C,0.700000*%
%ADD13C,4.400000*%
%ADD14C,2.200000*%
%ADD15C,1.750000*%
%ADD16C,3.987800*%
%ADD17C,2.300000*%
%ADD18C,3.048000*%
%ADD19RoundRect,0.285750X-0.666750X-0.666750X0.666750X-0.666750X0.666750X0.666750X-0.666750X0.666750X0*%
%ADD20C,1.905000*%
%ADD21C,2.000000*%
%ADD22C,1.700000*%
%ADD23O,1.700000X1.700000*%
%ADD24R,1.200000X0.900000*%
%ADD25RoundRect,0.135000X-0.185000X0.135000X-0.185000X-0.135000X0.185000X-0.135000X0.185000X0.135000X0*%
%ADD26R,1.200000X1.400000*%
%ADD27RoundRect,0.140000X-0.170000X0.140000X-0.170000X-0.140000X0.170000X-0.140000X0.170000X0.140000X0*%
%ADD28RoundRect,0.135000X0.135000X0.185000X-0.135000X0.185000X-0.135000X-0.185000X0.135000X-0.185000X0*%
%ADD29RoundRect,0.135000X-0.035355X0.226274X-0.226274X0.035355X0.035355X-0.226274X0.226274X-0.035355X0*%
%ADD30RoundRect,0.250000X0.625000X-0.375000X0.625000X0.375000X-0.625000X0.375000X-0.625000X-0.375000X0*%
%ADD31RoundRect,0.140000X0.219203X0.021213X0.021213X0.219203X-0.219203X-0.021213X-0.021213X-0.219203X0*%
%ADD32RoundRect,0.135000X0.185000X-0.135000X0.185000X0.135000X-0.185000X0.135000X-0.185000X-0.135000X0*%
%ADD33RoundRect,0.140000X-0.219203X-0.021213X-0.021213X-0.219203X0.219203X0.021213X0.021213X0.219203X0*%
%ADD34RoundRect,0.062500X-0.380070X0.291682X0.291682X-0.380070X0.380070X-0.291682X-0.291682X0.380070X0*%
%ADD35RoundRect,0.062500X-0.380070X-0.291682X-0.291682X-0.380070X0.380070X0.291682X0.291682X0.380070X0*%
%ADD36RotRect,5.200000X5.200000X315.000000*%
%ADD37RoundRect,0.140000X0.021213X-0.219203X0.219203X-0.021213X-0.021213X0.219203X-0.219203X0.021213X0*%
%ADD38RoundRect,0.150000X-0.475000X-0.150000X0.475000X-0.150000X0.475000X0.150000X-0.475000X0.150000X0*%
%ADD39C,0.650000*%
%ADD40R,0.600000X1.450000*%
%ADD41R,0.300000X1.450000*%
%ADD42O,1.000000X1.600000*%
%ADD43O,1.000000X2.100000*%
%ADD44RoundRect,0.140000X-0.021213X0.219203X-0.219203X0.021213X0.021213X-0.219203X0.219203X-0.021213X0*%
%ADD45RoundRect,0.135000X0.226274X0.035355X0.035355X0.226274X-0.226274X-0.035355X-0.035355X-0.226274X0*%
G04 APERTURE END LIST*
D10*
X257262500Y-107150000D02*
G75*
G03*
X257262500Y-107150000I-1525000J0D01*
G01*
X69762500Y-107150000D02*
G75*
G03*
X69762500Y-107150000I-1525000J0D01*
G01*
X165825000Y-77500000D02*
G75*
G03*
X165825000Y-77500000I-1525000J0D01*
G01*
X282506250Y-50000000D02*
G75*
G03*
X282506250Y-50000000I-1525000J0D01*
G01*
G36*
X272470051Y-112589069D02*
G01*
X272470523Y-113061647D01*
X272418506Y-113039395D01*
X272400727Y-113031715D01*
X272351273Y-113010094D01*
X272287155Y-112981870D01*
X272217725Y-112951153D01*
X272174084Y-112932084D01*
X272116420Y-112907886D01*
X272073959Y-112891310D01*
X272053674Y-112885162D01*
X272050925Y-112894786D01*
X272047752Y-112934525D01*
X272044997Y-113003721D01*
X272042685Y-113100942D01*
X272040843Y-113224757D01*
X272039495Y-113373731D01*
X272038668Y-113546434D01*
X272038387Y-113741432D01*
X272038387Y-114597701D01*
X271542230Y-114597701D01*
X271542230Y-112356996D01*
X271730290Y-112356642D01*
X271918349Y-112356289D01*
X272470051Y-112589069D01*
G37*
G36*
X273328702Y-113501356D02*
G01*
X273329537Y-113504705D01*
X273362002Y-113633909D01*
X273392299Y-113752677D01*
X273419514Y-113857569D01*
X273442736Y-113945142D01*
X273461053Y-114011955D01*
X273473552Y-114054566D01*
X273479320Y-114069535D01*
X273479380Y-114069523D01*
X273485386Y-114053771D01*
X273498175Y-114010487D01*
X273516824Y-113943109D01*
X273540413Y-113855076D01*
X273568018Y-113749825D01*
X273598720Y-113630795D01*
X273631597Y-113501424D01*
X273774934Y-112933314D01*
X274035015Y-112933245D01*
X274095727Y-112933589D01*
X274174979Y-112935260D01*
X274238168Y-112938086D01*
X274279979Y-112941802D01*
X274295097Y-112946145D01*
X274294070Y-112950567D01*
X274285210Y-112981089D01*
X274268000Y-113037945D01*
X274243325Y-113118273D01*
X274212072Y-113219216D01*
X274175128Y-113337914D01*
X274133380Y-113471508D01*
X274087714Y-113617138D01*
X274039017Y-113771946D01*
X274015767Y-113845772D01*
X273968422Y-113996290D01*
X273924519Y-114136102D01*
X273884943Y-114262377D01*
X273850580Y-114372284D01*
X273822313Y-114462992D01*
X273801027Y-114531668D01*
X273787606Y-114575482D01*
X273782936Y-114591601D01*
X273768940Y-114593476D01*
X273727782Y-114594757D01*
X273664455Y-114595310D01*
X273583980Y-114595092D01*
X273491373Y-114594061D01*
X273199810Y-114589699D01*
X272939692Y-113773442D01*
X272915295Y-113696836D01*
X272867325Y-113545938D01*
X272822835Y-113405620D01*
X272782720Y-113278726D01*
X272747873Y-113168102D01*
X272719191Y-113076590D01*
X272697569Y-113007037D01*
X272683901Y-112962286D01*
X272679082Y-112945181D01*
X272685133Y-112942557D01*
X272717526Y-112938834D01*
X272773177Y-112935860D01*
X272846724Y-112933890D01*
X272932806Y-112933177D01*
X273187023Y-112933177D01*
X273328702Y-113501356D01*
G37*
G36*
X276274934Y-112886699D02*
G01*
X276388874Y-112910966D01*
X276489914Y-112962703D01*
X276573929Y-113039302D01*
X276636795Y-113138156D01*
X276671846Y-113213265D01*
X276676470Y-113073221D01*
X276681095Y-112933177D01*
X277160000Y-112933177D01*
X277160000Y-114597701D01*
X276679848Y-114597701D01*
X276679848Y-114183755D01*
X276679474Y-114093090D01*
X276677963Y-113979968D01*
X276675457Y-113876991D01*
X276672132Y-113789627D01*
X276668164Y-113723341D01*
X276663730Y-113683597D01*
X276629739Y-113580020D01*
X276571549Y-113496018D01*
X276491671Y-113433598D01*
X276392606Y-113394714D01*
X276276853Y-113381318D01*
X276167687Y-113381318D01*
X276167687Y-112885162D01*
X276236805Y-112885162D01*
X276274934Y-112886699D01*
G37*
G36*
X270859626Y-114024590D02*
G01*
X270946150Y-114049269D01*
X271019912Y-114094547D01*
X271073820Y-114158763D01*
X271090737Y-114193736D01*
X271105343Y-114250881D01*
X271109568Y-114325616D01*
X271107823Y-114368490D01*
X271087175Y-114463425D01*
X271042706Y-114537846D01*
X270973725Y-114593110D01*
X270972952Y-114593546D01*
X270895620Y-114621594D01*
X270805630Y-114630934D01*
X270715849Y-114621552D01*
X270639146Y-114593437D01*
X270606541Y-114571167D01*
X270550999Y-114508468D01*
X270515886Y-114431285D01*
X270501136Y-114346194D01*
X270506684Y-114259769D01*
X270532465Y-114178583D01*
X270578413Y-114109213D01*
X270644464Y-114058231D01*
X270676666Y-114043673D01*
X270767434Y-114022171D01*
X270859626Y-114024590D01*
G37*
G36*
X270133315Y-114125043D02*
G01*
X270114853Y-114187091D01*
X270090564Y-114241210D01*
X270059664Y-114291133D01*
X270021366Y-114340596D01*
X269974886Y-114393334D01*
X269937952Y-114430248D01*
X269828819Y-114512309D01*
X269701790Y-114576880D01*
X269565608Y-114619136D01*
X269453180Y-114637494D01*
X269287612Y-114643978D01*
X269128891Y-114626404D01*
X268980510Y-114586141D01*
X268845963Y-114524555D01*
X268728745Y-114443016D01*
X268632349Y-114342890D01*
X268560269Y-114225547D01*
X268558785Y-114222368D01*
X268539030Y-114176868D01*
X268523118Y-114131514D01*
X268510648Y-114082289D01*
X268501216Y-114025172D01*
X268494418Y-113956145D01*
X268489851Y-113871190D01*
X268487112Y-113766286D01*
X268485797Y-113637417D01*
X268485504Y-113480562D01*
X268485521Y-113458790D01*
X268485720Y-113411908D01*
X268997429Y-113411908D01*
X268997429Y-113675659D01*
X268997760Y-113729416D01*
X268999848Y-113819120D01*
X269003557Y-113895733D01*
X269008541Y-113952950D01*
X269014452Y-113984466D01*
X269015769Y-113987825D01*
X269050527Y-114045687D01*
X269102571Y-114101580D01*
X269160102Y-114142685D01*
X269165174Y-114145172D01*
X269220909Y-114162107D01*
X269292324Y-114172213D01*
X269365284Y-114174204D01*
X269425650Y-114166798D01*
X269440902Y-114162331D01*
X269507995Y-114130948D01*
X269569092Y-114086201D01*
X269611351Y-114037061D01*
X269636125Y-113995122D01*
X268997429Y-113411908D01*
X268485720Y-113411908D01*
X268486188Y-113301696D01*
X268488131Y-113172171D01*
X268491811Y-113066276D01*
X268497691Y-112980071D01*
X268498161Y-112976197D01*
X269021899Y-112976197D01*
X269032000Y-113004617D01*
X269036240Y-113008503D01*
X269061937Y-113032273D01*
X269105885Y-113073048D01*
X269164348Y-113127359D01*
X269233591Y-113191736D01*
X269309879Y-113262709D01*
X269336284Y-113287274D01*
X269412934Y-113358472D01*
X269482781Y-113423199D01*
X269541671Y-113477615D01*
X269585452Y-113517881D01*
X269609973Y-113540157D01*
X269653636Y-113578958D01*
X269653636Y-113291829D01*
X269653517Y-113237381D01*
X269651843Y-113131985D01*
X269647060Y-113051401D01*
X269637740Y-112990615D01*
X269622456Y-112944611D01*
X269599783Y-112908375D01*
X269568294Y-112876893D01*
X269526562Y-112845149D01*
X269510087Y-112833740D01*
X269475904Y-112813973D01*
X269440924Y-112802951D01*
X269394750Y-112798171D01*
X269326986Y-112797134D01*
X269309845Y-112797176D01*
X269246297Y-112799064D01*
X269201942Y-112805456D01*
X269166265Y-112818684D01*
X269128748Y-112841080D01*
X269116564Y-112849517D01*
X269067857Y-112892432D01*
X269035077Y-112936730D01*
X269021899Y-112976197D01*
X268498161Y-112976197D01*
X268506233Y-112909617D01*
X268517898Y-112850973D01*
X268533148Y-112800201D01*
X268552446Y-112753360D01*
X268576252Y-112706513D01*
X268628874Y-112627423D01*
X268721194Y-112531105D01*
X268833323Y-112448428D01*
X268958570Y-112384125D01*
X269090246Y-112342929D01*
X269105383Y-112340031D01*
X269186884Y-112330532D01*
X269285205Y-112326023D01*
X269388319Y-112326516D01*
X269484199Y-112332019D01*
X269560819Y-112342543D01*
X269655408Y-112369016D01*
X269784237Y-112427364D01*
X269901385Y-112506027D01*
X270000290Y-112600366D01*
X270074392Y-112705739D01*
X270088780Y-112732871D01*
X270109846Y-112777294D01*
X270126712Y-112822369D01*
X270139839Y-112872014D01*
X270149685Y-112930149D01*
X270156711Y-113000694D01*
X270161375Y-113087567D01*
X270164138Y-113194688D01*
X270165459Y-113325976D01*
X270165797Y-113485351D01*
X270165709Y-113565149D01*
X270165612Y-113578958D01*
X270164602Y-113722864D01*
X270161594Y-113853977D01*
X270155901Y-113962221D01*
X270152517Y-113995122D01*
X270146736Y-114051332D01*
X270133315Y-114125043D01*
G37*
G36*
X275959379Y-113765439D02*
G01*
X275959379Y-113766408D01*
X275954933Y-113931384D01*
X275940873Y-114069715D01*
X275915977Y-114185623D01*
X275879024Y-114283332D01*
X275828794Y-114367066D01*
X275764065Y-114441047D01*
X275727643Y-114473243D01*
X275628970Y-114540180D01*
X275517731Y-114594084D01*
X275407285Y-114627956D01*
X275376467Y-114633033D01*
X275284925Y-114639770D01*
X275178662Y-114639150D01*
X275069153Y-114631801D01*
X274967870Y-114618352D01*
X274886285Y-114599431D01*
X274798515Y-114563969D01*
X274703409Y-114508720D01*
X274621422Y-114443538D01*
X274561927Y-114374910D01*
X274545465Y-114346569D01*
X274516625Y-114282946D01*
X274494972Y-114218279D01*
X274489966Y-114199330D01*
X274476722Y-114148174D01*
X274471612Y-114112536D01*
X274478613Y-114089632D01*
X274501699Y-114076679D01*
X274544846Y-114070894D01*
X274612030Y-114069495D01*
X274707227Y-114069698D01*
X274943302Y-114069860D01*
X274970288Y-114134107D01*
X274981461Y-114156350D01*
X275030369Y-114208330D01*
X275103136Y-114239475D01*
X275200148Y-114249979D01*
X275266851Y-114244839D01*
X275350434Y-114217676D01*
X275412101Y-114168444D01*
X275450283Y-114098579D01*
X275463406Y-114009516D01*
X275463465Y-113925490D01*
X274471153Y-113925490D01*
X274471431Y-113721425D01*
X274473430Y-113621737D01*
X274476159Y-113589384D01*
X274951304Y-113589384D01*
X275463465Y-113589384D01*
X275463406Y-113513360D01*
X275461103Y-113477111D01*
X275436845Y-113397911D01*
X275389179Y-113336631D01*
X275321878Y-113295942D01*
X275238715Y-113278513D01*
X275143466Y-113287014D01*
X275063683Y-113319368D01*
X275003002Y-113375431D01*
X274964789Y-113451817D01*
X274951393Y-113545370D01*
X274951304Y-113589384D01*
X274476159Y-113589384D01*
X274485995Y-113472789D01*
X274511190Y-113347677D01*
X274550283Y-113242390D01*
X274604538Y-113152915D01*
X274675221Y-113075240D01*
X274718564Y-113038892D01*
X274836768Y-112966868D01*
X274969381Y-112917434D01*
X275111031Y-112890513D01*
X275256345Y-112886028D01*
X275399948Y-112903901D01*
X275536468Y-112944057D01*
X275660531Y-113006417D01*
X275766763Y-113090905D01*
X275829147Y-113163577D01*
X275879301Y-113247934D01*
X275916175Y-113346002D01*
X275940995Y-113462079D01*
X275953867Y-113589384D01*
X275954987Y-113600459D01*
X275959379Y-113765439D01*
G37*
G36*
X81827832Y-114264382D02*
G01*
X81766584Y-114364520D01*
X81683228Y-114449568D01*
X81582892Y-114507752D01*
X81464842Y-114539483D01*
X81328346Y-114545175D01*
X81307100Y-114543884D01*
X81185124Y-114524233D01*
X81083625Y-114482984D01*
X80997756Y-114417507D01*
X80922672Y-114325176D01*
X80921572Y-114323538D01*
X80911293Y-114310166D01*
X80904246Y-114308602D01*
X80899827Y-114322886D01*
X80897428Y-114357059D01*
X80896445Y-114415161D01*
X80896270Y-114501232D01*
X80896316Y-114529248D01*
X80897322Y-114612102D01*
X80900206Y-114671066D01*
X80905712Y-114712487D01*
X80914586Y-114742716D01*
X80927572Y-114768099D01*
X80931049Y-114773630D01*
X80982093Y-114827524D01*
X81052139Y-114858802D01*
X81144288Y-114868908D01*
X81224037Y-114861596D01*
X81300928Y-114833027D01*
X81354436Y-114783294D01*
X81383854Y-114712858D01*
X81394910Y-114660842D01*
X81860920Y-114660842D01*
X81850342Y-114752871D01*
X81846045Y-114783026D01*
X81810392Y-114902305D01*
X81747390Y-115005908D01*
X81658047Y-115092797D01*
X81543369Y-115161938D01*
X81404359Y-115212293D01*
X81355924Y-115221870D01*
X81271818Y-115230688D01*
X81174520Y-115235000D01*
X81074584Y-115234656D01*
X80982561Y-115229503D01*
X80909002Y-115219391D01*
X80890721Y-115215340D01*
X80756309Y-115169137D01*
X80636909Y-115098772D01*
X80537036Y-115007483D01*
X80461210Y-114898508D01*
X80424062Y-114828895D01*
X80419574Y-113880596D01*
X80418806Y-113718179D01*
X80896270Y-113718179D01*
X80896473Y-113788827D01*
X80897860Y-113857669D01*
X80901306Y-113905823D01*
X80907665Y-113939699D01*
X80917791Y-113965710D01*
X80932541Y-113990265D01*
X80936434Y-113995818D01*
X80977630Y-114039607D01*
X81024570Y-114072632D01*
X81035673Y-114077629D01*
X81092788Y-114094008D01*
X81152291Y-114100616D01*
X81229494Y-114090085D01*
X81307676Y-114055032D01*
X81367221Y-113999426D01*
X81379112Y-113981054D01*
X81388607Y-113957693D01*
X81394789Y-113925680D01*
X81398350Y-113879174D01*
X81399979Y-113812340D01*
X81400369Y-113719338D01*
X81400148Y-113665286D01*
X81397640Y-113572870D01*
X81390997Y-113504649D01*
X81378564Y-113455359D01*
X81358684Y-113419736D01*
X81329701Y-113392517D01*
X81289958Y-113368437D01*
X81289139Y-113368006D01*
X81227161Y-113348628D01*
X81150680Y-113342561D01*
X81074028Y-113349723D01*
X81011539Y-113370032D01*
X81009012Y-113371382D01*
X80967261Y-113398151D01*
X80937040Y-113430249D01*
X80916590Y-113472987D01*
X80904151Y-113531680D01*
X80897964Y-113611639D01*
X80896270Y-113718179D01*
X80418806Y-113718179D01*
X80415087Y-112932298D01*
X80896210Y-112932298D01*
X80896210Y-113162635D01*
X80944010Y-113087263D01*
X80968231Y-113053309D01*
X81047063Y-112978329D01*
X81143848Y-112924823D01*
X81253480Y-112893869D01*
X81370852Y-112886543D01*
X81490858Y-112903923D01*
X81608392Y-112947087D01*
X81629865Y-112958166D01*
X81717432Y-113018276D01*
X81786957Y-113096316D01*
X81844846Y-113199110D01*
X81852068Y-113215248D01*
X81861088Y-113239050D01*
X81867971Y-113265608D01*
X81873005Y-113299103D01*
X81876478Y-113343713D01*
X81878679Y-113403617D01*
X81879894Y-113482993D01*
X81880412Y-113586022D01*
X81880520Y-113716881D01*
X81880520Y-114157356D01*
X81827832Y-114264382D01*
G37*
G36*
X71219253Y-113484472D02*
G01*
X71240457Y-113568885D01*
X71276122Y-113707720D01*
X71307621Y-113826146D01*
X71334345Y-113922008D01*
X71355687Y-113993150D01*
X71371036Y-114037416D01*
X71379784Y-114052650D01*
X71383895Y-114047711D01*
X71396525Y-114015809D01*
X71415479Y-113956189D01*
X71440128Y-113871052D01*
X71469846Y-113762598D01*
X71504003Y-113633027D01*
X71541972Y-113484540D01*
X71685309Y-112916430D01*
X71945391Y-112916361D01*
X72006088Y-112916677D01*
X72085361Y-112918223D01*
X72148579Y-112920838D01*
X72190425Y-112924277D01*
X72205581Y-112928296D01*
X72204897Y-112931375D01*
X72196777Y-112959359D01*
X72180212Y-113013872D01*
X72156099Y-113092029D01*
X72125338Y-113190948D01*
X72088826Y-113307743D01*
X72047463Y-113439531D01*
X72002146Y-113583428D01*
X71953775Y-113736551D01*
X71701861Y-114532802D01*
X71640490Y-114532802D01*
X71632128Y-114532832D01*
X71603283Y-114535091D01*
X71589074Y-114544845D01*
X71589109Y-114567524D01*
X71602996Y-114608560D01*
X71630343Y-114673386D01*
X71646741Y-114705122D01*
X71682420Y-114745218D01*
X71733074Y-114771010D01*
X71804092Y-114784798D01*
X71900863Y-114788882D01*
X72029418Y-114788882D01*
X72029418Y-115192362D01*
X71777338Y-115186684D01*
X71736105Y-115185720D01*
X71650233Y-115183110D01*
X71587291Y-115179529D01*
X71540755Y-115174020D01*
X71504099Y-115165626D01*
X71470797Y-115153388D01*
X71434324Y-115136350D01*
X71375287Y-115102415D01*
X71283807Y-115022460D01*
X71215517Y-114920479D01*
X71213837Y-114916579D01*
X71202610Y-114885584D01*
X71183169Y-114828634D01*
X71156520Y-114748861D01*
X71123673Y-114649399D01*
X71085637Y-114533380D01*
X71043419Y-114403935D01*
X70998028Y-114264197D01*
X70950474Y-114117300D01*
X70901763Y-113966374D01*
X70852905Y-113814553D01*
X70804908Y-113664968D01*
X70758781Y-113520753D01*
X70715532Y-113385039D01*
X70676170Y-113260960D01*
X70641704Y-113151647D01*
X70613140Y-113060233D01*
X70591490Y-112989849D01*
X70577760Y-112943630D01*
X70572959Y-112924706D01*
X70578771Y-112922912D01*
X70610837Y-112920286D01*
X70666206Y-112918187D01*
X70739481Y-112916796D01*
X70825267Y-112916293D01*
X71077574Y-112916293D01*
X71219253Y-113484472D01*
G37*
G36*
X64209045Y-113484472D02*
G01*
X64230249Y-113568885D01*
X64265914Y-113707720D01*
X64297413Y-113826146D01*
X64324138Y-113922008D01*
X64345479Y-113993150D01*
X64360828Y-114037416D01*
X64369576Y-114052650D01*
X64373687Y-114047711D01*
X64386317Y-114015809D01*
X64405271Y-113956189D01*
X64429920Y-113871052D01*
X64459638Y-113762598D01*
X64493795Y-113633027D01*
X64531764Y-113484540D01*
X64675101Y-112916430D01*
X64935183Y-112916361D01*
X64995880Y-112916677D01*
X65075153Y-112918223D01*
X65138371Y-112920838D01*
X65180217Y-112924277D01*
X65195373Y-112928296D01*
X65194689Y-112931375D01*
X65186569Y-112959359D01*
X65170004Y-113013872D01*
X65145891Y-113092029D01*
X65115130Y-113190948D01*
X65078618Y-113307743D01*
X65037255Y-113439531D01*
X64991938Y-113583428D01*
X64943567Y-113736551D01*
X64691653Y-114532802D01*
X64630282Y-114532802D01*
X64621920Y-114532832D01*
X64593075Y-114535091D01*
X64578866Y-114544845D01*
X64578901Y-114567524D01*
X64592788Y-114608560D01*
X64620135Y-114673386D01*
X64636533Y-114705122D01*
X64672212Y-114745218D01*
X64722866Y-114771010D01*
X64793884Y-114784798D01*
X64890655Y-114788882D01*
X65019210Y-114788882D01*
X65019210Y-115192362D01*
X64767130Y-115186684D01*
X64725897Y-115185720D01*
X64640025Y-115183110D01*
X64577083Y-115179529D01*
X64530547Y-115174020D01*
X64493891Y-115165626D01*
X64460589Y-115153388D01*
X64424117Y-115136350D01*
X64365079Y-115102415D01*
X64273599Y-115022460D01*
X64205309Y-114920479D01*
X64203629Y-114916579D01*
X64192402Y-114885584D01*
X64172961Y-114828634D01*
X64146312Y-114748861D01*
X64113466Y-114649399D01*
X64075429Y-114533380D01*
X64033211Y-114403935D01*
X63987821Y-114264197D01*
X63940266Y-114117300D01*
X63891555Y-113966374D01*
X63842697Y-113814553D01*
X63794700Y-113664968D01*
X63748573Y-113520753D01*
X63705324Y-113385039D01*
X63665962Y-113260960D01*
X63631496Y-113151647D01*
X63602933Y-113060233D01*
X63581282Y-112989849D01*
X63567552Y-112943630D01*
X63562751Y-112924706D01*
X63568563Y-112922912D01*
X63600629Y-112920286D01*
X63655998Y-112918187D01*
X63729273Y-112916796D01*
X63815059Y-112916293D01*
X64067366Y-112916293D01*
X64209045Y-113484472D01*
G37*
G36*
X86129616Y-113764560D02*
G01*
X86129616Y-113765529D01*
X86125170Y-113930505D01*
X86111110Y-114068836D01*
X86086214Y-114184744D01*
X86049261Y-114282453D01*
X85999031Y-114366187D01*
X85934302Y-114440168D01*
X85897880Y-114472363D01*
X85799207Y-114539300D01*
X85687968Y-114593204D01*
X85577522Y-114627077D01*
X85546704Y-114632153D01*
X85455162Y-114638890D01*
X85348899Y-114638270D01*
X85239390Y-114630922D01*
X85138107Y-114617473D01*
X85056522Y-114598552D01*
X84968752Y-114563090D01*
X84873646Y-114507841D01*
X84791659Y-114442658D01*
X84732164Y-114374031D01*
X84715702Y-114345690D01*
X84686862Y-114282067D01*
X84665209Y-114217400D01*
X84660202Y-114198450D01*
X84646959Y-114147295D01*
X84641849Y-114111656D01*
X84648850Y-114088752D01*
X84671936Y-114075799D01*
X84715083Y-114070015D01*
X84782267Y-114068616D01*
X84877464Y-114068818D01*
X85113539Y-114068981D01*
X85140525Y-114133228D01*
X85151698Y-114155470D01*
X85200606Y-114207450D01*
X85273373Y-114238596D01*
X85370385Y-114249100D01*
X85437088Y-114243960D01*
X85520671Y-114216797D01*
X85582338Y-114167565D01*
X85620520Y-114097700D01*
X85633643Y-114008637D01*
X85633702Y-113924610D01*
X84641390Y-113924610D01*
X84641668Y-113720546D01*
X84643667Y-113620858D01*
X84646396Y-113588504D01*
X85121541Y-113588504D01*
X85633702Y-113588504D01*
X85633643Y-113512480D01*
X85631339Y-113476232D01*
X85607082Y-113397032D01*
X85559416Y-113335752D01*
X85492115Y-113295063D01*
X85408952Y-113277633D01*
X85313703Y-113286135D01*
X85233920Y-113318489D01*
X85173239Y-113374551D01*
X85135026Y-113450938D01*
X85121630Y-113544490D01*
X85121541Y-113588504D01*
X84646396Y-113588504D01*
X84656232Y-113471909D01*
X84681427Y-113346798D01*
X84720520Y-113241511D01*
X84774775Y-113152036D01*
X84845458Y-113074360D01*
X84888801Y-113038012D01*
X85007005Y-112965988D01*
X85139618Y-112916554D01*
X85281268Y-112889633D01*
X85426582Y-112885148D01*
X85570185Y-112903022D01*
X85706705Y-112943178D01*
X85830768Y-113005538D01*
X85937000Y-113090025D01*
X85999384Y-113162698D01*
X86049538Y-113247054D01*
X86086412Y-113345123D01*
X86111232Y-113461200D01*
X86124104Y-113588504D01*
X86125224Y-113599580D01*
X86129616Y-113764560D01*
G37*
G36*
X83830571Y-112888463D02*
G01*
X83980997Y-112912310D01*
X84110461Y-112956860D01*
X84217661Y-113021001D01*
X84301294Y-113103619D01*
X84360059Y-113203599D01*
X84392652Y-113319828D01*
X84397771Y-113451191D01*
X84396606Y-113466628D01*
X84379780Y-113565633D01*
X84345964Y-113650872D01*
X84292655Y-113724553D01*
X84217352Y-113788880D01*
X84117551Y-113846061D01*
X83990749Y-113898302D01*
X83834444Y-113947809D01*
X83745512Y-113973687D01*
X83663126Y-113999781D01*
X83603841Y-114022086D01*
X83563251Y-114042537D01*
X83536948Y-114063070D01*
X83520525Y-114085618D01*
X83506746Y-114126467D01*
X83513324Y-114178575D01*
X83546241Y-114222921D01*
X83602231Y-114255626D01*
X83678029Y-114272810D01*
X83741349Y-114273654D01*
X83820057Y-114257558D01*
X83882024Y-114223778D01*
X83922608Y-114175151D01*
X83937168Y-114114512D01*
X83937168Y-114068656D01*
X84421167Y-114068656D01*
X84414230Y-114160685D01*
X84409969Y-114196234D01*
X84395622Y-114262742D01*
X84376628Y-114316734D01*
X84353946Y-114357507D01*
X84281407Y-114445682D01*
X84185596Y-114521662D01*
X84072160Y-114581453D01*
X83946742Y-114621058D01*
X83900432Y-114630004D01*
X83743483Y-114644727D01*
X83587732Y-114636987D01*
X83439481Y-114607877D01*
X83305032Y-114558490D01*
X83190689Y-114489920D01*
X83120391Y-114419282D01*
X83064491Y-114324937D01*
X83029036Y-114217148D01*
X83015496Y-114102752D01*
X83025338Y-113988587D01*
X83060031Y-113881492D01*
X83091136Y-113826733D01*
X83146337Y-113762376D01*
X83220373Y-113705824D01*
X83316538Y-113655093D01*
X83438126Y-113608199D01*
X83588429Y-113563157D01*
X83604024Y-113558899D01*
X83686110Y-113535031D01*
X83759749Y-113511364D01*
X83817408Y-113490429D01*
X83851553Y-113474756D01*
X83892079Y-113443083D01*
X83919391Y-113396818D01*
X83915433Y-113348148D01*
X83879861Y-113299202D01*
X83866972Y-113287939D01*
X83837091Y-113270640D01*
X83797446Y-113262461D01*
X83736989Y-113260401D01*
X83688410Y-113262739D01*
X83612768Y-113281225D01*
X83560597Y-113319150D01*
X83529731Y-113377741D01*
X83514417Y-113428454D01*
X83038924Y-113428454D01*
X83049796Y-113352430D01*
X83072185Y-113256701D01*
X83124749Y-113146745D01*
X83202419Y-113054648D01*
X83303752Y-112981396D01*
X83427303Y-112927974D01*
X83571630Y-112895367D01*
X83735288Y-112884560D01*
X83830571Y-112888463D01*
G37*
G36*
X78271141Y-113764560D02*
G01*
X78271140Y-113765529D01*
X78266695Y-113930505D01*
X78252635Y-114068836D01*
X78227739Y-114184744D01*
X78190786Y-114282453D01*
X78140556Y-114366187D01*
X78075827Y-114440168D01*
X78039405Y-114472363D01*
X77940732Y-114539300D01*
X77829493Y-114593204D01*
X77719047Y-114627077D01*
X77688229Y-114632153D01*
X77596686Y-114638890D01*
X77490424Y-114638270D01*
X77380915Y-114630922D01*
X77279632Y-114617473D01*
X77198047Y-114598552D01*
X77110277Y-114563090D01*
X77015171Y-114507841D01*
X76933184Y-114442658D01*
X76873689Y-114374031D01*
X76857227Y-114345690D01*
X76828387Y-114282067D01*
X76806734Y-114217400D01*
X76801727Y-114198450D01*
X76788484Y-114147295D01*
X76783374Y-114111656D01*
X76790374Y-114088752D01*
X76813460Y-114075799D01*
X76856608Y-114070015D01*
X76923792Y-114068616D01*
X77018989Y-114068818D01*
X77255063Y-114068981D01*
X77282050Y-114133228D01*
X77293223Y-114155470D01*
X77342131Y-114207450D01*
X77414898Y-114238596D01*
X77511909Y-114249100D01*
X77578613Y-114243960D01*
X77662196Y-114216797D01*
X77723863Y-114167565D01*
X77762044Y-114097700D01*
X77775167Y-114008637D01*
X77775227Y-113924610D01*
X76782915Y-113924610D01*
X76783193Y-113720546D01*
X76785192Y-113620858D01*
X76787921Y-113588504D01*
X77263066Y-113588504D01*
X77775227Y-113588504D01*
X77775167Y-113512480D01*
X77772864Y-113476232D01*
X77748607Y-113397032D01*
X77700941Y-113335752D01*
X77633639Y-113295063D01*
X77550477Y-113277633D01*
X77455228Y-113286135D01*
X77375445Y-113318489D01*
X77314764Y-113374551D01*
X77276551Y-113450938D01*
X77263155Y-113544490D01*
X77263066Y-113588504D01*
X76787921Y-113588504D01*
X76797757Y-113471909D01*
X76822952Y-113346798D01*
X76862045Y-113241511D01*
X76916300Y-113152036D01*
X76986982Y-113074360D01*
X77030326Y-113038012D01*
X77148529Y-112965988D01*
X77281143Y-112916554D01*
X77422793Y-112889633D01*
X77568107Y-112885148D01*
X77711710Y-112903022D01*
X77848230Y-112943178D01*
X77972293Y-113005538D01*
X78078525Y-113090025D01*
X78140909Y-113162698D01*
X78191063Y-113247054D01*
X78227937Y-113345123D01*
X78252757Y-113461200D01*
X78265629Y-113588504D01*
X78266749Y-113599580D01*
X78271141Y-113764560D01*
G37*
G36*
X76486195Y-114026286D02*
G01*
X76485075Y-114109372D01*
X76483095Y-114172661D01*
X76480013Y-114220048D01*
X76475586Y-114255428D01*
X76469575Y-114282695D01*
X76461736Y-114305744D01*
X76451828Y-114328471D01*
X76407791Y-114409941D01*
X76332405Y-114503044D01*
X76238522Y-114572414D01*
X76122130Y-114621618D01*
X76048589Y-114638707D01*
X75930574Y-114644055D01*
X75815399Y-114624675D01*
X75709145Y-114582513D01*
X75617890Y-114519519D01*
X75547717Y-114437639D01*
X75502511Y-114366484D01*
X75502511Y-114596822D01*
X75022360Y-114596822D01*
X75022360Y-113764560D01*
X75502631Y-113764560D01*
X75503315Y-113859357D01*
X75506786Y-113951349D01*
X75514420Y-114019988D01*
X75527568Y-114070031D01*
X75547575Y-114106237D01*
X75575791Y-114133365D01*
X75613563Y-114156175D01*
X75659797Y-114175097D01*
X75744823Y-114189461D01*
X75829289Y-114181829D01*
X75904619Y-114153445D01*
X75962236Y-114105555D01*
X75982342Y-114074825D01*
X75997419Y-114035642D01*
X76007330Y-113984059D01*
X76012683Y-113915203D01*
X76014088Y-113824200D01*
X76012154Y-113706177D01*
X76011564Y-113684549D01*
X76007151Y-113585927D01*
X75999287Y-113512881D01*
X75986120Y-113460012D01*
X75965795Y-113421916D01*
X75936460Y-113393191D01*
X75896259Y-113368437D01*
X75895440Y-113368006D01*
X75833462Y-113348628D01*
X75756981Y-113342561D01*
X75680329Y-113349723D01*
X75617840Y-113370032D01*
X75582665Y-113390993D01*
X75552326Y-113417665D01*
X75530670Y-113452124D01*
X75516284Y-113499206D01*
X75507758Y-113563749D01*
X75503677Y-113650588D01*
X75502631Y-113764560D01*
X75022360Y-113764560D01*
X75022360Y-112260086D01*
X75502511Y-112260086D01*
X75502511Y-113162635D01*
X75550311Y-113087263D01*
X75574533Y-113053309D01*
X75653364Y-112978329D01*
X75750149Y-112924823D01*
X75859781Y-112893869D01*
X75977153Y-112886543D01*
X76097159Y-112903923D01*
X76214693Y-112947087D01*
X76236166Y-112958166D01*
X76323733Y-113018276D01*
X76393259Y-113096316D01*
X76451147Y-113199110D01*
X76453318Y-113203841D01*
X76462976Y-113226572D01*
X76470576Y-113250089D01*
X76476363Y-113278295D01*
X76480585Y-113315092D01*
X76483487Y-113364384D01*
X76485315Y-113430073D01*
X76486316Y-113516064D01*
X76486736Y-113626258D01*
X76486821Y-113764560D01*
X76486820Y-113785145D01*
X76486784Y-113824200D01*
X76486696Y-113919509D01*
X76486195Y-114026286D01*
G37*
G36*
X73405851Y-114596822D02*
G01*
X73405851Y-114484787D01*
X73405842Y-114480319D01*
X73404051Y-114425962D01*
X73399764Y-114387423D01*
X73393847Y-114372795D01*
X73390046Y-114374511D01*
X73372298Y-114395102D01*
X73349833Y-114431509D01*
X73294584Y-114504008D01*
X73213405Y-114567889D01*
X73114480Y-114615479D01*
X73094936Y-114621924D01*
X72981161Y-114641955D01*
X72862081Y-114637339D01*
X72745693Y-114609821D01*
X72639998Y-114561145D01*
X72552994Y-114493054D01*
X72531877Y-114470450D01*
X72493530Y-114422334D01*
X72463040Y-114370460D01*
X72439559Y-114310800D01*
X72422239Y-114239327D01*
X72410234Y-114152012D01*
X72402695Y-114044827D01*
X72398775Y-113913746D01*
X72397697Y-113764560D01*
X72885687Y-113764560D01*
X72885697Y-113784115D01*
X72886490Y-113887132D01*
X72889600Y-113964384D01*
X72896486Y-114021238D01*
X72908604Y-114063060D01*
X72927414Y-114095217D01*
X72954372Y-114123075D01*
X72990936Y-114152000D01*
X73030588Y-114173850D01*
X73105154Y-114190754D01*
X73185893Y-114186870D01*
X73261440Y-114161786D01*
X73299920Y-114140001D01*
X73337076Y-114110960D01*
X73363584Y-114075246D01*
X73381179Y-114027805D01*
X73391597Y-113963580D01*
X73396575Y-113877517D01*
X73397849Y-113764560D01*
X73397074Y-113672032D01*
X73392982Y-113580957D01*
X73383799Y-113512740D01*
X73367789Y-113462324D01*
X73343217Y-113424655D01*
X73308346Y-113394676D01*
X73261440Y-113367333D01*
X73238419Y-113356581D01*
X73150582Y-113335696D01*
X73064901Y-113345165D01*
X72986045Y-113383852D01*
X72918686Y-113450623D01*
X72912807Y-113458882D01*
X72902201Y-113478344D01*
X72894772Y-113503340D01*
X72889963Y-113539165D01*
X72887216Y-113591114D01*
X72885977Y-113664480D01*
X72885687Y-113764560D01*
X72397697Y-113764560D01*
X72397626Y-113754741D01*
X72397698Y-113707854D01*
X72399579Y-113559643D01*
X72404678Y-113438071D01*
X72413890Y-113338995D01*
X72428110Y-113258272D01*
X72448236Y-113191761D01*
X72475161Y-113135318D01*
X72509782Y-113084800D01*
X72552994Y-113036065D01*
X72588088Y-113003789D01*
X72680405Y-112944841D01*
X72784447Y-112906894D01*
X72894765Y-112889531D01*
X73005912Y-112892337D01*
X73112440Y-112914895D01*
X73208901Y-112956790D01*
X73289848Y-113017604D01*
X73349833Y-113096923D01*
X73358050Y-113111479D01*
X73379540Y-113143523D01*
X73393847Y-113156325D01*
X73394323Y-113155977D01*
X73397393Y-113136257D01*
X73400149Y-113089176D01*
X73402481Y-113018784D01*
X73404281Y-112929129D01*
X73405440Y-112824261D01*
X73405851Y-112708227D01*
X73405851Y-112260086D01*
X73886002Y-112260086D01*
X73886002Y-114596822D01*
X73405851Y-114596822D01*
G37*
G36*
X66883249Y-114305510D02*
G01*
X66834544Y-114413639D01*
X66760230Y-114504190D01*
X66661818Y-114574993D01*
X66540819Y-114623876D01*
X66487298Y-114633621D01*
X66414347Y-114639346D01*
X66337152Y-114639627D01*
X66317232Y-114638605D01*
X66198034Y-114620157D01*
X66093808Y-114582633D01*
X66009414Y-114528294D01*
X65949715Y-114459402D01*
X65933733Y-114434341D01*
X65909943Y-114402094D01*
X65895486Y-114389262D01*
X65889568Y-114402623D01*
X65885165Y-114439903D01*
X65883482Y-114492789D01*
X65883482Y-114596822D01*
X65417343Y-114596822D01*
X65422340Y-113960622D01*
X65422371Y-113956620D01*
X65895640Y-113956620D01*
X65902587Y-114052667D01*
X65907859Y-114094502D01*
X65934797Y-114169875D01*
X65984291Y-114223701D01*
X66058189Y-114258421D01*
X66065861Y-114260646D01*
X66163950Y-114276383D01*
X66255318Y-114268723D01*
X66333742Y-114238968D01*
X66392999Y-114188419D01*
X66406214Y-114169842D01*
X66425741Y-114117089D01*
X66414897Y-114065491D01*
X66373236Y-114011037D01*
X66318819Y-113956620D01*
X65895640Y-113956620D01*
X65422371Y-113956620D01*
X65427338Y-113324421D01*
X65469773Y-113233906D01*
X65512575Y-113159123D01*
X65597406Y-113062860D01*
X65705334Y-112986178D01*
X65834239Y-112930171D01*
X65982002Y-112895934D01*
X66146503Y-112884560D01*
X66170148Y-112884847D01*
X66328090Y-112899569D01*
X66468643Y-112935503D01*
X66589798Y-112991207D01*
X66689545Y-113065237D01*
X66765874Y-113156149D01*
X66816776Y-113262500D01*
X66840242Y-113382846D01*
X66848085Y-113492474D01*
X66379638Y-113492474D01*
X66379638Y-113448020D01*
X66374012Y-113411962D01*
X66354659Y-113367904D01*
X66342682Y-113352860D01*
X66285384Y-113310024D01*
X66212903Y-113285826D01*
X66133555Y-113280160D01*
X66055657Y-113292917D01*
X65987526Y-113323992D01*
X65937477Y-113373277D01*
X65925015Y-113401773D01*
X65911569Y-113457385D01*
X65903253Y-113523766D01*
X65895361Y-113634067D01*
X66213524Y-113639295D01*
X66253299Y-113639962D01*
X66353253Y-113641974D01*
X66428372Y-113644486D01*
X66484035Y-113648120D01*
X66525621Y-113653499D01*
X66558510Y-113661247D01*
X66588081Y-113671986D01*
X66619714Y-113686340D01*
X66651228Y-113702410D01*
X66754010Y-113775114D01*
X66830713Y-113866302D01*
X66880906Y-113975344D01*
X66904157Y-114101608D01*
X66904287Y-114117089D01*
X66904834Y-114181976D01*
X66883249Y-114305510D01*
G37*
G36*
X63378145Y-114305510D02*
G01*
X63329440Y-114413639D01*
X63255126Y-114504190D01*
X63156714Y-114574993D01*
X63035715Y-114623876D01*
X62982194Y-114633621D01*
X62909243Y-114639346D01*
X62832048Y-114639627D01*
X62812128Y-114638605D01*
X62692930Y-114620157D01*
X62588704Y-114582633D01*
X62504310Y-114528294D01*
X62444611Y-114459402D01*
X62428629Y-114434341D01*
X62404839Y-114402094D01*
X62390382Y-114389262D01*
X62384464Y-114402623D01*
X62380061Y-114439903D01*
X62378378Y-114492789D01*
X62378378Y-114596822D01*
X61912239Y-114596822D01*
X61917236Y-113960622D01*
X61917267Y-113956620D01*
X62390536Y-113956620D01*
X62397483Y-114052667D01*
X62402755Y-114094502D01*
X62429693Y-114169875D01*
X62479187Y-114223701D01*
X62553085Y-114258421D01*
X62560757Y-114260646D01*
X62658846Y-114276383D01*
X62750214Y-114268723D01*
X62828638Y-114238968D01*
X62887895Y-114188419D01*
X62901110Y-114169842D01*
X62920637Y-114117089D01*
X62909793Y-114065491D01*
X62868132Y-114011037D01*
X62813715Y-113956620D01*
X62390536Y-113956620D01*
X61917267Y-113956620D01*
X61922234Y-113324421D01*
X61964669Y-113233906D01*
X62007471Y-113159123D01*
X62092302Y-113062860D01*
X62200230Y-112986178D01*
X62329135Y-112930171D01*
X62476898Y-112895934D01*
X62641399Y-112884560D01*
X62665044Y-112884847D01*
X62822986Y-112899569D01*
X62963539Y-112935503D01*
X63084694Y-112991207D01*
X63184441Y-113065237D01*
X63260770Y-113156149D01*
X63311672Y-113262500D01*
X63335138Y-113382846D01*
X63342981Y-113492474D01*
X62874534Y-113492474D01*
X62874534Y-113448020D01*
X62868908Y-113411962D01*
X62849555Y-113367904D01*
X62837578Y-113352860D01*
X62780280Y-113310024D01*
X62707799Y-113285826D01*
X62628451Y-113280160D01*
X62550553Y-113292917D01*
X62482422Y-113323992D01*
X62432373Y-113373277D01*
X62419911Y-113401773D01*
X62406465Y-113457385D01*
X62398149Y-113523766D01*
X62390257Y-113634067D01*
X62708420Y-113639295D01*
X62748195Y-113639962D01*
X62848149Y-113641974D01*
X62923268Y-113644486D01*
X62978931Y-113648120D01*
X63020517Y-113653499D01*
X63053406Y-113661247D01*
X63082977Y-113671986D01*
X63114610Y-113686340D01*
X63146124Y-113702410D01*
X63248906Y-113775114D01*
X63325609Y-113866302D01*
X63375802Y-113975344D01*
X63399053Y-114101608D01*
X63399183Y-114117089D01*
X63399730Y-114181976D01*
X63378145Y-114305510D01*
G37*
G36*
X59754204Y-114048003D02*
G01*
X59731172Y-114167064D01*
X59678792Y-114299582D01*
X59601519Y-114412852D01*
X59500816Y-114505263D01*
X59378142Y-114575202D01*
X59234959Y-114621058D01*
X59227847Y-114622579D01*
X59069483Y-114643153D01*
X58916579Y-114638562D01*
X58772762Y-114610192D01*
X58641660Y-114559432D01*
X58526898Y-114487670D01*
X58432104Y-114396291D01*
X58360906Y-114286685D01*
X58339952Y-114240434D01*
X58316340Y-114172283D01*
X58299599Y-114096735D01*
X58288796Y-114007675D01*
X58282998Y-113898988D01*
X58281273Y-113764560D01*
X58769241Y-113764560D01*
X58769407Y-113861806D01*
X58770328Y-113937610D01*
X58772614Y-113991785D01*
X58776876Y-114029644D01*
X58783726Y-114056503D01*
X58793774Y-114077675D01*
X58807632Y-114098475D01*
X58812846Y-114105376D01*
X58854194Y-114146150D01*
X58899147Y-114174499D01*
X58960655Y-114192181D01*
X59045830Y-114195195D01*
X59127435Y-114176817D01*
X59197234Y-114139181D01*
X59246988Y-114084420D01*
X59248488Y-114081626D01*
X59259574Y-114041814D01*
X59267839Y-113977937D01*
X59273284Y-113896990D01*
X59275911Y-113805965D01*
X59275721Y-113711855D01*
X59272717Y-113621655D01*
X59266900Y-113542355D01*
X59258271Y-113480951D01*
X59246833Y-113444436D01*
X59228601Y-113418693D01*
X59169628Y-113369970D01*
X59096069Y-113341215D01*
X59015508Y-113332667D01*
X58935526Y-113344564D01*
X58863707Y-113377144D01*
X58807632Y-113430644D01*
X58794335Y-113450501D01*
X58784121Y-113471537D01*
X58777135Y-113498010D01*
X58772765Y-113535234D01*
X58770400Y-113588524D01*
X58769429Y-113663194D01*
X58769241Y-113764560D01*
X58281273Y-113764560D01*
X58282084Y-113668106D01*
X58286541Y-113552219D01*
X58295720Y-113457823D01*
X58310551Y-113378804D01*
X58331969Y-113309045D01*
X58360906Y-113242434D01*
X58401300Y-113173257D01*
X58488298Y-113073094D01*
X58597683Y-112992609D01*
X58726590Y-112933333D01*
X58872153Y-112896793D01*
X59031508Y-112884519D01*
X59130872Y-112889994D01*
X59279109Y-112919422D01*
X59412925Y-112972697D01*
X59529077Y-113047998D01*
X59624322Y-113143504D01*
X59695418Y-113257395D01*
X59697606Y-113262116D01*
X59727630Y-113350748D01*
X59750008Y-113464246D01*
X59764296Y-113596666D01*
X59770053Y-113742062D01*
X59768704Y-113805965D01*
X59766836Y-113894490D01*
X59754204Y-114048003D01*
G37*
G36*
X56494280Y-112328868D02*
G01*
X56610408Y-112335497D01*
X56704319Y-112347070D01*
X56785282Y-112365694D01*
X56862565Y-112393477D01*
X56945436Y-112432525D01*
X56988868Y-112457101D01*
X57092790Y-112539557D01*
X57174810Y-112641692D01*
X57233206Y-112759361D01*
X57266256Y-112888418D01*
X57272238Y-113024719D01*
X57249429Y-113164119D01*
X57232404Y-113218471D01*
X57192829Y-113304973D01*
X57138469Y-113381999D01*
X57066485Y-113451713D01*
X56974039Y-113516280D01*
X56858291Y-113577863D01*
X56716404Y-113638627D01*
X56545538Y-113700736D01*
X56507840Y-113713715D01*
X56422700Y-113743944D01*
X56346532Y-113772182D01*
X56286476Y-113795745D01*
X56249674Y-113811949D01*
X56231407Y-113821846D01*
X56160994Y-113875601D01*
X56118684Y-113936471D01*
X56103178Y-114000411D01*
X56113175Y-114063371D01*
X56147375Y-114121304D01*
X56204477Y-114170163D01*
X56283182Y-114205901D01*
X56382189Y-114224468D01*
X56455140Y-114225440D01*
X56555780Y-114208637D01*
X56640145Y-114171838D01*
X56704737Y-114117439D01*
X56746058Y-114047834D01*
X56760608Y-113965418D01*
X56760608Y-113908605D01*
X57292984Y-113908605D01*
X57285481Y-114025517D01*
X57283943Y-114045167D01*
X57256891Y-114178177D01*
X57201411Y-114296725D01*
X57116944Y-114402061D01*
X57115846Y-114403155D01*
X57029884Y-114472920D01*
X56922852Y-114535904D01*
X56805502Y-114586645D01*
X56688586Y-114619681D01*
X56613875Y-114631510D01*
X56465918Y-114641957D01*
X56313922Y-114638481D01*
X56173831Y-114621040D01*
X56054024Y-114590342D01*
X55914510Y-114530520D01*
X55795782Y-114450502D01*
X55699611Y-114352634D01*
X55627772Y-114239263D01*
X55582035Y-114112734D01*
X55564173Y-113975394D01*
X55575959Y-113829588D01*
X55578945Y-113814013D01*
X55614987Y-113693358D01*
X55672655Y-113591032D01*
X55756329Y-113499008D01*
X55783563Y-113474867D01*
X55837880Y-113431893D01*
X55896023Y-113394215D01*
X55963421Y-113359154D01*
X56045503Y-113324034D01*
X56147697Y-113286174D01*
X56275431Y-113242897D01*
X56361705Y-113213927D01*
X56478058Y-113171928D01*
X56568205Y-113134245D01*
X56635172Y-113098870D01*
X56681988Y-113063795D01*
X56711679Y-113027013D01*
X56727274Y-112986518D01*
X56731799Y-112940300D01*
X56724201Y-112886408D01*
X56690109Y-112824724D01*
X56630714Y-112778799D01*
X56548299Y-112750224D01*
X56445147Y-112740589D01*
X56347215Y-112749308D01*
X56259194Y-112776541D01*
X56192851Y-112820415D01*
X56150989Y-112879024D01*
X56136412Y-112950461D01*
X56136412Y-113012323D01*
X55603944Y-113012323D01*
X55611916Y-112900907D01*
X55615776Y-112862810D01*
X55646335Y-112741121D01*
X55704863Y-112632749D01*
X55793049Y-112534275D01*
X55829382Y-112502743D01*
X55932504Y-112431024D01*
X56045203Y-112379169D01*
X56172256Y-112345763D01*
X56318437Y-112329397D01*
X56488523Y-112328657D01*
X56494280Y-112328868D01*
G37*
G36*
X49021623Y-114305510D02*
G01*
X48972918Y-114413639D01*
X48898604Y-114504190D01*
X48800193Y-114574993D01*
X48679194Y-114623876D01*
X48625672Y-114633621D01*
X48552721Y-114639346D01*
X48475526Y-114639627D01*
X48455606Y-114638605D01*
X48336408Y-114620157D01*
X48232182Y-114582633D01*
X48147788Y-114528294D01*
X48088089Y-114459402D01*
X48072107Y-114434341D01*
X48048317Y-114402094D01*
X48033860Y-114389262D01*
X48027942Y-114402623D01*
X48023539Y-114439903D01*
X48021856Y-114492789D01*
X48021856Y-114596822D01*
X47555717Y-114596822D01*
X47560715Y-113960622D01*
X47560746Y-113956620D01*
X48034014Y-113956620D01*
X48040961Y-114052667D01*
X48046233Y-114094502D01*
X48073171Y-114169875D01*
X48122666Y-114223701D01*
X48196563Y-114258421D01*
X48204235Y-114260646D01*
X48302324Y-114276383D01*
X48393692Y-114268723D01*
X48472116Y-114238968D01*
X48531374Y-114188419D01*
X48544588Y-114169842D01*
X48564115Y-114117089D01*
X48553272Y-114065491D01*
X48511610Y-114011037D01*
X48457193Y-113956620D01*
X48034014Y-113956620D01*
X47560746Y-113956620D01*
X47565712Y-113324421D01*
X47608148Y-113233906D01*
X47650950Y-113159123D01*
X47735780Y-113062860D01*
X47843708Y-112986178D01*
X47972613Y-112930171D01*
X48120376Y-112895934D01*
X48284877Y-112884560D01*
X48308522Y-112884847D01*
X48466464Y-112899569D01*
X48607018Y-112935503D01*
X48728173Y-112991207D01*
X48827919Y-113065237D01*
X48904249Y-113156149D01*
X48955151Y-113262500D01*
X48978616Y-113382846D01*
X48986460Y-113492474D01*
X48518012Y-113492474D01*
X48518012Y-113448020D01*
X48512386Y-113411962D01*
X48493033Y-113367904D01*
X48481056Y-113352860D01*
X48423759Y-113310024D01*
X48351277Y-113285826D01*
X48271929Y-113280160D01*
X48194031Y-113292917D01*
X48125900Y-113323992D01*
X48075851Y-113373277D01*
X48063389Y-113401773D01*
X48049944Y-113457385D01*
X48041628Y-113523766D01*
X48033735Y-113634067D01*
X48351898Y-113639295D01*
X48391673Y-113639962D01*
X48491628Y-113641974D01*
X48566746Y-113644486D01*
X48622409Y-113648120D01*
X48663995Y-113653499D01*
X48696884Y-113661247D01*
X48726455Y-113671986D01*
X48758088Y-113686340D01*
X48789603Y-113702410D01*
X48892384Y-113775114D01*
X48969088Y-113866302D01*
X49019281Y-113975344D01*
X49042531Y-114101608D01*
X49042662Y-114117089D01*
X49043209Y-114181976D01*
X49021623Y-114305510D01*
G37*
G36*
X87662341Y-114596585D02*
G01*
X87551251Y-114596391D01*
X87409165Y-114595359D01*
X87292414Y-114593016D01*
X87196996Y-114588886D01*
X87118915Y-114582496D01*
X87054170Y-114573371D01*
X86998763Y-114561036D01*
X86948695Y-114545018D01*
X86899966Y-114524841D01*
X86848578Y-114500031D01*
X86818147Y-114483752D01*
X86695197Y-114397019D01*
X86591072Y-114288327D01*
X86509913Y-114162685D01*
X86455863Y-114025104D01*
X86450345Y-114003942D01*
X86442403Y-113966196D01*
X86436356Y-113923404D01*
X86431957Y-113871071D01*
X86428962Y-113804705D01*
X86427127Y-113719811D01*
X86426205Y-113611897D01*
X86425952Y-113476469D01*
X86425966Y-113428237D01*
X86426079Y-113381018D01*
X86931646Y-113381018D01*
X86932998Y-113517033D01*
X86938113Y-113884598D01*
X86982552Y-113960196D01*
X87023602Y-114015842D01*
X87102590Y-114080234D01*
X87115723Y-114087849D01*
X87144719Y-114102843D01*
X87174127Y-114113342D01*
X87210267Y-114120333D01*
X87259458Y-114124800D01*
X87328018Y-114127731D01*
X87422266Y-114130111D01*
X87666343Y-114135549D01*
X87666343Y-112816703D01*
X87438271Y-112823718D01*
X87432590Y-112823896D01*
X87317471Y-112829442D01*
X87228398Y-112838947D01*
X87159726Y-112854127D01*
X87105810Y-112876696D01*
X87061005Y-112908367D01*
X87019665Y-112950857D01*
X87014354Y-112957129D01*
X86987977Y-112991702D01*
X86967570Y-113027647D01*
X86952462Y-113069338D01*
X86941986Y-113121147D01*
X86935470Y-113187448D01*
X86932247Y-113272614D01*
X86931646Y-113381018D01*
X86426079Y-113381018D01*
X86426258Y-113306031D01*
X86427151Y-113209781D01*
X86428932Y-113134968D01*
X86431891Y-113077072D01*
X86436318Y-113031576D01*
X86442502Y-112993960D01*
X86450733Y-112959706D01*
X86461298Y-112924295D01*
X86462711Y-112919856D01*
X86525503Y-112773123D01*
X86612822Y-112646822D01*
X86724073Y-112541651D01*
X86858658Y-112458312D01*
X86912401Y-112433453D01*
X86969636Y-112411685D01*
X87030677Y-112394365D01*
X87099551Y-112381007D01*
X87180286Y-112371126D01*
X87276907Y-112364238D01*
X87393441Y-112359856D01*
X87533914Y-112357497D01*
X87702354Y-112356675D01*
X88178504Y-112356116D01*
X88178504Y-114596822D01*
X87662341Y-114596585D01*
G37*
G36*
X82736790Y-114596822D02*
G01*
X82256639Y-114596822D01*
X82256639Y-112932298D01*
X82736790Y-112932298D01*
X82736790Y-114596822D01*
G37*
G36*
X79134135Y-112890795D02*
G01*
X79246566Y-112914420D01*
X79347643Y-112957562D01*
X79431219Y-113017616D01*
X79491147Y-113091976D01*
X79502797Y-113111393D01*
X79525409Y-113143505D01*
X79539783Y-113156245D01*
X79540263Y-113156161D01*
X79546087Y-113139502D01*
X79550217Y-113099532D01*
X79551787Y-113044333D01*
X79551787Y-112932298D01*
X80031938Y-112932298D01*
X80031938Y-114596822D01*
X79551787Y-114596822D01*
X79551405Y-114088662D01*
X79551265Y-114029626D01*
X79550341Y-113905186D01*
X79548661Y-113790534D01*
X79546341Y-113690114D01*
X79543494Y-113608372D01*
X79540237Y-113549752D01*
X79536682Y-113518696D01*
X79506268Y-113447998D01*
X79450482Y-113388215D01*
X79377080Y-113350724D01*
X79371242Y-113349000D01*
X79300981Y-113334709D01*
X79240164Y-113339216D01*
X79172728Y-113363528D01*
X79147914Y-113375087D01*
X79122938Y-113389207D01*
X79102931Y-113406510D01*
X79087342Y-113430197D01*
X79075621Y-113463473D01*
X79067216Y-113509540D01*
X79061575Y-113571601D01*
X79058147Y-113652860D01*
X79056381Y-113756519D01*
X79055726Y-113885783D01*
X79055631Y-114043853D01*
X79055631Y-114596822D01*
X78575479Y-114596822D01*
X78575479Y-113241506D01*
X78624450Y-113143508D01*
X78630240Y-113132221D01*
X78697349Y-113034198D01*
X78782617Y-112961730D01*
X78887537Y-112913840D01*
X79013602Y-112889557D01*
X79016496Y-112889294D01*
X79134135Y-112890795D01*
G37*
G36*
X69500621Y-114596822D02*
G01*
X68986652Y-114596822D01*
X68991557Y-113876587D01*
X68992256Y-113757951D01*
X68992783Y-113617515D01*
X68992931Y-113489928D01*
X68992713Y-113378385D01*
X68992143Y-113286077D01*
X68991235Y-113216199D01*
X68990003Y-113171943D01*
X68988460Y-113156503D01*
X68982619Y-113166681D01*
X68965563Y-113203220D01*
X68938905Y-113263121D01*
X68904105Y-113343024D01*
X68862627Y-113439570D01*
X68815931Y-113549396D01*
X68765480Y-113669142D01*
X68550504Y-114181629D01*
X68360616Y-114177159D01*
X68170728Y-114172688D01*
X67958932Y-113673398D01*
X67920871Y-113583837D01*
X67873258Y-113472294D01*
X67830609Y-113372934D01*
X67794421Y-113289220D01*
X67766191Y-113224611D01*
X67747419Y-113182570D01*
X67739600Y-113166556D01*
X67738427Y-113175168D01*
X67737235Y-113212284D01*
X67736366Y-113275746D01*
X67735831Y-113362402D01*
X67735639Y-113469099D01*
X67735801Y-113592685D01*
X67736328Y-113730007D01*
X67737230Y-113877914D01*
X67742395Y-114596822D01*
X67227905Y-114596822D01*
X67227905Y-112356116D01*
X67552007Y-112356422D01*
X67876109Y-112356729D01*
X68108075Y-112932604D01*
X68120272Y-112962849D01*
X68171220Y-113088421D01*
X68218376Y-113203448D01*
X68260396Y-113304732D01*
X68295934Y-113389075D01*
X68323647Y-113453279D01*
X68342189Y-113494146D01*
X68350217Y-113508479D01*
X68350905Y-113507995D01*
X68361333Y-113488790D01*
X68381820Y-113444310D01*
X68410750Y-113378290D01*
X68446505Y-113294465D01*
X68487469Y-113196573D01*
X68532027Y-113088347D01*
X68576825Y-112978735D01*
X68624968Y-112861035D01*
X68670540Y-112749714D01*
X68711160Y-112650585D01*
X68744446Y-112569464D01*
X68768017Y-112512165D01*
X68832374Y-112356116D01*
X69500621Y-112356116D01*
X69500621Y-114596822D01*
G37*
G36*
X60648312Y-112890795D02*
G01*
X60760744Y-112914420D01*
X60861821Y-112957562D01*
X60945397Y-113017616D01*
X61005324Y-113091976D01*
X61016975Y-113111393D01*
X61039587Y-113143505D01*
X61053961Y-113156245D01*
X61054441Y-113156161D01*
X61060265Y-113139502D01*
X61064395Y-113099532D01*
X61065964Y-113044333D01*
X61065964Y-112932298D01*
X61546116Y-112932298D01*
X61546116Y-114596822D01*
X61065964Y-114596822D01*
X61065583Y-114088662D01*
X61065443Y-114029626D01*
X61064519Y-113905186D01*
X61062839Y-113790534D01*
X61060519Y-113690114D01*
X61057672Y-113608372D01*
X61054414Y-113549752D01*
X61050860Y-113518696D01*
X61020446Y-113447998D01*
X60964660Y-113388215D01*
X60891258Y-113350724D01*
X60885420Y-113349000D01*
X60815159Y-113334709D01*
X60754341Y-113339216D01*
X60686906Y-113363528D01*
X60662092Y-113375087D01*
X60637115Y-113389207D01*
X60617108Y-113406510D01*
X60601520Y-113430197D01*
X60589799Y-113463473D01*
X60581393Y-113509540D01*
X60575752Y-113571601D01*
X60572325Y-113652860D01*
X60570559Y-113756519D01*
X60569904Y-113885783D01*
X60569808Y-114043853D01*
X60569808Y-114596822D01*
X60089657Y-114596822D01*
X60089657Y-113241506D01*
X60138627Y-113143508D01*
X60144418Y-113132221D01*
X60211527Y-113034198D01*
X60296795Y-112961730D01*
X60401715Y-112913840D01*
X60527780Y-112889557D01*
X60530674Y-112889294D01*
X60648312Y-112890795D01*
G37*
G36*
X55240130Y-114596822D02*
G01*
X54759978Y-114596822D01*
X54759597Y-114088662D01*
X54759457Y-114029626D01*
X54758533Y-113905186D01*
X54756853Y-113790534D01*
X54754532Y-113690114D01*
X54751686Y-113608372D01*
X54748428Y-113549752D01*
X54744874Y-113518696D01*
X54714460Y-113447998D01*
X54658674Y-113388215D01*
X54585272Y-113350724D01*
X54579434Y-113349000D01*
X54509173Y-113334709D01*
X54448355Y-113339216D01*
X54380920Y-113363528D01*
X54356106Y-113375087D01*
X54331129Y-113389207D01*
X54311122Y-113406510D01*
X54295534Y-113430197D01*
X54283812Y-113463473D01*
X54275407Y-113509540D01*
X54269766Y-113571601D01*
X54266339Y-113652860D01*
X54264573Y-113756519D01*
X54263918Y-113885783D01*
X54263822Y-114043853D01*
X54263822Y-114596822D01*
X53783671Y-114596822D01*
X53783671Y-113241506D01*
X53832641Y-113143508D01*
X53838431Y-113132221D01*
X53905541Y-113034198D01*
X53990809Y-112961730D01*
X54095729Y-112913840D01*
X54221794Y-112889557D01*
X54224688Y-112889294D01*
X54342326Y-112890795D01*
X54454758Y-112914420D01*
X54555835Y-112957562D01*
X54639410Y-113017616D01*
X54699338Y-113091976D01*
X54710989Y-113111393D01*
X54733601Y-113143505D01*
X54747975Y-113156245D01*
X54748451Y-113155900D01*
X54751521Y-113136197D01*
X54754276Y-113089133D01*
X54756608Y-113018757D01*
X54758408Y-112929115D01*
X54759568Y-112824256D01*
X54759978Y-112708227D01*
X54759978Y-112260086D01*
X55240130Y-112260086D01*
X55240130Y-114596822D01*
G37*
G36*
X53415555Y-114596822D02*
G01*
X52935404Y-114596822D01*
X52935404Y-112932298D01*
X53415555Y-112932298D01*
X53415555Y-114596822D01*
G37*
G36*
X51637474Y-112890795D02*
G01*
X51749906Y-112914420D01*
X51850983Y-112957562D01*
X51934558Y-113017616D01*
X51994486Y-113091976D01*
X52006137Y-113111393D01*
X52028749Y-113143505D01*
X52043123Y-113156245D01*
X52043603Y-113156161D01*
X52049427Y-113139502D01*
X52053557Y-113099532D01*
X52055126Y-113044333D01*
X52055126Y-112932298D01*
X52535278Y-112932298D01*
X52535278Y-114596822D01*
X52055126Y-114596822D01*
X52054745Y-114088662D01*
X52054605Y-114029626D01*
X52053681Y-113905186D01*
X52052001Y-113790534D01*
X52049680Y-113690114D01*
X52046834Y-113608372D01*
X52043576Y-113549752D01*
X52040022Y-113518696D01*
X52009608Y-113447998D01*
X51953822Y-113388215D01*
X51880420Y-113350724D01*
X51874582Y-113349000D01*
X51804321Y-113334709D01*
X51743503Y-113339216D01*
X51676068Y-113363528D01*
X51651254Y-113375087D01*
X51626277Y-113389207D01*
X51606270Y-113406510D01*
X51590682Y-113430197D01*
X51578961Y-113463473D01*
X51570555Y-113509540D01*
X51564914Y-113571601D01*
X51561487Y-113652860D01*
X51559721Y-113756519D01*
X51559066Y-113885783D01*
X51558970Y-114043853D01*
X51558970Y-114596822D01*
X51078819Y-114596822D01*
X51078819Y-113241506D01*
X51127789Y-113143508D01*
X51133580Y-113132221D01*
X51200689Y-113034198D01*
X51285957Y-112961730D01*
X51390877Y-112913840D01*
X51516942Y-112889557D01*
X51519836Y-112889294D01*
X51637474Y-112890795D01*
G37*
G36*
X50694698Y-114596822D02*
G01*
X50214547Y-114596822D01*
X50214547Y-114146544D01*
X50140002Y-114060199D01*
X50136205Y-114055828D01*
X50098582Y-114015496D01*
X50068957Y-113988781D01*
X50053457Y-113981270D01*
X50050978Y-113984138D01*
X50034950Y-114009424D01*
X50007037Y-114057094D01*
X49969633Y-114122954D01*
X49925130Y-114202808D01*
X49875922Y-114292462D01*
X49710388Y-114596237D01*
X49426783Y-114596529D01*
X49143179Y-114596822D01*
X49317943Y-114309976D01*
X49373064Y-114219554D01*
X49440482Y-114109071D01*
X49507609Y-113999163D01*
X49568996Y-113898753D01*
X49619192Y-113816765D01*
X49745678Y-113610399D01*
X49451946Y-113277403D01*
X49443020Y-113267281D01*
X49367247Y-113181124D01*
X49299196Y-113103346D01*
X49241567Y-113037062D01*
X49197060Y-112985391D01*
X49168376Y-112951449D01*
X49158214Y-112938352D01*
X49168960Y-112936687D01*
X49206979Y-112934935D01*
X49267549Y-112933545D01*
X49345523Y-112932628D01*
X49435756Y-112932298D01*
X49713298Y-112932298D01*
X49948108Y-113228391D01*
X49990698Y-113281769D01*
X50054015Y-113359853D01*
X50109428Y-113426651D01*
X50153985Y-113478679D01*
X50184736Y-113512452D01*
X50198732Y-113524484D01*
X50201059Y-113520244D01*
X50205074Y-113488295D01*
X50208416Y-113425895D01*
X50211059Y-113334069D01*
X50212980Y-113213843D01*
X50214151Y-113066240D01*
X50214547Y-112892285D01*
X50214547Y-112260086D01*
X50694698Y-112260086D01*
X50694698Y-114596822D01*
G37*
G36*
X47205599Y-114596822D02*
G01*
X46725448Y-114596822D01*
X46725448Y-112932298D01*
X47205599Y-112932298D01*
X47205599Y-114596822D01*
G37*
G36*
X82536746Y-112184051D02*
G01*
X82615575Y-112205574D01*
X82683555Y-112246282D01*
X82733844Y-112306280D01*
X82754856Y-112358355D01*
X82767928Y-112435691D01*
X82765289Y-112513103D01*
X82746313Y-112576980D01*
X82727280Y-112607697D01*
X82672328Y-112666801D01*
X82608741Y-112707104D01*
X82581769Y-112713882D01*
X82529068Y-112719125D01*
X82468878Y-112719321D01*
X82429477Y-112716176D01*
X82355525Y-112697839D01*
X82297172Y-112659687D01*
X82244635Y-112596355D01*
X82220545Y-112542121D01*
X82208691Y-112465969D01*
X82213266Y-112385718D01*
X82234714Y-112313975D01*
X82249783Y-112287701D01*
X82303586Y-112233538D01*
X82373909Y-112198139D01*
X82453909Y-112181608D01*
X82536746Y-112184051D01*
G37*
G36*
X53215511Y-112184051D02*
G01*
X53294340Y-112205574D01*
X53362320Y-112246282D01*
X53412609Y-112306280D01*
X53433621Y-112358355D01*
X53446693Y-112435691D01*
X53444054Y-112513103D01*
X53425078Y-112576980D01*
X53406044Y-112607697D01*
X53351093Y-112666801D01*
X53287506Y-112707104D01*
X53260533Y-112713882D01*
X53207833Y-112719125D01*
X53147643Y-112719321D01*
X53108242Y-112716176D01*
X53034290Y-112697839D01*
X52975937Y-112659687D01*
X52923400Y-112596355D01*
X52899310Y-112542121D01*
X52887456Y-112465969D01*
X52892031Y-112385718D01*
X52913479Y-112313975D01*
X52928548Y-112287701D01*
X52982351Y-112233538D01*
X53052674Y-112198139D01*
X53132674Y-112181608D01*
X53215511Y-112184051D01*
G37*
G36*
X47005555Y-112184051D02*
G01*
X47084384Y-112205574D01*
X47152364Y-112246282D01*
X47202653Y-112306280D01*
X47223665Y-112358355D01*
X47236737Y-112435691D01*
X47234098Y-112513103D01*
X47215122Y-112576980D01*
X47196089Y-112607697D01*
X47141138Y-112666801D01*
X47077550Y-112707104D01*
X47050578Y-112713882D01*
X46997878Y-112719125D01*
X46937687Y-112719321D01*
X46898287Y-112716176D01*
X46824334Y-112697839D01*
X46765981Y-112659687D01*
X46713444Y-112596355D01*
X46689354Y-112542121D01*
X46677500Y-112465969D01*
X46682075Y-112385718D01*
X46703523Y-112313975D01*
X46718592Y-112287701D01*
X46772395Y-112233538D01*
X46842718Y-112198139D01*
X46922718Y-112181608D01*
X47005555Y-112184051D01*
G37*
X87147500Y-56847500D02*
X87147500Y-59387500D01*
X84607500Y-56847500D02*
X84607500Y-59387500D01*
X84607500Y-59387500D02*
G75*
G03*
X87147500Y-59387500I1270000J0D01*
G01*
X87147500Y-56847500D02*
G75*
G03*
X84607500Y-56847500I-1270000J0D01*
G01*
D11*
X296987500Y-53900000D02*
X294987500Y-53900000D01*
X294987500Y-53900000D02*
X294987500Y-50000000D01*
X296987500Y-53900000D02*
X296987500Y-50000000D01*
X61786250Y-54496359D02*
X61786250Y-54803641D01*
X61026250Y-54496359D02*
X61026250Y-54803641D01*
X120775000Y-72950000D02*
X118775000Y-72950000D01*
X120775000Y-72950000D02*
X120775000Y-69050000D01*
X118775000Y-72950000D02*
X118775000Y-69050000D01*
X154112500Y-53900000D02*
X154112500Y-50000000D01*
X154112500Y-53900000D02*
X152112500Y-53900000D01*
X152112500Y-53900000D02*
X152112500Y-50000000D01*
X77912500Y-53900000D02*
X77912500Y-50000000D01*
X75912500Y-53900000D02*
X75912500Y-50000000D01*
X77912500Y-53900000D02*
X75912500Y-53900000D01*
X175925000Y-72950000D02*
X175925000Y-69050000D01*
X177925000Y-72950000D02*
X177925000Y-69050000D01*
X177925000Y-72950000D02*
X175925000Y-72950000D01*
X101725000Y-72950000D02*
X101725000Y-69050000D01*
X99725000Y-72950000D02*
X99725000Y-69050000D01*
X101725000Y-72950000D02*
X99725000Y-72950000D01*
X211262500Y-53900000D02*
X211262500Y-50000000D01*
X209262500Y-53900000D02*
X209262500Y-50000000D01*
X211262500Y-53900000D02*
X209262500Y-53900000D01*
X133062500Y-53900000D02*
X133062500Y-50000000D01*
X135062500Y-53900000D02*
X135062500Y-50000000D01*
X135062500Y-53900000D02*
X133062500Y-53900000D01*
X130300000Y-92000000D02*
X130300000Y-88100000D01*
X130300000Y-92000000D02*
X128300000Y-92000000D01*
X128300000Y-92000000D02*
X128300000Y-88100000D01*
X223550000Y-92000000D02*
X223550000Y-88100000D01*
X225550000Y-92000000D02*
X225550000Y-88100000D01*
X225550000Y-92000000D02*
X223550000Y-92000000D01*
X69355932Y-58497543D02*
X72655932Y-58497543D01*
X72655932Y-58497543D02*
X72655932Y-62497543D01*
X56481250Y-72950000D02*
X56481250Y-69050000D01*
X54481250Y-72950000D02*
X54481250Y-69050000D01*
X56481250Y-72950000D02*
X54481250Y-72950000D01*
X92200000Y-92000000D02*
X92200000Y-88100000D01*
X92200000Y-92000000D02*
X90200000Y-92000000D01*
X90200000Y-92000000D02*
X90200000Y-88100000D01*
X254125000Y-72950000D02*
X254125000Y-69050000D01*
X252125000Y-72950000D02*
X252125000Y-69050000D01*
X254125000Y-72950000D02*
X252125000Y-72950000D01*
X116012500Y-53900000D02*
X116012500Y-50000000D01*
X114012500Y-53900000D02*
X114012500Y-50000000D01*
X116012500Y-53900000D02*
X114012500Y-53900000D01*
X146968750Y-111050000D02*
X146968750Y-107150000D01*
X146968750Y-111050000D02*
X144968750Y-111050000D01*
X144968750Y-111050000D02*
X144968750Y-107150000D01*
X149350000Y-92000000D02*
X147350000Y-92000000D01*
X147350000Y-92000000D02*
X147350000Y-88100000D01*
X149350000Y-92000000D02*
X149350000Y-88100000D01*
X72919365Y-59289706D02*
X72919365Y-59505378D01*
X73639365Y-59289706D02*
X73639365Y-59505378D01*
X96962500Y-111050000D02*
X94962500Y-111050000D01*
X96962500Y-111050000D02*
X96962500Y-107150000D01*
X94962500Y-111050000D02*
X94962500Y-107150000D01*
X206500000Y-92000000D02*
X206500000Y-88100000D01*
X206500000Y-92000000D02*
X204500000Y-92000000D01*
X204500000Y-92000000D02*
X204500000Y-88100000D01*
X111250000Y-92000000D02*
X111250000Y-88100000D01*
X111250000Y-92000000D02*
X109250000Y-92000000D01*
X109250000Y-92000000D02*
X109250000Y-88100000D01*
X187450000Y-92000000D02*
X187450000Y-88100000D01*
X187450000Y-92000000D02*
X185450000Y-92000000D01*
X185450000Y-92000000D02*
X185450000Y-88100000D01*
X285081250Y-72950000D02*
X283081250Y-72950000D01*
X283081250Y-72950000D02*
X283081250Y-69050000D01*
X285081250Y-72950000D02*
X285081250Y-69050000D01*
X56696250Y-42147164D02*
X56696250Y-42362836D01*
X55976250Y-42147164D02*
X55976250Y-42362836D01*
X214025000Y-72950000D02*
X214025000Y-69050000D01*
X216025000Y-72950000D02*
X216025000Y-69050000D01*
X216025000Y-72950000D02*
X214025000Y-72950000D01*
X77594450Y-111050000D02*
X77594450Y-107150000D01*
X77594450Y-111050000D02*
X75594450Y-111050000D01*
X75594450Y-111050000D02*
X75594450Y-107150000D01*
X249362500Y-53900000D02*
X247362500Y-53900000D01*
X247362500Y-53900000D02*
X247362500Y-50000000D01*
X249362500Y-53900000D02*
X249362500Y-50000000D01*
X96962500Y-53900000D02*
X94962500Y-53900000D01*
X94962500Y-53900000D02*
X94962500Y-50000000D01*
X96962500Y-53900000D02*
X96962500Y-50000000D01*
X62786250Y-54496359D02*
X62786250Y-54803641D01*
X62026250Y-54496359D02*
X62026250Y-54803641D01*
X50153641Y-75720000D02*
X49846359Y-75720000D01*
X50153641Y-76480000D02*
X49846359Y-76480000D01*
X66780009Y-75098491D02*
X66562728Y-75315772D01*
X66242608Y-74561090D02*
X66025327Y-74778371D01*
X67856250Y-42101359D02*
X67856250Y-42408641D01*
X67096250Y-42101359D02*
X67096250Y-42408641D01*
X271175000Y-53900000D02*
X271175000Y-50000000D01*
X273175000Y-53900000D02*
X273175000Y-50000000D01*
X273175000Y-53900000D02*
X271175000Y-53900000D01*
X66388125Y-52252064D02*
X66388125Y-51047936D01*
X64568125Y-52252064D02*
X64568125Y-51047936D01*
X139825000Y-72950000D02*
X137825000Y-72950000D01*
X137825000Y-72950000D02*
X137825000Y-69050000D01*
X139825000Y-72950000D02*
X139825000Y-69050000D01*
X61363001Y-65797546D02*
X61210498Y-65645043D01*
X61872118Y-65288429D02*
X61719615Y-65135926D01*
X61391285Y-64411617D02*
X61238782Y-64259114D01*
X61900402Y-63902500D02*
X61747899Y-63749997D01*
X69092500Y-60389706D02*
X69092500Y-60605378D01*
X68372500Y-60389706D02*
X68372500Y-60605378D01*
X158875000Y-72950000D02*
X158875000Y-69050000D01*
X158875000Y-72950000D02*
X156875000Y-72950000D01*
X156875000Y-72950000D02*
X156875000Y-69050000D01*
X67096250Y-44408641D02*
X67096250Y-44101359D01*
X67856250Y-44408641D02*
X67856250Y-44101359D01*
X230312500Y-53900000D02*
X228312500Y-53900000D01*
X228312500Y-53900000D02*
X228312500Y-50000000D01*
X230312500Y-53900000D02*
X230312500Y-50000000D01*
X168400000Y-92000000D02*
X168400000Y-88100000D01*
X166400000Y-92000000D02*
X166400000Y-88100000D01*
X168400000Y-92000000D02*
X166400000Y-92000000D01*
X63833864Y-74756114D02*
X63986367Y-74908617D01*
X64342981Y-74246997D02*
X64495484Y-74399500D01*
X70583436Y-69050000D02*
X70070784Y-69562652D01*
X65478125Y-74155311D02*
X65990777Y-73642659D01*
X60885466Y-69562652D02*
X60372814Y-69050000D01*
X65478125Y-63944689D02*
X64965473Y-64457341D01*
X70070784Y-68537348D02*
X70583436Y-69050000D01*
X64965473Y-73642659D02*
X65478125Y-74155311D01*
X65990777Y-64457341D02*
X65478125Y-63944689D01*
X252125000Y-112700000D02*
X252125000Y-108800000D01*
X254125000Y-112700000D02*
X252125000Y-112700000D01*
X254125000Y-112700000D02*
X254125000Y-108800000D01*
X171162500Y-53900000D02*
X171162500Y-50000000D01*
X173162500Y-53900000D02*
X171162500Y-53900000D01*
X173162500Y-53900000D02*
X173162500Y-50000000D01*
X192212500Y-53900000D02*
X192212500Y-50000000D01*
X192212500Y-53900000D02*
X190212500Y-53900000D01*
X190212500Y-53900000D02*
X190212500Y-50000000D01*
X56716250Y-44408641D02*
X56716250Y-44101359D01*
X55956250Y-44408641D02*
X55956250Y-44101359D01*
X61243750Y-92000000D02*
X61243750Y-88100000D01*
X59243750Y-92000000D02*
X59243750Y-88100000D01*
X61243750Y-92000000D02*
X59243750Y-92000000D01*
X82675000Y-72950000D02*
X80675000Y-72950000D01*
X80675000Y-72950000D02*
X80675000Y-69050000D01*
X82675000Y-72950000D02*
X82675000Y-69050000D01*
X59772011Y-70694261D02*
X59619508Y-70541758D01*
X60281128Y-70185144D02*
X60128625Y-70032641D01*
X235075000Y-72950000D02*
X233075000Y-72950000D01*
X233075000Y-72950000D02*
X233075000Y-69050000D01*
X235075000Y-72950000D02*
X235075000Y-69050000D01*
X71184239Y-70694261D02*
X71336742Y-70541758D01*
X70675122Y-70185144D02*
X70827625Y-70032641D01*
X67308750Y-112700000D02*
X65308750Y-112700000D01*
X67308750Y-112700000D02*
X67308750Y-108800000D01*
X65308750Y-112700000D02*
X65308750Y-108800000D01*
X289843750Y-92000000D02*
X287843750Y-92000000D01*
X289843750Y-92000000D02*
X289843750Y-88100000D01*
X287843750Y-92000000D02*
X287843750Y-88100000D01*
X187450000Y-111050000D02*
X187450000Y-107150000D01*
X185450000Y-111050000D02*
X185450000Y-107150000D01*
X187450000Y-111050000D02*
X185450000Y-111050000D01*
X59806250Y-52600000D02*
X59806250Y-53210000D01*
X59806250Y-53210000D02*
X62706250Y-53210000D01*
X61906250Y-50090000D02*
X61106250Y-50090000D01*
X61906250Y-50090000D02*
X62706250Y-50090000D01*
X277770000Y-111050000D02*
X275770000Y-111050000D01*
X277770000Y-111050000D02*
X277770000Y-107150000D01*
X275770000Y-111050000D02*
X275770000Y-107150000D01*
X224831250Y-111050000D02*
X224831250Y-107150000D01*
X222831250Y-111050000D02*
X222831250Y-107150000D01*
X224831250Y-111050000D02*
X222831250Y-111050000D01*
X244600000Y-92000000D02*
X242600000Y-92000000D01*
X244600000Y-92000000D02*
X244600000Y-88100000D01*
X242600000Y-92000000D02*
X242600000Y-88100000D01*
X54100000Y-53900000D02*
X54100000Y-50000000D01*
X52100000Y-53900000D02*
X52100000Y-50000000D01*
X54100000Y-53900000D02*
X52100000Y-53900000D01*
X66606250Y-44240000D02*
X66606250Y-42240000D01*
X57206250Y-44240000D02*
X57206250Y-42240000D01*
X57206250Y-40340000D02*
X57206250Y-38440000D01*
X66606250Y-40340000D02*
X66606250Y-38440000D01*
X57206250Y-38440000D02*
X66606250Y-38440000D01*
X60281128Y-67914856D02*
X60128625Y-68067359D01*
X59772011Y-67405739D02*
X59619508Y-67558242D01*
X196975000Y-72950000D02*
X194975000Y-72950000D01*
X196975000Y-72950000D02*
X196975000Y-69050000D01*
X194975000Y-72950000D02*
X194975000Y-69050000D01*
X65483666Y-60319236D02*
X65331163Y-60166733D01*
X64974549Y-60828353D02*
X64822046Y-60675850D01*
X263650000Y-92000000D02*
X261650000Y-92000000D01*
X263650000Y-92000000D02*
X263650000Y-88100000D01*
X261650000Y-92000000D02*
X261650000Y-88100000D01*
X65523126Y-61744626D02*
X65305845Y-61527345D01*
X64985725Y-62282027D02*
X64768444Y-62064746D01*
X72899365Y-61443902D02*
X72899365Y-61751184D01*
X73659365Y-61443902D02*
X73659365Y-61751184D01*
%LPC*%
D12*
X82170774Y-51166726D03*
X83337500Y-51650000D03*
X81687500Y-50000000D03*
X83337500Y-48350000D03*
X82170774Y-48833274D03*
X84504226Y-51166726D03*
X84987500Y-50000000D03*
D13*
X83337500Y-50000000D03*
D12*
X84504226Y-48833274D03*
D14*
X255737500Y-107150000D03*
D15*
X44920000Y-50000000D03*
D16*
X50000000Y-50000000D03*
D15*
X55080000Y-50000000D03*
D17*
X46190000Y-47460000D03*
X52540000Y-44920000D03*
D16*
X250025000Y-107150000D03*
D15*
X255105000Y-107150000D03*
X244945000Y-107150000D03*
D17*
X246215000Y-104610000D03*
X252565000Y-102070000D03*
D16*
X211925000Y-69050000D03*
D15*
X206845000Y-69050000D03*
X217005000Y-69050000D03*
D17*
X208115000Y-66510000D03*
X214465000Y-63970000D03*
D15*
X174142500Y-50000000D03*
X163982500Y-50000000D03*
D16*
X169062500Y-50000000D03*
D17*
X165252500Y-47460000D03*
X171602500Y-44920000D03*
D15*
X250342500Y-50000000D03*
D16*
X245262500Y-50000000D03*
D15*
X240182500Y-50000000D03*
D17*
X241452500Y-47460000D03*
X247802500Y-44920000D03*
D15*
X73495000Y-69050000D03*
D16*
X78575000Y-69050000D03*
D15*
X83655000Y-69050000D03*
D17*
X74765000Y-66510000D03*
X81115000Y-63970000D03*
D15*
X261613750Y-107150000D03*
D16*
X266693750Y-107150000D03*
D15*
X271773750Y-107150000D03*
D17*
X262883750Y-104610000D03*
X269233750Y-102070000D03*
D16*
X154775000Y-69050000D03*
D15*
X149695000Y-69050000D03*
X159855000Y-69050000D03*
D17*
X150965000Y-66510000D03*
X157315000Y-63970000D03*
D14*
X164300000Y-77500000D03*
D18*
X154775000Y-114135000D03*
D16*
X130962500Y-98895000D03*
X154775000Y-98895000D03*
D18*
X130962500Y-114135000D03*
D15*
X88417500Y-107150000D03*
D16*
X83337500Y-107150000D03*
D15*
X78257500Y-107150000D03*
D17*
X79527500Y-104610000D03*
X85877500Y-102070000D03*
D16*
X171443750Y-98895000D03*
X195256250Y-98895000D03*
D18*
X171443750Y-114135000D03*
X195256250Y-114135000D03*
D15*
X269392500Y-50000000D03*
X259232500Y-50000000D03*
D16*
X264312500Y-50000000D03*
D17*
X260502500Y-47460000D03*
X266852500Y-44920000D03*
D19*
X48888750Y-74130000D03*
D20*
X46348750Y-74130000D03*
D21*
X290387500Y-57500000D03*
X295387500Y-57500000D03*
X292887500Y-57500000D03*
X295387500Y-43000000D03*
X290387500Y-43000000D03*
D16*
X183350000Y-88100000D03*
D15*
X178270000Y-88100000D03*
X188430000Y-88100000D03*
D17*
X179540000Y-85560000D03*
X185890000Y-83020000D03*
D16*
X216687500Y-107150000D03*
D15*
X211607500Y-107150000D03*
X221767500Y-107150000D03*
D17*
X212877500Y-104610000D03*
X219227500Y-102070000D03*
D16*
X173825000Y-69050000D03*
D15*
X168745000Y-69050000D03*
X178905000Y-69050000D03*
D17*
X170015000Y-66510000D03*
X176365000Y-63970000D03*
D15*
X54445000Y-107150000D03*
D16*
X59525000Y-107150000D03*
D15*
X64605000Y-107150000D03*
D17*
X55715000Y-104610000D03*
X62065000Y-102070000D03*
D16*
X107150000Y-88100000D03*
D15*
X112230000Y-88100000D03*
X102070000Y-88100000D03*
D17*
X103340000Y-85560000D03*
X109690000Y-83020000D03*
D16*
X211925000Y-98895000D03*
D18*
X111912500Y-114135000D03*
X211925000Y-114135000D03*
D16*
X111912500Y-98895000D03*
D15*
X263995000Y-50000000D03*
D16*
X269075000Y-50000000D03*
D15*
X274155000Y-50000000D03*
D17*
X265265000Y-47460000D03*
X271615000Y-44920000D03*
D15*
X274155000Y-107150000D03*
D16*
X269075000Y-107150000D03*
D15*
X263995000Y-107150000D03*
D17*
X265265000Y-104610000D03*
X271615000Y-102070000D03*
D15*
X290823750Y-88100000D03*
X280663750Y-88100000D03*
D16*
X285743750Y-88100000D03*
D17*
X281933750Y-85560000D03*
X288283750Y-83020000D03*
D15*
X286061250Y-69050000D03*
D16*
X280981250Y-69050000D03*
D15*
X275901250Y-69050000D03*
D17*
X277171250Y-66510000D03*
X283521250Y-63970000D03*
D15*
X155092500Y-50000000D03*
D16*
X150012500Y-50000000D03*
D15*
X144932500Y-50000000D03*
D17*
X146202500Y-47460000D03*
X152552500Y-44920000D03*
D16*
X221450000Y-88100000D03*
D15*
X216370000Y-88100000D03*
X226530000Y-88100000D03*
D17*
X217640000Y-85560000D03*
X223990000Y-83020000D03*
D15*
X231292500Y-50000000D03*
X221132500Y-50000000D03*
D16*
X226212500Y-50000000D03*
D17*
X222402500Y-47460000D03*
X228752500Y-44920000D03*
D15*
X111595000Y-69050000D03*
D16*
X116675000Y-69050000D03*
D15*
X121755000Y-69050000D03*
D17*
X112865000Y-66510000D03*
X119215000Y-63970000D03*
D19*
X51111250Y-74130000D03*
D20*
X53651250Y-74130000D03*
D15*
X87782500Y-107150000D03*
X97942500Y-107150000D03*
D16*
X92862500Y-107150000D03*
D17*
X89052500Y-104610000D03*
X95402500Y-102070000D03*
D15*
X150330000Y-88100000D03*
X140170000Y-88100000D03*
D16*
X145250000Y-88100000D03*
D17*
X141440000Y-85560000D03*
X147790000Y-83020000D03*
D16*
X259550000Y-88100000D03*
D15*
X254470000Y-88100000D03*
X264630000Y-88100000D03*
D17*
X255740000Y-85560000D03*
X262090000Y-83020000D03*
D16*
X97625000Y-69050000D03*
D15*
X92545000Y-69050000D03*
X102705000Y-69050000D03*
D17*
X93815000Y-66510000D03*
X100165000Y-63970000D03*
D15*
X293205000Y-50000000D03*
X283045000Y-50000000D03*
D16*
X288125000Y-50000000D03*
D17*
X284315000Y-47460000D03*
X290665000Y-44920000D03*
D14*
X68237500Y-107150000D03*
D15*
X269392500Y-107150000D03*
X259232500Y-107150000D03*
D16*
X264312500Y-107150000D03*
D17*
X260502500Y-104610000D03*
X266852500Y-102070000D03*
D16*
X126200000Y-88100000D03*
D15*
X131280000Y-88100000D03*
X121120000Y-88100000D03*
D17*
X122390000Y-85560000D03*
X128740000Y-83020000D03*
D15*
X130645000Y-69050000D03*
D16*
X135725000Y-69050000D03*
D15*
X140805000Y-69050000D03*
D17*
X131915000Y-66510000D03*
X138265000Y-63970000D03*
D16*
X240500000Y-88100000D03*
D15*
X235420000Y-88100000D03*
X245580000Y-88100000D03*
D17*
X236690000Y-85560000D03*
X243040000Y-83020000D03*
D15*
X87782500Y-50000000D03*
D16*
X92862500Y-50000000D03*
D15*
X97942500Y-50000000D03*
D17*
X89052500Y-47460000D03*
X95402500Y-44920000D03*
D16*
X57143750Y-107150000D03*
D15*
X52063750Y-107150000D03*
X62223750Y-107150000D03*
D17*
X53333750Y-104610000D03*
X59683750Y-102070000D03*
D15*
X125882500Y-50000000D03*
X136042500Y-50000000D03*
D16*
X130962500Y-50000000D03*
D17*
X127152500Y-47460000D03*
X133502500Y-44920000D03*
D15*
X236055000Y-69050000D03*
D16*
X230975000Y-69050000D03*
D15*
X225895000Y-69050000D03*
D17*
X227165000Y-66510000D03*
X233515000Y-63970000D03*
D16*
X214306250Y-107150000D03*
D15*
X209226250Y-107150000D03*
X219386250Y-107150000D03*
D17*
X210496250Y-104610000D03*
X216846250Y-102070000D03*
D16*
X57143750Y-88100000D03*
D15*
X52063750Y-88100000D03*
X62223750Y-88100000D03*
D17*
X53333750Y-85560000D03*
X59683750Y-83020000D03*
D15*
X178270000Y-107150000D03*
X188430000Y-107150000D03*
D16*
X183350000Y-107150000D03*
D17*
X179540000Y-104610000D03*
X185890000Y-102070000D03*
D15*
X68732500Y-50000000D03*
X78892500Y-50000000D03*
D16*
X73812500Y-50000000D03*
D17*
X70002500Y-47460000D03*
X76352500Y-44920000D03*
D15*
X230657500Y-107150000D03*
X240817500Y-107150000D03*
D16*
X235737500Y-107150000D03*
D17*
X231927500Y-104610000D03*
X238277500Y-102070000D03*
D14*
X280981250Y-50000000D03*
D15*
X197955000Y-69050000D03*
D16*
X192875000Y-69050000D03*
D15*
X187795000Y-69050000D03*
D17*
X189065000Y-66510000D03*
X195415000Y-63970000D03*
D15*
X78892500Y-107150000D03*
D16*
X73812500Y-107150000D03*
D15*
X68732500Y-107150000D03*
D17*
X70002500Y-104610000D03*
X76352500Y-102070000D03*
D15*
X83020000Y-88100000D03*
D16*
X88100000Y-88100000D03*
D15*
X93180000Y-88100000D03*
D17*
X84290000Y-85560000D03*
X90640000Y-83020000D03*
D15*
X212242500Y-50000000D03*
X202082500Y-50000000D03*
D16*
X207162500Y-50000000D03*
D17*
X203352500Y-47460000D03*
X209702500Y-44920000D03*
D15*
X287807500Y-50000000D03*
X297967500Y-50000000D03*
D16*
X292887500Y-50000000D03*
D17*
X289077500Y-47460000D03*
X295427500Y-44920000D03*
D15*
X52698750Y-69050000D03*
D16*
X47618750Y-69050000D03*
D15*
X42538750Y-69050000D03*
D17*
X43808750Y-66510000D03*
X50158750Y-63970000D03*
D15*
X114611250Y-107150000D03*
D16*
X109531250Y-107150000D03*
D15*
X104451250Y-107150000D03*
D17*
X105721250Y-104610000D03*
X112071250Y-102070000D03*
D16*
X111912500Y-50000000D03*
D15*
X116992500Y-50000000D03*
X106832500Y-50000000D03*
D17*
X108102500Y-47460000D03*
X114452500Y-44920000D03*
D16*
X230975000Y-107150000D03*
D15*
X225895000Y-107150000D03*
X236055000Y-107150000D03*
D17*
X227165000Y-104610000D03*
X233515000Y-102070000D03*
D16*
X142868750Y-107150000D03*
D15*
X147948750Y-107150000D03*
X137788750Y-107150000D03*
D17*
X139058750Y-104610000D03*
X145408750Y-102070000D03*
D16*
X288125000Y-79845000D03*
D18*
X288125000Y-95085000D03*
X264312500Y-95085000D03*
D16*
X264312500Y-79845000D03*
D15*
X59842500Y-107150000D03*
D16*
X54762500Y-107150000D03*
D15*
X49682500Y-107150000D03*
D17*
X50952500Y-104610000D03*
X57302500Y-102070000D03*
D15*
X102070000Y-107150000D03*
X112230000Y-107150000D03*
D16*
X107150000Y-107150000D03*
D17*
X103340000Y-104610000D03*
X109690000Y-102070000D03*
X278758750Y-83020000D03*
X272408750Y-85560000D03*
D15*
X271138750Y-88100000D03*
X281298750Y-88100000D03*
D16*
X276218750Y-88100000D03*
D15*
X156838750Y-107150000D03*
X166998750Y-107150000D03*
D16*
X161918750Y-107150000D03*
D17*
X158108750Y-104610000D03*
X164458750Y-102070000D03*
D15*
X235420000Y-107150000D03*
X245580000Y-107150000D03*
D16*
X240500000Y-107150000D03*
D17*
X236690000Y-104610000D03*
X243040000Y-102070000D03*
D16*
X45237500Y-79845000D03*
D18*
X45237500Y-95085000D03*
D16*
X69050000Y-79845000D03*
D18*
X69050000Y-95085000D03*
D15*
X197320000Y-88100000D03*
X207480000Y-88100000D03*
D16*
X202400000Y-88100000D03*
D17*
X198590000Y-85560000D03*
X204940000Y-83020000D03*
D15*
X93180000Y-107150000D03*
D16*
X88100000Y-107150000D03*
D15*
X83020000Y-107150000D03*
D17*
X84290000Y-104610000D03*
X90640000Y-102070000D03*
D16*
X292887500Y-60795000D03*
D18*
X292887500Y-76035000D03*
X269075000Y-76035000D03*
D16*
X269075000Y-60795000D03*
D15*
X183032500Y-50000000D03*
X193192500Y-50000000D03*
D16*
X188112500Y-50000000D03*
D17*
X184302500Y-47460000D03*
X190652500Y-44920000D03*
D16*
X250025000Y-69050000D03*
D15*
X244945000Y-69050000D03*
X255105000Y-69050000D03*
D17*
X246215000Y-66510000D03*
X252565000Y-63970000D03*
D22*
X80797500Y-59387500D03*
D23*
X80797500Y-56847500D03*
X83337500Y-59387500D03*
X83337500Y-56847500D03*
X85877500Y-59387500D03*
X85877500Y-56847500D03*
D15*
X169380000Y-88100000D03*
D16*
X164300000Y-88100000D03*
D15*
X159220000Y-88100000D03*
D17*
X160490000Y-85560000D03*
X166840000Y-83020000D03*
D15*
X47301250Y-69050000D03*
D16*
X52381250Y-69050000D03*
D15*
X57461250Y-69050000D03*
D17*
X48571250Y-66510000D03*
X54921250Y-63970000D03*
D24*
X295987500Y-53300000D03*
X295987500Y-50000000D03*
D25*
X61406250Y-54140000D03*
X61406250Y-55160000D03*
D24*
X119775000Y-72350000D03*
X119775000Y-69050000D03*
X153112500Y-53300000D03*
X153112500Y-50000000D03*
X76912500Y-53300000D03*
X76912500Y-50000000D03*
X176925000Y-72350000D03*
X176925000Y-69050000D03*
X100725000Y-72350000D03*
X100725000Y-69050000D03*
X210262500Y-53300000D03*
X210262500Y-50000000D03*
X134062500Y-53300000D03*
X134062500Y-50000000D03*
X129300000Y-91400000D03*
X129300000Y-88100000D03*
X224550000Y-91400000D03*
X224550000Y-88100000D03*
D26*
X71855932Y-59397543D03*
X71855932Y-61597543D03*
X70155932Y-61597543D03*
X70155932Y-59397543D03*
D24*
X55481250Y-72350000D03*
X55481250Y-69050000D03*
X91200000Y-91400000D03*
X91200000Y-88100000D03*
X253125000Y-72350000D03*
X253125000Y-69050000D03*
X115012500Y-53300000D03*
X115012500Y-50000000D03*
X145968750Y-110450000D03*
X145968750Y-107150000D03*
X148350000Y-91400000D03*
X148350000Y-88100000D03*
D27*
X73279365Y-58917542D03*
X73279365Y-59877542D03*
D24*
X95962500Y-110450000D03*
X95962500Y-107150000D03*
X205500000Y-91400000D03*
X205500000Y-88100000D03*
X110250000Y-91400000D03*
X110250000Y-88100000D03*
X186450000Y-91400000D03*
X186450000Y-88100000D03*
X284081250Y-72350000D03*
X284081250Y-69050000D03*
D27*
X56336250Y-41775000D03*
X56336250Y-42735000D03*
D24*
X215025000Y-72350000D03*
X215025000Y-69050000D03*
X76594450Y-110450000D03*
X76594450Y-107150000D03*
X248362500Y-53300000D03*
X248362500Y-50000000D03*
X95962500Y-53300000D03*
X95962500Y-50000000D03*
D25*
X62406250Y-54140000D03*
X62406250Y-55160000D03*
D28*
X50510000Y-76100000D03*
X49490000Y-76100000D03*
D29*
X66763292Y-74577807D03*
X66042044Y-75299055D03*
D25*
X67476250Y-41745000D03*
X67476250Y-42765000D03*
D24*
X272175000Y-53300000D03*
X272175000Y-50000000D03*
D30*
X65478125Y-53050000D03*
X65478125Y-50250000D03*
D24*
X138825000Y-72350000D03*
X138825000Y-69050000D03*
D31*
X61880719Y-65806147D03*
X61201897Y-65127325D03*
X61909003Y-64420218D03*
X61230181Y-63741396D03*
D27*
X68732500Y-60017542D03*
X68732500Y-60977542D03*
D24*
X157875000Y-72350000D03*
X157875000Y-69050000D03*
D32*
X67476250Y-44765000D03*
X67476250Y-43745000D03*
D24*
X229312500Y-53300000D03*
X229312500Y-50000000D03*
X167400000Y-91400000D03*
X167400000Y-88100000D03*
D33*
X63825263Y-74238396D03*
X64504085Y-74917218D03*
D34*
X61350389Y-68457798D03*
X61703943Y-68104245D03*
X62057496Y-67750691D03*
X62411049Y-67397138D03*
X62764603Y-67043585D03*
X63118156Y-66690031D03*
X63471710Y-66336478D03*
X63825263Y-65982924D03*
X64178816Y-65629371D03*
X64532370Y-65275818D03*
X64885923Y-64922264D03*
D35*
X66070327Y-64922264D03*
X66423880Y-65275818D03*
X66777434Y-65629371D03*
X67130987Y-65982924D03*
X67484540Y-66336478D03*
X67838094Y-66690031D03*
X68191647Y-67043585D03*
X68545201Y-67397138D03*
X68898754Y-67750691D03*
X69252307Y-68104245D03*
X69605861Y-68457798D03*
D34*
X69605861Y-69642202D03*
X69252307Y-69995755D03*
X68898754Y-70349309D03*
X68545201Y-70702862D03*
X68191647Y-71056415D03*
X67838094Y-71409969D03*
X67484540Y-71763522D03*
X67130987Y-72117076D03*
X66777434Y-72470629D03*
X66423880Y-72824182D03*
X66070327Y-73177736D03*
D35*
X64885923Y-73177736D03*
X64532370Y-72824182D03*
X64178816Y-72470629D03*
X63825263Y-72117076D03*
X63471710Y-71763522D03*
X63118156Y-71409969D03*
X62764603Y-71056415D03*
X62411049Y-70702862D03*
X62057496Y-70349309D03*
X61703943Y-69995755D03*
X61350389Y-69642202D03*
D36*
X65478125Y-69050000D03*
D24*
X253125000Y-112100000D03*
X253125000Y-108800000D03*
X172162500Y-53300000D03*
X172162500Y-50000000D03*
X191212500Y-53300000D03*
X191212500Y-50000000D03*
D32*
X56336250Y-44765000D03*
X56336250Y-43745000D03*
D24*
X60243750Y-91400000D03*
X60243750Y-88100000D03*
X81675000Y-72350000D03*
X81675000Y-69050000D03*
D31*
X60289729Y-70702862D03*
X59610907Y-70024040D03*
D24*
X234075000Y-72350000D03*
X234075000Y-69050000D03*
D37*
X70666521Y-70702862D03*
X71345343Y-70024040D03*
D24*
X66308750Y-112100000D03*
X66308750Y-108800000D03*
X288843750Y-91400000D03*
X288843750Y-88100000D03*
X186450000Y-110450000D03*
X186450000Y-107150000D03*
D38*
X60731250Y-52600000D03*
X60731250Y-51650000D03*
X60731250Y-50700000D03*
X63081250Y-50700000D03*
X63081250Y-51650000D03*
X63081250Y-52600000D03*
D24*
X276770000Y-110450000D03*
X276770000Y-107150000D03*
X223831250Y-110450000D03*
X223831250Y-107150000D03*
X243600000Y-91400000D03*
X243600000Y-88100000D03*
X53100000Y-53300000D03*
X53100000Y-50000000D03*
D39*
X64796250Y-44940000D03*
X59016250Y-44940000D03*
D40*
X58656250Y-46385000D03*
X59456250Y-46385000D03*
D41*
X60656250Y-46385000D03*
X61656250Y-46385000D03*
X62156250Y-46385000D03*
X63156250Y-46385000D03*
D40*
X64356250Y-46385000D03*
X65156250Y-46385000D03*
X65156250Y-46385000D03*
X64356250Y-46385000D03*
D41*
X63656250Y-46385000D03*
X62656250Y-46385000D03*
X61156250Y-46385000D03*
X60156250Y-46385000D03*
D40*
X59456250Y-46385000D03*
X58656250Y-46385000D03*
D42*
X66226250Y-41290000D03*
D43*
X57586250Y-45470000D03*
D42*
X57586250Y-41290000D03*
D43*
X66226250Y-45470000D03*
D44*
X60289729Y-67397138D03*
X59610907Y-68075960D03*
D24*
X195975000Y-72350000D03*
X195975000Y-69050000D03*
D31*
X65492267Y-60836954D03*
X64813445Y-60158132D03*
D24*
X262650000Y-91400000D03*
X262650000Y-88100000D03*
D45*
X65506409Y-62265310D03*
X64785161Y-61544062D03*
D25*
X73279365Y-61087543D03*
X73279365Y-62107543D03*
M02*
