M48
; DRILL file {KiCad (6.0.5)} date Wed Jun  1 09:33:47 2022
; FORMAT={-:-/ absolute / metric / decimal}
; #@! TF.CreationDate,2022-06-01T09:33:47-07:00
; #@! TF.GenerationSoftware,Kicad,Pcbnew,(6.0.5)
; #@! TF.FileFunction,Plated,1,2,PTH
FMAT,2
METRIC
; #@! TA.AperFunction,Plated,PTH,ViaDrill
T1C0.400
; #@! TA.AperFunction,Plated,PTH,ComponentDrill
T2C0.400
; #@! TA.AperFunction,Plated,PTH,ComponentDrill
T3C0.600
; #@! TA.AperFunction,Plated,PTH,ComponentDrill
T4C1.000
; #@! TA.AperFunction,Plated,PTH,ComponentDrill
T5C1.040
; #@! TA.AperFunction,Plated,PTH,ComponentDrill
T6C1.524
; #@! TA.AperFunction,Plated,PTH,ComponentDrill
T7C2.200
%
G90
G05
T1
X55.08Y-53.3
X55.336Y-42.735
X55.336Y-43.745
X55.336Y-44.765
X58.904Y-70.731
X58.904Y-72.35
X58.932Y-67.397
X59.583Y-71.41
X59.611Y-66.718
X60.406Y-48.517
X60.523Y-64.449
X61.906Y-48.517
X61.937Y-63.034
X62.616Y-63.713
X63.118Y-74.946
X63.406Y-48.517
X63.797Y-75.624
X63.998Y-54.65
X65.521Y-59.451
X66.199Y-60.13
X66.763Y-76.02
X66.958Y-54.65
X68.476Y-42.765
X68.476Y-43.745
X68.476Y-44.765
X68.733Y-53.3
X68.733Y-59.018
X71.374Y-71.41
X72.052Y-70.731
X72.052Y-72.35
X74.379Y-60.498
X87.147Y-58.117
T2
X81.688Y-50.0
X82.171Y-48.833
X82.171Y-51.167
X83.337Y-48.35
X83.337Y-51.65
X84.504Y-48.833
X84.504Y-51.167
X84.987Y-50.0
T4
X80.797Y-56.847
X80.797Y-59.387
X83.337Y-56.847
X83.337Y-59.387
X85.877Y-56.847
X85.877Y-59.387
X290.387Y-43.0
X290.387Y-57.5
X292.887Y-57.5
X295.387Y-43.0
X295.387Y-57.5
T5
X46.349Y-74.13
X48.889Y-74.13
X51.111Y-74.13
X53.651Y-74.13
T6
X43.809Y-66.51
X46.19Y-47.46
X48.571Y-66.51
X50.159Y-63.97
X50.953Y-104.61
X52.54Y-44.92
X53.334Y-85.56
X53.334Y-104.61
X54.921Y-63.97
X55.715Y-104.61
X57.302Y-102.07
X59.684Y-83.02
X59.684Y-102.07
X62.065Y-102.07
X70.002Y-47.46
X70.002Y-104.61
X74.765Y-66.51
X76.352Y-44.92
X76.352Y-102.07
X79.528Y-104.61
X81.115Y-63.97
X84.29Y-85.56
X84.29Y-104.61
X85.877Y-102.07
X89.052Y-47.46
X89.052Y-104.61
X90.64Y-83.02
X90.64Y-102.07
X93.815Y-66.51
X95.402Y-44.92
X95.402Y-102.07
X100.165Y-63.97
X103.34Y-85.56
X103.34Y-104.61
X105.721Y-104.61
X108.102Y-47.46
X109.69Y-83.02
X109.69Y-102.07
X112.071Y-102.07
X112.865Y-66.51
X114.453Y-44.92
X119.215Y-63.97
X122.39Y-85.56
X127.152Y-47.46
X128.74Y-83.02
X131.915Y-66.51
X133.502Y-44.92
X138.265Y-63.97
X139.059Y-104.61
X141.44Y-85.56
X145.409Y-102.07
X146.202Y-47.46
X147.79Y-83.02
X150.965Y-66.51
X152.552Y-44.92
X157.315Y-63.97
X158.109Y-104.61
X160.49Y-85.56
X164.459Y-102.07
X165.252Y-47.46
X166.84Y-83.02
X170.015Y-66.51
X171.602Y-44.92
X176.365Y-63.97
X179.54Y-85.56
X179.54Y-104.61
X184.302Y-47.46
X185.89Y-83.02
X185.89Y-102.07
X189.065Y-66.51
X190.653Y-44.92
X195.415Y-63.97
X198.59Y-85.56
X203.352Y-47.46
X204.94Y-83.02
X208.115Y-66.51
X209.702Y-44.92
X210.496Y-104.61
X212.877Y-104.61
X214.465Y-63.97
X216.846Y-102.07
X217.64Y-85.56
X219.227Y-102.07
X222.403Y-47.46
X223.99Y-83.02
X227.165Y-66.51
X227.165Y-104.61
X228.752Y-44.92
X231.927Y-104.61
X233.515Y-63.97
X233.515Y-102.07
X236.69Y-85.56
X236.69Y-104.61
X238.278Y-102.07
X241.452Y-47.46
X243.04Y-83.02
X243.04Y-102.07
X246.215Y-66.51
X246.215Y-104.61
X247.802Y-44.92
X252.565Y-63.97
X252.565Y-102.07
X255.74Y-85.56
X260.502Y-47.46
X260.502Y-104.61
X262.09Y-83.02
X262.884Y-104.61
X265.265Y-47.46
X265.265Y-104.61
X266.852Y-44.92
X266.852Y-102.07
X269.234Y-102.07
X271.615Y-44.92
X271.615Y-102.07
X272.409Y-85.56
X277.171Y-66.51
X278.759Y-83.02
X281.934Y-85.56
X283.521Y-63.97
X284.315Y-47.46
X288.284Y-83.02
X289.077Y-47.46
X290.665Y-44.92
X295.428Y-44.92
T7
X83.337Y-50.0
T3
G00X57.586Y-40.99
M15
G01X57.586Y-41.59
M16
G05
G00X57.586Y-44.92
M15
G01X57.586Y-46.02
M16
G05
G00X66.226Y-40.99
M15
G01X66.226Y-41.59
M16
G05
G00X66.226Y-44.92
M15
G01X66.226Y-46.02
M16
G05
T0
M30
