M48
; DRILL file {KiCad (6.0.5)} date Wed Jun  1 09:33:47 2022
; FORMAT={-:-/ absolute / metric / decimal}
; #@! TF.CreationDate,2022-06-01T09:33:47-07:00
; #@! TF.GenerationSoftware,Kicad,Pcbnew,(6.0.5)
; #@! TF.FileFunction,NonPlated,1,2,NPTH
FMAT,2
METRIC
; #@! TA.AperFunction,NonPlated,NPTH,ComponentDrill
T1C0.650
; #@! TA.AperFunction,NonPlated,NPTH,ComponentDrill
T2C1.750
; #@! TA.AperFunction,NonPlated,NPTH,ComponentDrill
T3C2.200
; #@! TA.AperFunction,NonPlated,NPTH,ComponentDrill
T4C3.048
; #@! TA.AperFunction,NonPlated,NPTH,ComponentDrill
T5C3.988
%
G90
G05
T1
X59.016Y-44.94
X64.796Y-44.94
T2
X42.539Y-69.05
X44.92Y-50.0
X47.301Y-69.05
X49.682Y-107.15
X52.064Y-88.1
X52.064Y-107.15
X52.699Y-69.05
X54.445Y-107.15
X55.08Y-50.0
X57.461Y-69.05
X59.842Y-107.15
X62.224Y-88.1
X62.224Y-107.15
X64.605Y-107.15
X68.733Y-50.0
X68.733Y-107.15
X73.495Y-69.05
X78.257Y-107.15
X78.892Y-50.0
X78.892Y-107.15
X83.02Y-88.1
X83.02Y-107.15
X83.655Y-69.05
X87.782Y-50.0
X87.782Y-107.15
X88.417Y-107.15
X92.545Y-69.05
X93.18Y-88.1
X93.18Y-107.15
X97.942Y-50.0
X97.942Y-107.15
X102.07Y-88.1
X102.07Y-107.15
X102.705Y-69.05
X104.451Y-107.15
X106.832Y-50.0
X111.595Y-69.05
X112.23Y-88.1
X112.23Y-107.15
X114.611Y-107.15
X116.992Y-50.0
X121.12Y-88.1
X121.755Y-69.05
X125.882Y-50.0
X130.645Y-69.05
X131.28Y-88.1
X136.042Y-50.0
X137.789Y-107.15
X140.17Y-88.1
X140.805Y-69.05
X144.933Y-50.0
X147.949Y-107.15
X149.695Y-69.05
X150.33Y-88.1
X155.093Y-50.0
X156.839Y-107.15
X159.22Y-88.1
X159.855Y-69.05
X163.982Y-50.0
X166.999Y-107.15
X168.745Y-69.05
X169.38Y-88.1
X174.142Y-50.0
X178.27Y-88.1
X178.27Y-107.15
X178.905Y-69.05
X183.032Y-50.0
X187.795Y-69.05
X188.43Y-88.1
X188.43Y-107.15
X193.192Y-50.0
X197.32Y-88.1
X197.955Y-69.05
X202.082Y-50.0
X206.845Y-69.05
X207.48Y-88.1
X209.226Y-107.15
X211.607Y-107.15
X212.242Y-50.0
X216.37Y-88.1
X217.005Y-69.05
X219.386Y-107.15
X221.132Y-50.0
X221.767Y-107.15
X225.895Y-69.05
X225.895Y-107.15
X226.53Y-88.1
X230.657Y-107.15
X231.292Y-50.0
X235.42Y-88.1
X235.42Y-107.15
X236.055Y-69.05
X236.055Y-107.15
X240.182Y-50.0
X240.817Y-107.15
X244.945Y-69.05
X244.945Y-107.15
X245.58Y-88.1
X245.58Y-107.15
X250.343Y-50.0
X254.47Y-88.1
X255.105Y-69.05
X255.105Y-107.15
X259.233Y-50.0
X259.233Y-107.15
X261.614Y-107.15
X263.995Y-50.0
X263.995Y-107.15
X264.63Y-88.1
X269.392Y-50.0
X269.392Y-107.15
X271.139Y-88.1
X271.774Y-107.15
X274.155Y-50.0
X274.155Y-107.15
X275.901Y-69.05
X280.664Y-88.1
X281.299Y-88.1
X283.045Y-50.0
X286.061Y-69.05
X287.808Y-50.0
X290.824Y-88.1
X293.205Y-50.0
X297.967Y-50.0
T3
X68.237Y-107.15
X164.3Y-77.5
X255.737Y-107.15
X280.981Y-50.0
T4
X45.237Y-95.085
X69.05Y-95.085
X111.912Y-114.135
X130.963Y-114.135
X154.775Y-114.135
X171.444Y-114.135
X195.256Y-114.135
X211.925Y-114.135
X264.312Y-95.085
X269.075Y-76.035
X288.125Y-95.085
X292.887Y-76.035
T5
X45.237Y-79.845
X47.619Y-69.05
X50.0Y-50.0
X52.381Y-69.05
X54.762Y-107.15
X57.144Y-88.1
X57.144Y-107.15
X59.525Y-107.15
X69.05Y-79.845
X73.812Y-50.0
X73.812Y-107.15
X78.575Y-69.05
X83.337Y-107.15
X88.1Y-88.1
X88.1Y-107.15
X92.862Y-50.0
X92.862Y-107.15
X97.625Y-69.05
X107.15Y-88.1
X107.15Y-107.15
X109.531Y-107.15
X111.912Y-50.0
X111.912Y-98.895
X116.675Y-69.05
X126.2Y-88.1
X130.963Y-50.0
X130.963Y-98.895
X135.725Y-69.05
X142.869Y-107.15
X145.25Y-88.1
X150.012Y-50.0
X154.775Y-69.05
X154.775Y-98.895
X161.919Y-107.15
X164.3Y-88.1
X169.062Y-50.0
X171.444Y-98.895
X173.825Y-69.05
X183.35Y-88.1
X183.35Y-107.15
X188.112Y-50.0
X192.875Y-69.05
X195.256Y-98.895
X202.4Y-88.1
X207.162Y-50.0
X211.925Y-69.05
X211.925Y-98.895
X214.306Y-107.15
X216.688Y-107.15
X221.45Y-88.1
X226.212Y-50.0
X230.975Y-69.05
X230.975Y-107.15
X235.737Y-107.15
X240.5Y-88.1
X240.5Y-107.15
X245.262Y-50.0
X250.025Y-69.05
X250.025Y-107.15
X259.55Y-88.1
X264.312Y-50.0
X264.312Y-79.845
X264.312Y-107.15
X266.694Y-107.15
X269.075Y-50.0
X269.075Y-60.795
X269.075Y-107.15
X276.219Y-88.1
X280.981Y-69.05
X285.744Y-88.1
X288.125Y-50.0
X288.125Y-79.845
X292.887Y-50.0
X292.887Y-60.795
T0
M30
