G04 #@! TF.GenerationSoftware,KiCad,Pcbnew,(6.0.5)*
G04 #@! TF.CreationDate,2022-06-01T09:33:43-07:00*
G04 #@! TF.ProjectId,ttocyobItnA,74746f63-796f-4624-9974-6e412e6b6963,rev?*
G04 #@! TF.SameCoordinates,Original*
G04 #@! TF.FileFunction,Soldermask,Bot*
G04 #@! TF.FilePolarity,Negative*
%FSLAX46Y46*%
G04 Gerber Fmt 4.6, Leading zero omitted, Abs format (unit mm)*
G04 Created by KiCad (PCBNEW (6.0.5)) date 2022-06-01 09:33:44*
%MOMM*%
%LPD*%
G01*
G04 APERTURE LIST*
G04 Aperture macros list*
%AMRoundRect*
0 Rectangle with rounded corners*
0 $1 Rounding radius*
0 $2 $3 $4 $5 $6 $7 $8 $9 X,Y pos of 4 corners*
0 Add a 4 corners polygon primitive as box body*
4,1,4,$2,$3,$4,$5,$6,$7,$8,$9,$2,$3,0*
0 Add four circle primitives for the rounded corners*
1,1,$1+$1,$2,$3*
1,1,$1+$1,$4,$5*
1,1,$1+$1,$6,$7*
1,1,$1+$1,$8,$9*
0 Add four rect primitives between the rounded corners*
20,1,$1+$1,$2,$3,$4,$5,0*
20,1,$1+$1,$4,$5,$6,$7,0*
20,1,$1+$1,$6,$7,$8,$9,0*
20,1,$1+$1,$8,$9,$2,$3,0*%
%AMRotRect*
0 Rectangle, with rotation*
0 The origin of the aperture is its center*
0 $1 length*
0 $2 width*
0 $3 Rotation angle, in degrees counterclockwise*
0 Add horizontal line*
21,1,$1,$2,0,0,$3*%
G04 Aperture macros list end*
%ADD10RoundRect,0.140000X0.140000X0.170000X-0.140000X0.170000X-0.140000X-0.170000X0.140000X-0.170000X0*%
%ADD11C,0.700000*%
%ADD12C,4.400000*%
%ADD13C,2.200000*%
%ADD14C,1.750000*%
%ADD15C,3.987800*%
%ADD16C,2.300000*%
%ADD17C,3.048000*%
%ADD18RoundRect,0.285750X-0.666750X-0.666750X0.666750X-0.666750X0.666750X0.666750X-0.666750X0.666750X0*%
%ADD19C,1.905000*%
%ADD20C,2.000000*%
%ADD21C,1.700000*%
%ADD22O,1.700000X1.700000*%
%ADD23R,1.200000X0.900000*%
%ADD24RoundRect,0.135000X-0.185000X0.135000X-0.185000X-0.135000X0.185000X-0.135000X0.185000X0.135000X0*%
%ADD25R,1.200000X1.400000*%
%ADD26RoundRect,0.140000X-0.170000X0.140000X-0.170000X-0.140000X0.170000X-0.140000X0.170000X0.140000X0*%
%ADD27RoundRect,0.135000X0.135000X0.185000X-0.135000X0.185000X-0.135000X-0.185000X0.135000X-0.185000X0*%
%ADD28RoundRect,0.135000X-0.035355X0.226274X-0.226274X0.035355X0.035355X-0.226274X0.226274X-0.035355X0*%
%ADD29RoundRect,0.250000X0.625000X-0.375000X0.625000X0.375000X-0.625000X0.375000X-0.625000X-0.375000X0*%
%ADD30RoundRect,0.140000X0.219203X0.021213X0.021213X0.219203X-0.219203X-0.021213X-0.021213X-0.219203X0*%
%ADD31RoundRect,0.135000X0.185000X-0.135000X0.185000X0.135000X-0.185000X0.135000X-0.185000X-0.135000X0*%
%ADD32RoundRect,0.140000X-0.219203X-0.021213X-0.021213X-0.219203X0.219203X0.021213X0.021213X0.219203X0*%
%ADD33RoundRect,0.062500X-0.380070X0.291682X0.291682X-0.380070X0.380070X-0.291682X-0.291682X0.380070X0*%
%ADD34RoundRect,0.062500X-0.380070X-0.291682X-0.291682X-0.380070X0.380070X0.291682X0.291682X0.380070X0*%
%ADD35RotRect,5.200000X5.200000X315.000000*%
%ADD36RoundRect,0.140000X0.021213X-0.219203X0.219203X-0.021213X-0.021213X0.219203X-0.219203X0.021213X0*%
%ADD37RoundRect,0.150000X-0.475000X-0.150000X0.475000X-0.150000X0.475000X0.150000X-0.475000X0.150000X0*%
%ADD38C,0.650000*%
%ADD39R,0.600000X1.450000*%
%ADD40R,0.300000X1.450000*%
%ADD41O,1.000000X1.600000*%
%ADD42O,1.000000X2.100000*%
%ADD43RoundRect,0.140000X-0.021213X0.219203X-0.219203X0.021213X0.021213X-0.219203X0.219203X-0.021213X0*%
%ADD44RoundRect,0.135000X0.226274X0.035355X0.035355X0.226274X-0.226274X-0.035355X-0.035355X-0.226274X0*%
G04 APERTURE END LIST*
D10*
X65958125Y-54650000D03*
X64998125Y-54650000D03*
D11*
X82170774Y-51166726D03*
X83337500Y-51650000D03*
X81687500Y-50000000D03*
X83337500Y-48350000D03*
X82170774Y-48833274D03*
X84504226Y-51166726D03*
X84987500Y-50000000D03*
D12*
X83337500Y-50000000D03*
D11*
X84504226Y-48833274D03*
D13*
X255737500Y-107150000D03*
D14*
X44920000Y-50000000D03*
D15*
X50000000Y-50000000D03*
D14*
X55080000Y-50000000D03*
D16*
X46190000Y-47460000D03*
X52540000Y-44920000D03*
D15*
X250025000Y-107150000D03*
D14*
X255105000Y-107150000D03*
X244945000Y-107150000D03*
D16*
X246215000Y-104610000D03*
X252565000Y-102070000D03*
D15*
X211925000Y-69050000D03*
D14*
X206845000Y-69050000D03*
X217005000Y-69050000D03*
D16*
X208115000Y-66510000D03*
X214465000Y-63970000D03*
D14*
X174142500Y-50000000D03*
X163982500Y-50000000D03*
D15*
X169062500Y-50000000D03*
D16*
X165252500Y-47460000D03*
X171602500Y-44920000D03*
D14*
X250342500Y-50000000D03*
D15*
X245262500Y-50000000D03*
D14*
X240182500Y-50000000D03*
D16*
X241452500Y-47460000D03*
X247802500Y-44920000D03*
D14*
X73495000Y-69050000D03*
D15*
X78575000Y-69050000D03*
D14*
X83655000Y-69050000D03*
D16*
X74765000Y-66510000D03*
X81115000Y-63970000D03*
D14*
X261613750Y-107150000D03*
D15*
X266693750Y-107150000D03*
D14*
X271773750Y-107150000D03*
D16*
X262883750Y-104610000D03*
X269233750Y-102070000D03*
D15*
X154775000Y-69050000D03*
D14*
X149695000Y-69050000D03*
X159855000Y-69050000D03*
D16*
X150965000Y-66510000D03*
X157315000Y-63970000D03*
D13*
X164300000Y-77500000D03*
D17*
X154775000Y-114135000D03*
D15*
X130962500Y-98895000D03*
X154775000Y-98895000D03*
D17*
X130962500Y-114135000D03*
D14*
X88417500Y-107150000D03*
D15*
X83337500Y-107150000D03*
D14*
X78257500Y-107150000D03*
D16*
X79527500Y-104610000D03*
X85877500Y-102070000D03*
D15*
X171443750Y-98895000D03*
X195256250Y-98895000D03*
D17*
X171443750Y-114135000D03*
X195256250Y-114135000D03*
D14*
X269392500Y-50000000D03*
X259232500Y-50000000D03*
D15*
X264312500Y-50000000D03*
D16*
X260502500Y-47460000D03*
X266852500Y-44920000D03*
D18*
X48888750Y-74130000D03*
D19*
X46348750Y-74130000D03*
D20*
X290387500Y-57500000D03*
X295387500Y-57500000D03*
X292887500Y-57500000D03*
X295387500Y-43000000D03*
X290387500Y-43000000D03*
D15*
X183350000Y-88100000D03*
D14*
X178270000Y-88100000D03*
X188430000Y-88100000D03*
D16*
X179540000Y-85560000D03*
X185890000Y-83020000D03*
D15*
X216687500Y-107150000D03*
D14*
X211607500Y-107150000D03*
X221767500Y-107150000D03*
D16*
X212877500Y-104610000D03*
X219227500Y-102070000D03*
D15*
X173825000Y-69050000D03*
D14*
X168745000Y-69050000D03*
X178905000Y-69050000D03*
D16*
X170015000Y-66510000D03*
X176365000Y-63970000D03*
D14*
X54445000Y-107150000D03*
D15*
X59525000Y-107150000D03*
D14*
X64605000Y-107150000D03*
D16*
X55715000Y-104610000D03*
X62065000Y-102070000D03*
D15*
X107150000Y-88100000D03*
D14*
X112230000Y-88100000D03*
X102070000Y-88100000D03*
D16*
X103340000Y-85560000D03*
X109690000Y-83020000D03*
D15*
X211925000Y-98895000D03*
D17*
X111912500Y-114135000D03*
X211925000Y-114135000D03*
D15*
X111912500Y-98895000D03*
D14*
X263995000Y-50000000D03*
D15*
X269075000Y-50000000D03*
D14*
X274155000Y-50000000D03*
D16*
X265265000Y-47460000D03*
X271615000Y-44920000D03*
D14*
X274155000Y-107150000D03*
D15*
X269075000Y-107150000D03*
D14*
X263995000Y-107150000D03*
D16*
X265265000Y-104610000D03*
X271615000Y-102070000D03*
D14*
X290823750Y-88100000D03*
X280663750Y-88100000D03*
D15*
X285743750Y-88100000D03*
D16*
X281933750Y-85560000D03*
X288283750Y-83020000D03*
D14*
X286061250Y-69050000D03*
D15*
X280981250Y-69050000D03*
D14*
X275901250Y-69050000D03*
D16*
X277171250Y-66510000D03*
X283521250Y-63970000D03*
D14*
X155092500Y-50000000D03*
D15*
X150012500Y-50000000D03*
D14*
X144932500Y-50000000D03*
D16*
X146202500Y-47460000D03*
X152552500Y-44920000D03*
D15*
X221450000Y-88100000D03*
D14*
X216370000Y-88100000D03*
X226530000Y-88100000D03*
D16*
X217640000Y-85560000D03*
X223990000Y-83020000D03*
D14*
X231292500Y-50000000D03*
X221132500Y-50000000D03*
D15*
X226212500Y-50000000D03*
D16*
X222402500Y-47460000D03*
X228752500Y-44920000D03*
D14*
X111595000Y-69050000D03*
D15*
X116675000Y-69050000D03*
D14*
X121755000Y-69050000D03*
D16*
X112865000Y-66510000D03*
X119215000Y-63970000D03*
D18*
X51111250Y-74130000D03*
D19*
X53651250Y-74130000D03*
D14*
X87782500Y-107150000D03*
X97942500Y-107150000D03*
D15*
X92862500Y-107150000D03*
D16*
X89052500Y-104610000D03*
X95402500Y-102070000D03*
D14*
X150330000Y-88100000D03*
X140170000Y-88100000D03*
D15*
X145250000Y-88100000D03*
D16*
X141440000Y-85560000D03*
X147790000Y-83020000D03*
D15*
X259550000Y-88100000D03*
D14*
X254470000Y-88100000D03*
X264630000Y-88100000D03*
D16*
X255740000Y-85560000D03*
X262090000Y-83020000D03*
D15*
X97625000Y-69050000D03*
D14*
X92545000Y-69050000D03*
X102705000Y-69050000D03*
D16*
X93815000Y-66510000D03*
X100165000Y-63970000D03*
D14*
X293205000Y-50000000D03*
X283045000Y-50000000D03*
D15*
X288125000Y-50000000D03*
D16*
X284315000Y-47460000D03*
X290665000Y-44920000D03*
D13*
X68237500Y-107150000D03*
D14*
X269392500Y-107150000D03*
X259232500Y-107150000D03*
D15*
X264312500Y-107150000D03*
D16*
X260502500Y-104610000D03*
X266852500Y-102070000D03*
D15*
X126200000Y-88100000D03*
D14*
X131280000Y-88100000D03*
X121120000Y-88100000D03*
D16*
X122390000Y-85560000D03*
X128740000Y-83020000D03*
D14*
X130645000Y-69050000D03*
D15*
X135725000Y-69050000D03*
D14*
X140805000Y-69050000D03*
D16*
X131915000Y-66510000D03*
X138265000Y-63970000D03*
D15*
X240500000Y-88100000D03*
D14*
X235420000Y-88100000D03*
X245580000Y-88100000D03*
D16*
X236690000Y-85560000D03*
X243040000Y-83020000D03*
D14*
X87782500Y-50000000D03*
D15*
X92862500Y-50000000D03*
D14*
X97942500Y-50000000D03*
D16*
X89052500Y-47460000D03*
X95402500Y-44920000D03*
D15*
X57143750Y-107150000D03*
D14*
X52063750Y-107150000D03*
X62223750Y-107150000D03*
D16*
X53333750Y-104610000D03*
X59683750Y-102070000D03*
D14*
X125882500Y-50000000D03*
X136042500Y-50000000D03*
D15*
X130962500Y-50000000D03*
D16*
X127152500Y-47460000D03*
X133502500Y-44920000D03*
D14*
X236055000Y-69050000D03*
D15*
X230975000Y-69050000D03*
D14*
X225895000Y-69050000D03*
D16*
X227165000Y-66510000D03*
X233515000Y-63970000D03*
D15*
X214306250Y-107150000D03*
D14*
X209226250Y-107150000D03*
X219386250Y-107150000D03*
D16*
X210496250Y-104610000D03*
X216846250Y-102070000D03*
D15*
X57143750Y-88100000D03*
D14*
X52063750Y-88100000D03*
X62223750Y-88100000D03*
D16*
X53333750Y-85560000D03*
X59683750Y-83020000D03*
D14*
X178270000Y-107150000D03*
X188430000Y-107150000D03*
D15*
X183350000Y-107150000D03*
D16*
X179540000Y-104610000D03*
X185890000Y-102070000D03*
D14*
X68732500Y-50000000D03*
X78892500Y-50000000D03*
D15*
X73812500Y-50000000D03*
D16*
X70002500Y-47460000D03*
X76352500Y-44920000D03*
D14*
X230657500Y-107150000D03*
X240817500Y-107150000D03*
D15*
X235737500Y-107150000D03*
D16*
X231927500Y-104610000D03*
X238277500Y-102070000D03*
D13*
X280981250Y-50000000D03*
D14*
X197955000Y-69050000D03*
D15*
X192875000Y-69050000D03*
D14*
X187795000Y-69050000D03*
D16*
X189065000Y-66510000D03*
X195415000Y-63970000D03*
D14*
X78892500Y-107150000D03*
D15*
X73812500Y-107150000D03*
D14*
X68732500Y-107150000D03*
D16*
X70002500Y-104610000D03*
X76352500Y-102070000D03*
D14*
X83020000Y-88100000D03*
D15*
X88100000Y-88100000D03*
D14*
X93180000Y-88100000D03*
D16*
X84290000Y-85560000D03*
X90640000Y-83020000D03*
D14*
X212242500Y-50000000D03*
X202082500Y-50000000D03*
D15*
X207162500Y-50000000D03*
D16*
X203352500Y-47460000D03*
X209702500Y-44920000D03*
D14*
X287807500Y-50000000D03*
X297967500Y-50000000D03*
D15*
X292887500Y-50000000D03*
D16*
X289077500Y-47460000D03*
X295427500Y-44920000D03*
D14*
X52698750Y-69050000D03*
D15*
X47618750Y-69050000D03*
D14*
X42538750Y-69050000D03*
D16*
X43808750Y-66510000D03*
X50158750Y-63970000D03*
D14*
X114611250Y-107150000D03*
D15*
X109531250Y-107150000D03*
D14*
X104451250Y-107150000D03*
D16*
X105721250Y-104610000D03*
X112071250Y-102070000D03*
D15*
X111912500Y-50000000D03*
D14*
X116992500Y-50000000D03*
X106832500Y-50000000D03*
D16*
X108102500Y-47460000D03*
X114452500Y-44920000D03*
D15*
X230975000Y-107150000D03*
D14*
X225895000Y-107150000D03*
X236055000Y-107150000D03*
D16*
X227165000Y-104610000D03*
X233515000Y-102070000D03*
D15*
X142868750Y-107150000D03*
D14*
X147948750Y-107150000D03*
X137788750Y-107150000D03*
D16*
X139058750Y-104610000D03*
X145408750Y-102070000D03*
D15*
X264312500Y-79845000D03*
D17*
X264312500Y-95085000D03*
X288125000Y-95085000D03*
D15*
X288125000Y-79845000D03*
D14*
X59842500Y-107150000D03*
D15*
X54762500Y-107150000D03*
D14*
X49682500Y-107150000D03*
D16*
X50952500Y-104610000D03*
X57302500Y-102070000D03*
D14*
X102070000Y-107150000D03*
X112230000Y-107150000D03*
D15*
X107150000Y-107150000D03*
D16*
X103340000Y-104610000D03*
X109690000Y-102070000D03*
D15*
X276218750Y-88100000D03*
D14*
X281298750Y-88100000D03*
X271138750Y-88100000D03*
D16*
X272408750Y-85560000D03*
X278758750Y-83020000D03*
D14*
X156838750Y-107150000D03*
X166998750Y-107150000D03*
D15*
X161918750Y-107150000D03*
D16*
X158108750Y-104610000D03*
X164458750Y-102070000D03*
D14*
X235420000Y-107150000D03*
X245580000Y-107150000D03*
D15*
X240500000Y-107150000D03*
D16*
X236690000Y-104610000D03*
X243040000Y-102070000D03*
D15*
X45237500Y-79845000D03*
D17*
X45237500Y-95085000D03*
D15*
X69050000Y-79845000D03*
D17*
X69050000Y-95085000D03*
D14*
X197320000Y-88100000D03*
X207480000Y-88100000D03*
D15*
X202400000Y-88100000D03*
D16*
X198590000Y-85560000D03*
X204940000Y-83020000D03*
D14*
X93180000Y-107150000D03*
D15*
X88100000Y-107150000D03*
D14*
X83020000Y-107150000D03*
D16*
X84290000Y-104610000D03*
X90640000Y-102070000D03*
D15*
X269075000Y-60795000D03*
D17*
X269075000Y-76035000D03*
X292887500Y-76035000D03*
D15*
X292887500Y-60795000D03*
D14*
X183032500Y-50000000D03*
X193192500Y-50000000D03*
D15*
X188112500Y-50000000D03*
D16*
X184302500Y-47460000D03*
X190652500Y-44920000D03*
D15*
X250025000Y-69050000D03*
D14*
X244945000Y-69050000D03*
X255105000Y-69050000D03*
D16*
X246215000Y-66510000D03*
X252565000Y-63970000D03*
D21*
X80797500Y-59387500D03*
D22*
X80797500Y-56847500D03*
X83337500Y-59387500D03*
X83337500Y-56847500D03*
X85877500Y-59387500D03*
X85877500Y-56847500D03*
D14*
X169380000Y-88100000D03*
D15*
X164300000Y-88100000D03*
D14*
X159220000Y-88100000D03*
D16*
X160490000Y-85560000D03*
X166840000Y-83020000D03*
D14*
X47301250Y-69050000D03*
D15*
X52381250Y-69050000D03*
D14*
X57461250Y-69050000D03*
D16*
X48571250Y-66510000D03*
X54921250Y-63970000D03*
D23*
X295987500Y-53300000D03*
X295987500Y-50000000D03*
D24*
X61406250Y-54140000D03*
X61406250Y-55160000D03*
D23*
X119775000Y-72350000D03*
X119775000Y-69050000D03*
X153112500Y-53300000D03*
X153112500Y-50000000D03*
X76912500Y-53300000D03*
X76912500Y-50000000D03*
X176925000Y-72350000D03*
X176925000Y-69050000D03*
X100725000Y-72350000D03*
X100725000Y-69050000D03*
X210262500Y-53300000D03*
X210262500Y-50000000D03*
X134062500Y-53300000D03*
X134062500Y-50000000D03*
X129300000Y-91400000D03*
X129300000Y-88100000D03*
X224550000Y-91400000D03*
X224550000Y-88100000D03*
D25*
X71855932Y-59397543D03*
X71855932Y-61597543D03*
X70155932Y-61597543D03*
X70155932Y-59397543D03*
D23*
X55481250Y-72350000D03*
X55481250Y-69050000D03*
X91200000Y-91400000D03*
X91200000Y-88100000D03*
X253125000Y-72350000D03*
X253125000Y-69050000D03*
X115012500Y-53300000D03*
X115012500Y-50000000D03*
X145968750Y-110450000D03*
X145968750Y-107150000D03*
X148350000Y-91400000D03*
X148350000Y-88100000D03*
D26*
X73279365Y-58917542D03*
X73279365Y-59877542D03*
D23*
X95962500Y-110450000D03*
X95962500Y-107150000D03*
X205500000Y-91400000D03*
X205500000Y-88100000D03*
X110250000Y-91400000D03*
X110250000Y-88100000D03*
X186450000Y-91400000D03*
X186450000Y-88100000D03*
X284081250Y-72350000D03*
X284081250Y-69050000D03*
D26*
X56336250Y-41775000D03*
X56336250Y-42735000D03*
D23*
X215025000Y-72350000D03*
X215025000Y-69050000D03*
X76594450Y-110450000D03*
X76594450Y-107150000D03*
X248362500Y-53300000D03*
X248362500Y-50000000D03*
X95962500Y-53300000D03*
X95962500Y-50000000D03*
D24*
X62406250Y-54140000D03*
X62406250Y-55160000D03*
D27*
X50510000Y-76100000D03*
X49490000Y-76100000D03*
D28*
X66763292Y-74577807D03*
X66042044Y-75299055D03*
D24*
X67476250Y-41745000D03*
X67476250Y-42765000D03*
D23*
X272175000Y-53300000D03*
X272175000Y-50000000D03*
D29*
X65478125Y-53050000D03*
X65478125Y-50250000D03*
D23*
X138825000Y-72350000D03*
X138825000Y-69050000D03*
D30*
X61880719Y-65806147D03*
X61201897Y-65127325D03*
X61909003Y-64420218D03*
X61230181Y-63741396D03*
D26*
X68732500Y-60017542D03*
X68732500Y-60977542D03*
D23*
X157875000Y-72350000D03*
X157875000Y-69050000D03*
D31*
X67476250Y-44765000D03*
X67476250Y-43745000D03*
D23*
X229312500Y-53300000D03*
X229312500Y-50000000D03*
X167400000Y-91400000D03*
X167400000Y-88100000D03*
D32*
X63825263Y-74238396D03*
X64504085Y-74917218D03*
D33*
X61350389Y-68457798D03*
X61703943Y-68104245D03*
X62057496Y-67750691D03*
X62411049Y-67397138D03*
X62764603Y-67043585D03*
X63118156Y-66690031D03*
X63471710Y-66336478D03*
X63825263Y-65982924D03*
X64178816Y-65629371D03*
X64532370Y-65275818D03*
X64885923Y-64922264D03*
D34*
X66070327Y-64922264D03*
X66423880Y-65275818D03*
X66777434Y-65629371D03*
X67130987Y-65982924D03*
X67484540Y-66336478D03*
X67838094Y-66690031D03*
X68191647Y-67043585D03*
X68545201Y-67397138D03*
X68898754Y-67750691D03*
X69252307Y-68104245D03*
X69605861Y-68457798D03*
D33*
X69605861Y-69642202D03*
X69252307Y-69995755D03*
X68898754Y-70349309D03*
X68545201Y-70702862D03*
X68191647Y-71056415D03*
X67838094Y-71409969D03*
X67484540Y-71763522D03*
X67130987Y-72117076D03*
X66777434Y-72470629D03*
X66423880Y-72824182D03*
X66070327Y-73177736D03*
D34*
X64885923Y-73177736D03*
X64532370Y-72824182D03*
X64178816Y-72470629D03*
X63825263Y-72117076D03*
X63471710Y-71763522D03*
X63118156Y-71409969D03*
X62764603Y-71056415D03*
X62411049Y-70702862D03*
X62057496Y-70349309D03*
X61703943Y-69995755D03*
X61350389Y-69642202D03*
D35*
X65478125Y-69050000D03*
D23*
X253125000Y-112100000D03*
X253125000Y-108800000D03*
X172162500Y-53300000D03*
X172162500Y-50000000D03*
X191212500Y-53300000D03*
X191212500Y-50000000D03*
D31*
X56336250Y-44765000D03*
X56336250Y-43745000D03*
D23*
X60243750Y-91400000D03*
X60243750Y-88100000D03*
X81675000Y-72350000D03*
X81675000Y-69050000D03*
D30*
X60289729Y-70702862D03*
X59610907Y-70024040D03*
D23*
X234075000Y-72350000D03*
X234075000Y-69050000D03*
D36*
X70666521Y-70702862D03*
X71345343Y-70024040D03*
D23*
X66308750Y-112100000D03*
X66308750Y-108800000D03*
X288843750Y-91400000D03*
X288843750Y-88100000D03*
X186450000Y-110450000D03*
X186450000Y-107150000D03*
D37*
X60731250Y-52600000D03*
X60731250Y-51650000D03*
X60731250Y-50700000D03*
X63081250Y-50700000D03*
X63081250Y-51650000D03*
X63081250Y-52600000D03*
D23*
X276770000Y-110450000D03*
X276770000Y-107150000D03*
X223831250Y-110450000D03*
X223831250Y-107150000D03*
X243600000Y-91400000D03*
X243600000Y-88100000D03*
X53100000Y-53300000D03*
X53100000Y-50000000D03*
D38*
X64796250Y-44940000D03*
X59016250Y-44940000D03*
D39*
X58656250Y-46385000D03*
X59456250Y-46385000D03*
D40*
X60656250Y-46385000D03*
X61656250Y-46385000D03*
X62156250Y-46385000D03*
X63156250Y-46385000D03*
D39*
X64356250Y-46385000D03*
X65156250Y-46385000D03*
X65156250Y-46385000D03*
X64356250Y-46385000D03*
D40*
X63656250Y-46385000D03*
X62656250Y-46385000D03*
X61156250Y-46385000D03*
X60156250Y-46385000D03*
D39*
X59456250Y-46385000D03*
X58656250Y-46385000D03*
D41*
X66226250Y-41290000D03*
D42*
X57586250Y-45470000D03*
D41*
X57586250Y-41290000D03*
D42*
X66226250Y-45470000D03*
D43*
X60289729Y-67397138D03*
X59610907Y-68075960D03*
D23*
X195975000Y-72350000D03*
X195975000Y-69050000D03*
D30*
X65492267Y-60836954D03*
X64813445Y-60158132D03*
D23*
X262650000Y-91400000D03*
X262650000Y-88100000D03*
D44*
X65506409Y-62265310D03*
X64785161Y-61544062D03*
D24*
X73279365Y-61087543D03*
X73279365Y-62107543D03*
M02*
