G04 #@! TF.GenerationSoftware,KiCad,Pcbnew,(6.0.5)*
G04 #@! TF.CreationDate,2022-05-30T17:57:35-07:00*
G04 #@! TF.ProjectId,ttocyobItnA,74746f63-796f-4624-9974-6e412e6b6963,rev?*
G04 #@! TF.SameCoordinates,Original*
G04 #@! TF.FileFunction,Legend,Bot*
G04 #@! TF.FilePolarity,Positive*
%FSLAX46Y46*%
G04 Gerber Fmt 4.6, Leading zero omitted, Abs format (unit mm)*
G04 Created by KiCad (PCBNEW (6.0.5)) date 2022-05-30 17:57:35*
%MOMM*%
%LPD*%
G01*
G04 APERTURE LIST*
G04 Aperture macros list*
%AMRoundRect*
0 Rectangle with rounded corners*
0 $1 Rounding radius*
0 $2 $3 $4 $5 $6 $7 $8 $9 X,Y pos of 4 corners*
0 Add a 4 corners polygon primitive as box body*
4,1,4,$2,$3,$4,$5,$6,$7,$8,$9,$2,$3,0*
0 Add four circle primitives for the rounded corners*
1,1,$1+$1,$2,$3*
1,1,$1+$1,$4,$5*
1,1,$1+$1,$6,$7*
1,1,$1+$1,$8,$9*
0 Add four rect primitives between the rounded corners*
20,1,$1+$1,$2,$3,$4,$5,0*
20,1,$1+$1,$4,$5,$6,$7,0*
20,1,$1+$1,$6,$7,$8,$9,0*
20,1,$1+$1,$8,$9,$2,$3,0*%
%AMRotRect*
0 Rectangle, with rotation*
0 The origin of the aperture is its center*
0 $1 length*
0 $2 width*
0 $3 Rotation angle, in degrees counterclockwise*
0 Add horizontal line*
21,1,$1,$2,0,0,$3*%
G04 Aperture macros list end*
%ADD10C,0.250000*%
%ADD11C,0.120000*%
%ADD12C,0.700000*%
%ADD13C,4.400000*%
%ADD14C,2.200000*%
%ADD15C,1.750000*%
%ADD16C,3.987800*%
%ADD17C,2.300000*%
%ADD18C,3.048000*%
%ADD19RoundRect,0.285750X-0.666750X-0.666750X0.666750X-0.666750X0.666750X0.666750X-0.666750X0.666750X0*%
%ADD20C,1.905000*%
%ADD21C,2.000000*%
%ADD22C,1.700000*%
%ADD23O,1.700000X1.700000*%
%ADD24R,1.200000X0.900000*%
%ADD25RoundRect,0.135000X-0.185000X0.135000X-0.185000X-0.135000X0.185000X-0.135000X0.185000X0.135000X0*%
%ADD26R,1.200000X1.400000*%
%ADD27RoundRect,0.140000X-0.170000X0.140000X-0.170000X-0.140000X0.170000X-0.140000X0.170000X0.140000X0*%
%ADD28RoundRect,0.135000X0.135000X0.185000X-0.135000X0.185000X-0.135000X-0.185000X0.135000X-0.185000X0*%
%ADD29RoundRect,0.135000X-0.035355X0.226274X-0.226274X0.035355X0.035355X-0.226274X0.226274X-0.035355X0*%
%ADD30RoundRect,0.250000X0.625000X-0.375000X0.625000X0.375000X-0.625000X0.375000X-0.625000X-0.375000X0*%
%ADD31RoundRect,0.140000X0.219203X0.021213X0.021213X0.219203X-0.219203X-0.021213X-0.021213X-0.219203X0*%
%ADD32RoundRect,0.135000X0.185000X-0.135000X0.185000X0.135000X-0.185000X0.135000X-0.185000X-0.135000X0*%
%ADD33RoundRect,0.140000X-0.219203X-0.021213X-0.021213X-0.219203X0.219203X0.021213X0.021213X0.219203X0*%
%ADD34RoundRect,0.062500X-0.380070X0.291682X0.291682X-0.380070X0.380070X-0.291682X-0.291682X0.380070X0*%
%ADD35RoundRect,0.062500X-0.380070X-0.291682X-0.291682X-0.380070X0.380070X0.291682X0.291682X0.380070X0*%
%ADD36RotRect,5.200000X5.200000X315.000000*%
%ADD37RoundRect,0.140000X0.021213X-0.219203X0.219203X-0.021213X-0.021213X0.219203X-0.219203X0.021213X0*%
%ADD38RoundRect,0.150000X-0.475000X-0.150000X0.475000X-0.150000X0.475000X0.150000X-0.475000X0.150000X0*%
%ADD39C,0.650000*%
%ADD40R,0.600000X1.450000*%
%ADD41R,0.300000X1.450000*%
%ADD42O,1.000000X1.600000*%
%ADD43O,1.000000X2.100000*%
%ADD44RoundRect,0.140000X-0.021213X0.219203X-0.219203X0.021213X0.021213X-0.219203X0.219203X-0.021213X0*%
%ADD45RoundRect,0.135000X0.226274X0.035355X0.035355X0.226274X-0.226274X-0.035355X-0.035355X-0.226274X0*%
G04 APERTURE END LIST*
D10*
X257262500Y-107150000D02*
G75*
G03*
X257262500Y-107150000I-1525000J0D01*
G01*
X69762500Y-107150000D02*
G75*
G03*
X69762500Y-107150000I-1525000J0D01*
G01*
X165825000Y-77500000D02*
G75*
G03*
X165825000Y-77500000I-1525000J0D01*
G01*
X282506250Y-50000000D02*
G75*
G03*
X282506250Y-50000000I-1525000J0D01*
G01*
G36*
X81843778Y-114264382D02*
G01*
X81782530Y-114364520D01*
X81699174Y-114449568D01*
X81598838Y-114507752D01*
X81480788Y-114539483D01*
X81344292Y-114545175D01*
X81323046Y-114543884D01*
X81201070Y-114524234D01*
X81099571Y-114482984D01*
X81013702Y-114417508D01*
X80938618Y-114325176D01*
X80937518Y-114323538D01*
X80927239Y-114310166D01*
X80920192Y-114308602D01*
X80915773Y-114322886D01*
X80913374Y-114357059D01*
X80912391Y-114415161D01*
X80912216Y-114501232D01*
X80912262Y-114529248D01*
X80913268Y-114612102D01*
X80916152Y-114671066D01*
X80921658Y-114712487D01*
X80930532Y-114742716D01*
X80943518Y-114768099D01*
X80946995Y-114773630D01*
X80998039Y-114827524D01*
X81068085Y-114858802D01*
X81160234Y-114868908D01*
X81239983Y-114861596D01*
X81316874Y-114833027D01*
X81370382Y-114783294D01*
X81399800Y-114712859D01*
X81410856Y-114660842D01*
X81876866Y-114660842D01*
X81866288Y-114752871D01*
X81861992Y-114783026D01*
X81826338Y-114902305D01*
X81763336Y-115005908D01*
X81673993Y-115092798D01*
X81559315Y-115161938D01*
X81420306Y-115212294D01*
X81371870Y-115221870D01*
X81287764Y-115230688D01*
X81190466Y-115235000D01*
X81090530Y-115234656D01*
X80998507Y-115229503D01*
X80924948Y-115219391D01*
X80906667Y-115215340D01*
X80772255Y-115169137D01*
X80652855Y-115098772D01*
X80552982Y-115007484D01*
X80477156Y-114898508D01*
X80440008Y-114828895D01*
X80435520Y-113880596D01*
X80434752Y-113718179D01*
X80912216Y-113718179D01*
X80912419Y-113788827D01*
X80913806Y-113857669D01*
X80917252Y-113905823D01*
X80923611Y-113939700D01*
X80933737Y-113965710D01*
X80948487Y-113990265D01*
X80952380Y-113995818D01*
X80993576Y-114039607D01*
X81040516Y-114072632D01*
X81051619Y-114077629D01*
X81108734Y-114094008D01*
X81168237Y-114100616D01*
X81245440Y-114090085D01*
X81323622Y-114055032D01*
X81383167Y-113999426D01*
X81395058Y-113981054D01*
X81404553Y-113957693D01*
X81410735Y-113925680D01*
X81414296Y-113879174D01*
X81415925Y-113812340D01*
X81416315Y-113719338D01*
X81416094Y-113665286D01*
X81413586Y-113572870D01*
X81406943Y-113504649D01*
X81394510Y-113455359D01*
X81374630Y-113419736D01*
X81345647Y-113392517D01*
X81305904Y-113368437D01*
X81305085Y-113368006D01*
X81243107Y-113348628D01*
X81166626Y-113342561D01*
X81089974Y-113349723D01*
X81027485Y-113370032D01*
X81024958Y-113371382D01*
X80983207Y-113398151D01*
X80952986Y-113430249D01*
X80932536Y-113472987D01*
X80920097Y-113531680D01*
X80913910Y-113611639D01*
X80912216Y-113718179D01*
X80434752Y-113718179D01*
X80431033Y-112932298D01*
X80912156Y-112932298D01*
X80912156Y-113162635D01*
X80959956Y-113087263D01*
X80984177Y-113053309D01*
X81063009Y-112978329D01*
X81159794Y-112924823D01*
X81269426Y-112893869D01*
X81386798Y-112886543D01*
X81506804Y-112903923D01*
X81624338Y-112947087D01*
X81645811Y-112958166D01*
X81733378Y-113018276D01*
X81802903Y-113096316D01*
X81860792Y-113199110D01*
X81868014Y-113215248D01*
X81877034Y-113239050D01*
X81883917Y-113265609D01*
X81888951Y-113299103D01*
X81892424Y-113343713D01*
X81894625Y-113403617D01*
X81895840Y-113482993D01*
X81896358Y-113586022D01*
X81896466Y-113716881D01*
X81896466Y-114157356D01*
X81843778Y-114264382D01*
G37*
G36*
X71235199Y-113484472D02*
G01*
X71256403Y-113568885D01*
X71292068Y-113707720D01*
X71323567Y-113826146D01*
X71350291Y-113922008D01*
X71371633Y-113993150D01*
X71386982Y-114037416D01*
X71395730Y-114052651D01*
X71399841Y-114047712D01*
X71412471Y-114015809D01*
X71431425Y-113956189D01*
X71456074Y-113871052D01*
X71485792Y-113762598D01*
X71519949Y-113633027D01*
X71557918Y-113484540D01*
X71701255Y-112916430D01*
X71961337Y-112916361D01*
X72022034Y-112916677D01*
X72101307Y-112918223D01*
X72164525Y-112920838D01*
X72206371Y-112924277D01*
X72221527Y-112928296D01*
X72220843Y-112931375D01*
X72212723Y-112959359D01*
X72196158Y-113013872D01*
X72172045Y-113092029D01*
X72141284Y-113190948D01*
X72104772Y-113307743D01*
X72063409Y-113439531D01*
X72018092Y-113583429D01*
X71969721Y-113736551D01*
X71717807Y-114532802D01*
X71656436Y-114532802D01*
X71648074Y-114532833D01*
X71619229Y-114535092D01*
X71605020Y-114544845D01*
X71605055Y-114567524D01*
X71618942Y-114608560D01*
X71646289Y-114673386D01*
X71662687Y-114705122D01*
X71698366Y-114745218D01*
X71749020Y-114771010D01*
X71820038Y-114784798D01*
X71916809Y-114788882D01*
X72045364Y-114788882D01*
X72045364Y-115192362D01*
X71793284Y-115186684D01*
X71752051Y-115185720D01*
X71666179Y-115183110D01*
X71603237Y-115179529D01*
X71556701Y-115174020D01*
X71520045Y-115165626D01*
X71486743Y-115153389D01*
X71450270Y-115136351D01*
X71391233Y-115102416D01*
X71299753Y-115022460D01*
X71231463Y-114920479D01*
X71229783Y-114916579D01*
X71218556Y-114885584D01*
X71199115Y-114828634D01*
X71172466Y-114748862D01*
X71139620Y-114649399D01*
X71101583Y-114533380D01*
X71059365Y-114403935D01*
X71013974Y-114264197D01*
X70966420Y-114117300D01*
X70917709Y-113966374D01*
X70868851Y-113814553D01*
X70820854Y-113664968D01*
X70774727Y-113520753D01*
X70731478Y-113385040D01*
X70692116Y-113260960D01*
X70657650Y-113151647D01*
X70629086Y-113060233D01*
X70607436Y-112989850D01*
X70593706Y-112943630D01*
X70588905Y-112924707D01*
X70594717Y-112922913D01*
X70626783Y-112920286D01*
X70682152Y-112918188D01*
X70755427Y-112916796D01*
X70841213Y-112916293D01*
X71093520Y-112916293D01*
X71235199Y-113484472D01*
G37*
G36*
X52573322Y-113484472D02*
G01*
X52594526Y-113568885D01*
X52630190Y-113707720D01*
X52661689Y-113826146D01*
X52688414Y-113922008D01*
X52709755Y-113993150D01*
X52725104Y-114037416D01*
X52733852Y-114052651D01*
X52737964Y-114047712D01*
X52750593Y-114015809D01*
X52769547Y-113956189D01*
X52794196Y-113871052D01*
X52823914Y-113762598D01*
X52858071Y-113633027D01*
X52896040Y-113484540D01*
X53039377Y-112916430D01*
X53299459Y-112916361D01*
X53360157Y-112916677D01*
X53439429Y-112918223D01*
X53502647Y-112920838D01*
X53544493Y-112924277D01*
X53559649Y-112928296D01*
X53558965Y-112931375D01*
X53550845Y-112959359D01*
X53534280Y-113013872D01*
X53510167Y-113092029D01*
X53479406Y-113190948D01*
X53442894Y-113307743D01*
X53401531Y-113439531D01*
X53356214Y-113583429D01*
X53307843Y-113736551D01*
X53055929Y-114532802D01*
X52994558Y-114532802D01*
X52986197Y-114532833D01*
X52957351Y-114535092D01*
X52943142Y-114544845D01*
X52943177Y-114567524D01*
X52957064Y-114608560D01*
X52984411Y-114673386D01*
X53000809Y-114705122D01*
X53036488Y-114745218D01*
X53087142Y-114771010D01*
X53158160Y-114784798D01*
X53254931Y-114788882D01*
X53383486Y-114788882D01*
X53383486Y-115192362D01*
X53131406Y-115186684D01*
X53090173Y-115185720D01*
X53004301Y-115183110D01*
X52941359Y-115179529D01*
X52894823Y-115174020D01*
X52858167Y-115165626D01*
X52824865Y-115153389D01*
X52788393Y-115136351D01*
X52729355Y-115102416D01*
X52637875Y-115022460D01*
X52569585Y-114920479D01*
X52567905Y-114916579D01*
X52556679Y-114885584D01*
X52537237Y-114828634D01*
X52510589Y-114748862D01*
X52477742Y-114649399D01*
X52439705Y-114533380D01*
X52397487Y-114403935D01*
X52352097Y-114264197D01*
X52304542Y-114117300D01*
X52255831Y-113966374D01*
X52206973Y-113814553D01*
X52158976Y-113664968D01*
X52112849Y-113520753D01*
X52069601Y-113385040D01*
X52030239Y-113260960D01*
X51995772Y-113151647D01*
X51967209Y-113060233D01*
X51945558Y-112989850D01*
X51931828Y-112943630D01*
X51927027Y-112924707D01*
X51932839Y-112922913D01*
X51964905Y-112920286D01*
X52020274Y-112918188D01*
X52093550Y-112916796D01*
X52179335Y-112916293D01*
X52431642Y-112916293D01*
X52573322Y-113484472D01*
G37*
G36*
X86145562Y-113764560D02*
G01*
X86145562Y-113765529D01*
X86141116Y-113930505D01*
X86127056Y-114068836D01*
X86102160Y-114184744D01*
X86065207Y-114282453D01*
X86014977Y-114366187D01*
X85950248Y-114440168D01*
X85913826Y-114472363D01*
X85815153Y-114539300D01*
X85703914Y-114593204D01*
X85593468Y-114627077D01*
X85562650Y-114632153D01*
X85471108Y-114638890D01*
X85364845Y-114638270D01*
X85255336Y-114630922D01*
X85154053Y-114617473D01*
X85072468Y-114598552D01*
X84984698Y-114563090D01*
X84889592Y-114507841D01*
X84807605Y-114442658D01*
X84748110Y-114374031D01*
X84731648Y-114345690D01*
X84702808Y-114282067D01*
X84681155Y-114217400D01*
X84676148Y-114198450D01*
X84662905Y-114147295D01*
X84657795Y-114111656D01*
X84664796Y-114088752D01*
X84687882Y-114075800D01*
X84731029Y-114070015D01*
X84798213Y-114068616D01*
X84893410Y-114068818D01*
X85129485Y-114068981D01*
X85156471Y-114133228D01*
X85167644Y-114155470D01*
X85216552Y-114207450D01*
X85289319Y-114238596D01*
X85386331Y-114249100D01*
X85453034Y-114243960D01*
X85536617Y-114216797D01*
X85598284Y-114167565D01*
X85636466Y-114097700D01*
X85649589Y-114008637D01*
X85649648Y-113924610D01*
X84657336Y-113924610D01*
X84657614Y-113720546D01*
X84659613Y-113620858D01*
X84662342Y-113588504D01*
X85137487Y-113588504D01*
X85649648Y-113588504D01*
X85649589Y-113512480D01*
X85647286Y-113476232D01*
X85623028Y-113397032D01*
X85575362Y-113335752D01*
X85508061Y-113295063D01*
X85424898Y-113277633D01*
X85329649Y-113286135D01*
X85249866Y-113318489D01*
X85189185Y-113374551D01*
X85150972Y-113450938D01*
X85137576Y-113544491D01*
X85137487Y-113588504D01*
X84662342Y-113588504D01*
X84672178Y-113471909D01*
X84697373Y-113346798D01*
X84736466Y-113241511D01*
X84790721Y-113152036D01*
X84861404Y-113074360D01*
X84904747Y-113038013D01*
X85022951Y-112965988D01*
X85155564Y-112916554D01*
X85297214Y-112889633D01*
X85442528Y-112885148D01*
X85586131Y-112903022D01*
X85722651Y-112943178D01*
X85846714Y-113005538D01*
X85952946Y-113090025D01*
X86015330Y-113162698D01*
X86065484Y-113247055D01*
X86102358Y-113345123D01*
X86127178Y-113461200D01*
X86140050Y-113588504D01*
X86141170Y-113599580D01*
X86145562Y-113764560D01*
G37*
G36*
X83846517Y-112888463D02*
G01*
X83996943Y-112912310D01*
X84126407Y-112956860D01*
X84233607Y-113021002D01*
X84317240Y-113103619D01*
X84376005Y-113203599D01*
X84408598Y-113319828D01*
X84413717Y-113451191D01*
X84412552Y-113466628D01*
X84395726Y-113565633D01*
X84361910Y-113650872D01*
X84308601Y-113724553D01*
X84233298Y-113788880D01*
X84133497Y-113846061D01*
X84006695Y-113898302D01*
X83850390Y-113947809D01*
X83761458Y-113973687D01*
X83679072Y-113999781D01*
X83619787Y-114022086D01*
X83579197Y-114042538D01*
X83552894Y-114063070D01*
X83536471Y-114085618D01*
X83522692Y-114126468D01*
X83529271Y-114178575D01*
X83562187Y-114222921D01*
X83618177Y-114255626D01*
X83693975Y-114272811D01*
X83757295Y-114273654D01*
X83836003Y-114257558D01*
X83897970Y-114223778D01*
X83938554Y-114175151D01*
X83953114Y-114114512D01*
X83953114Y-114068656D01*
X84437113Y-114068656D01*
X84430176Y-114160685D01*
X84425915Y-114196234D01*
X84411568Y-114262743D01*
X84392574Y-114316734D01*
X84369892Y-114357508D01*
X84297353Y-114445682D01*
X84201542Y-114521663D01*
X84088106Y-114581453D01*
X83962688Y-114621058D01*
X83916378Y-114630004D01*
X83759429Y-114644727D01*
X83603678Y-114636987D01*
X83455427Y-114607877D01*
X83320978Y-114558490D01*
X83206635Y-114489920D01*
X83136337Y-114419282D01*
X83080437Y-114324937D01*
X83044982Y-114217148D01*
X83031442Y-114102752D01*
X83041284Y-113988587D01*
X83075977Y-113881492D01*
X83107082Y-113826733D01*
X83162283Y-113762376D01*
X83236319Y-113705824D01*
X83332484Y-113655093D01*
X83454072Y-113608199D01*
X83604375Y-113563157D01*
X83619970Y-113558899D01*
X83702056Y-113535031D01*
X83775695Y-113511364D01*
X83833354Y-113490429D01*
X83867499Y-113474756D01*
X83908025Y-113443083D01*
X83935337Y-113396818D01*
X83931379Y-113348148D01*
X83895807Y-113299202D01*
X83882918Y-113287939D01*
X83853037Y-113270640D01*
X83813392Y-113262461D01*
X83752935Y-113260401D01*
X83704356Y-113262739D01*
X83628714Y-113281225D01*
X83576543Y-113319150D01*
X83545677Y-113377741D01*
X83530363Y-113428454D01*
X83054870Y-113428454D01*
X83065742Y-113352430D01*
X83088131Y-113256701D01*
X83140695Y-113146745D01*
X83218365Y-113054648D01*
X83319698Y-112981396D01*
X83443249Y-112927974D01*
X83587576Y-112895367D01*
X83751234Y-112884560D01*
X83846517Y-112888463D01*
G37*
G36*
X78287087Y-113764560D02*
G01*
X78287086Y-113765529D01*
X78282641Y-113930505D01*
X78268581Y-114068836D01*
X78243685Y-114184744D01*
X78206732Y-114282453D01*
X78156502Y-114366187D01*
X78091773Y-114440168D01*
X78055351Y-114472363D01*
X77956678Y-114539300D01*
X77845439Y-114593204D01*
X77734993Y-114627077D01*
X77704175Y-114632153D01*
X77612632Y-114638890D01*
X77506370Y-114638270D01*
X77396861Y-114630922D01*
X77295578Y-114617473D01*
X77213993Y-114598552D01*
X77126223Y-114563090D01*
X77031117Y-114507841D01*
X76949130Y-114442658D01*
X76889635Y-114374031D01*
X76873173Y-114345690D01*
X76844333Y-114282067D01*
X76822680Y-114217400D01*
X76817673Y-114198450D01*
X76804430Y-114147295D01*
X76799320Y-114111656D01*
X76806320Y-114088752D01*
X76829406Y-114075800D01*
X76872554Y-114070015D01*
X76939738Y-114068616D01*
X77034935Y-114068818D01*
X77271009Y-114068981D01*
X77297996Y-114133228D01*
X77309169Y-114155470D01*
X77358077Y-114207450D01*
X77430844Y-114238596D01*
X77527855Y-114249100D01*
X77594559Y-114243960D01*
X77678142Y-114216797D01*
X77739809Y-114167565D01*
X77777991Y-114097700D01*
X77791113Y-114008637D01*
X77791173Y-113924610D01*
X76798861Y-113924610D01*
X76799139Y-113720546D01*
X76801138Y-113620858D01*
X76803867Y-113588504D01*
X77279012Y-113588504D01*
X77791173Y-113588504D01*
X77791113Y-113512480D01*
X77788810Y-113476232D01*
X77764553Y-113397032D01*
X77716887Y-113335752D01*
X77649585Y-113295063D01*
X77566423Y-113277633D01*
X77471174Y-113286135D01*
X77391391Y-113318489D01*
X77330710Y-113374551D01*
X77292497Y-113450938D01*
X77279101Y-113544491D01*
X77279012Y-113588504D01*
X76803867Y-113588504D01*
X76813703Y-113471909D01*
X76838898Y-113346798D01*
X76877991Y-113241511D01*
X76932246Y-113152036D01*
X77002929Y-113074360D01*
X77046272Y-113038013D01*
X77164475Y-112965988D01*
X77297089Y-112916554D01*
X77438739Y-112889633D01*
X77584053Y-112885148D01*
X77727656Y-112903022D01*
X77864176Y-112943178D01*
X77988239Y-113005538D01*
X78094471Y-113090025D01*
X78156855Y-113162698D01*
X78207009Y-113247055D01*
X78243883Y-113345123D01*
X78268703Y-113461200D01*
X78281575Y-113588504D01*
X78282695Y-113599580D01*
X78287087Y-113764560D01*
G37*
G36*
X76502141Y-114026286D02*
G01*
X76501021Y-114109372D01*
X76499041Y-114172661D01*
X76495959Y-114220048D01*
X76491532Y-114255428D01*
X76485521Y-114282695D01*
X76477682Y-114305744D01*
X76467774Y-114328471D01*
X76423737Y-114409941D01*
X76348351Y-114503044D01*
X76254468Y-114572414D01*
X76138076Y-114621618D01*
X76064535Y-114638707D01*
X75946520Y-114644055D01*
X75831345Y-114624675D01*
X75725091Y-114582514D01*
X75633836Y-114519519D01*
X75563663Y-114437639D01*
X75518457Y-114366484D01*
X75518457Y-114596822D01*
X75038306Y-114596822D01*
X75038306Y-113764560D01*
X75518577Y-113764560D01*
X75519261Y-113859357D01*
X75522732Y-113951350D01*
X75530366Y-114019988D01*
X75543514Y-114070031D01*
X75563521Y-114106237D01*
X75591737Y-114133365D01*
X75629509Y-114156175D01*
X75675743Y-114175097D01*
X75760769Y-114189461D01*
X75845235Y-114181829D01*
X75920565Y-114153445D01*
X75978182Y-114105555D01*
X75998288Y-114074825D01*
X76013365Y-114035642D01*
X76023276Y-113984059D01*
X76028629Y-113915203D01*
X76030034Y-113824200D01*
X76028100Y-113706178D01*
X76027510Y-113684549D01*
X76023097Y-113585927D01*
X76015233Y-113512881D01*
X76002066Y-113460012D01*
X75981741Y-113421916D01*
X75952406Y-113393192D01*
X75912205Y-113368437D01*
X75911386Y-113368006D01*
X75849408Y-113348628D01*
X75772927Y-113342561D01*
X75696275Y-113349723D01*
X75633786Y-113370032D01*
X75598611Y-113390993D01*
X75568272Y-113417665D01*
X75546616Y-113452124D01*
X75532230Y-113499206D01*
X75523704Y-113563749D01*
X75519623Y-113650588D01*
X75518577Y-113764560D01*
X75038306Y-113764560D01*
X75038306Y-112260086D01*
X75518457Y-112260086D01*
X75518457Y-113162635D01*
X75566257Y-113087263D01*
X75590479Y-113053309D01*
X75669310Y-112978329D01*
X75766095Y-112924823D01*
X75875727Y-112893869D01*
X75993099Y-112886543D01*
X76113105Y-112903923D01*
X76230639Y-112947087D01*
X76252112Y-112958166D01*
X76339679Y-113018276D01*
X76409205Y-113096316D01*
X76467093Y-113199110D01*
X76469264Y-113203842D01*
X76478922Y-113226573D01*
X76486522Y-113250089D01*
X76492309Y-113278295D01*
X76496531Y-113315092D01*
X76499433Y-113364384D01*
X76501261Y-113430073D01*
X76502262Y-113516064D01*
X76502682Y-113626258D01*
X76502767Y-113764560D01*
X76502766Y-113785145D01*
X76502730Y-113824200D01*
X76502642Y-113919509D01*
X76502141Y-114026286D01*
G37*
G36*
X73421797Y-114596822D02*
G01*
X73421797Y-114484787D01*
X73421788Y-114480319D01*
X73419997Y-114425962D01*
X73415710Y-114387423D01*
X73409793Y-114372795D01*
X73405992Y-114374511D01*
X73388244Y-114395102D01*
X73365779Y-114431509D01*
X73310530Y-114504008D01*
X73229351Y-114567889D01*
X73130426Y-114615479D01*
X73110882Y-114621924D01*
X72997108Y-114641955D01*
X72878027Y-114637339D01*
X72761639Y-114609821D01*
X72655944Y-114561145D01*
X72568940Y-114493055D01*
X72547823Y-114470450D01*
X72509476Y-114422335D01*
X72478986Y-114370461D01*
X72455505Y-114310801D01*
X72438185Y-114239327D01*
X72426180Y-114152012D01*
X72418641Y-114044827D01*
X72414721Y-113913746D01*
X72413643Y-113764560D01*
X72901633Y-113764560D01*
X72901643Y-113784115D01*
X72902436Y-113887132D01*
X72905546Y-113964384D01*
X72912432Y-114021238D01*
X72924550Y-114063060D01*
X72943360Y-114095217D01*
X72970318Y-114123075D01*
X73006882Y-114152000D01*
X73046534Y-114173851D01*
X73121100Y-114190754D01*
X73201839Y-114186870D01*
X73277386Y-114161786D01*
X73315866Y-114140001D01*
X73353022Y-114110960D01*
X73379530Y-114075246D01*
X73397125Y-114027805D01*
X73407543Y-113963580D01*
X73412521Y-113877517D01*
X73413795Y-113764560D01*
X73413020Y-113672032D01*
X73408928Y-113580958D01*
X73399745Y-113512740D01*
X73383735Y-113462324D01*
X73359163Y-113424655D01*
X73324292Y-113394676D01*
X73277386Y-113367333D01*
X73254365Y-113356581D01*
X73166528Y-113335696D01*
X73080847Y-113345165D01*
X73001991Y-113383852D01*
X72934632Y-113450623D01*
X72928753Y-113458882D01*
X72918147Y-113478344D01*
X72910718Y-113503340D01*
X72905909Y-113539165D01*
X72903162Y-113591114D01*
X72901923Y-113664480D01*
X72901633Y-113764560D01*
X72413643Y-113764560D01*
X72413572Y-113754741D01*
X72413644Y-113707854D01*
X72415525Y-113559643D01*
X72420624Y-113438071D01*
X72429836Y-113338995D01*
X72444056Y-113258272D01*
X72464182Y-113191761D01*
X72491107Y-113135318D01*
X72525728Y-113084800D01*
X72568940Y-113036065D01*
X72604034Y-113003789D01*
X72696351Y-112944841D01*
X72800393Y-112906894D01*
X72910711Y-112889531D01*
X73021858Y-112892337D01*
X73128386Y-112914895D01*
X73224847Y-112956790D01*
X73305794Y-113017604D01*
X73365779Y-113096923D01*
X73373996Y-113111479D01*
X73395486Y-113143523D01*
X73409793Y-113156325D01*
X73410269Y-113155977D01*
X73413339Y-113136257D01*
X73416095Y-113089176D01*
X73418427Y-113018784D01*
X73420227Y-112929129D01*
X73421386Y-112824261D01*
X73421797Y-112708227D01*
X73421797Y-112260086D01*
X73901948Y-112260086D01*
X73901948Y-114596822D01*
X73421797Y-114596822D01*
G37*
G36*
X68850113Y-112328868D02*
G01*
X68966240Y-112335497D01*
X69060151Y-112347070D01*
X69141114Y-112365695D01*
X69218397Y-112393477D01*
X69301269Y-112432525D01*
X69344701Y-112457101D01*
X69448622Y-112539557D01*
X69530642Y-112641692D01*
X69589039Y-112759361D01*
X69622089Y-112888418D01*
X69628070Y-113024719D01*
X69605261Y-113164119D01*
X69588237Y-113218471D01*
X69548662Y-113304973D01*
X69494302Y-113381999D01*
X69422318Y-113451713D01*
X69329871Y-113516280D01*
X69214124Y-113577863D01*
X69072237Y-113638627D01*
X68901371Y-113700736D01*
X68863673Y-113713715D01*
X68778533Y-113743944D01*
X68702365Y-113772182D01*
X68642309Y-113795745D01*
X68605507Y-113811949D01*
X68587240Y-113821846D01*
X68516827Y-113875601D01*
X68474517Y-113936472D01*
X68459011Y-114000411D01*
X68469007Y-114063371D01*
X68503207Y-114121304D01*
X68560310Y-114170164D01*
X68639014Y-114205901D01*
X68738021Y-114224468D01*
X68810972Y-114225440D01*
X68911613Y-114208637D01*
X68995978Y-114171838D01*
X69060570Y-114117439D01*
X69101890Y-114047834D01*
X69116441Y-113965418D01*
X69116441Y-113908605D01*
X69648817Y-113908605D01*
X69641314Y-114025517D01*
X69639776Y-114045168D01*
X69612724Y-114178177D01*
X69557244Y-114296725D01*
X69472777Y-114402061D01*
X69471679Y-114403155D01*
X69385716Y-114472920D01*
X69278684Y-114535904D01*
X69161334Y-114586645D01*
X69044418Y-114619681D01*
X68969708Y-114631510D01*
X68821751Y-114641957D01*
X68669755Y-114638481D01*
X68529664Y-114621040D01*
X68409857Y-114590342D01*
X68270343Y-114530520D01*
X68151614Y-114450502D01*
X68055444Y-114352634D01*
X67983604Y-114239263D01*
X67937868Y-114112734D01*
X67920006Y-113975394D01*
X67931792Y-113829588D01*
X67934778Y-113814013D01*
X67970820Y-113693359D01*
X68028488Y-113591032D01*
X68112161Y-113499008D01*
X68139396Y-113474867D01*
X68193713Y-113431893D01*
X68251856Y-113394215D01*
X68319254Y-113359154D01*
X68401335Y-113324034D01*
X68503529Y-113286174D01*
X68631264Y-113242897D01*
X68717538Y-113213927D01*
X68833891Y-113171928D01*
X68924037Y-113134245D01*
X68991005Y-113098870D01*
X69037820Y-113063795D01*
X69067512Y-113027014D01*
X69083107Y-112986518D01*
X69087632Y-112940300D01*
X69080033Y-112886408D01*
X69045941Y-112824724D01*
X68986547Y-112778799D01*
X68904132Y-112750224D01*
X68800979Y-112740589D01*
X68703048Y-112749308D01*
X68615027Y-112776541D01*
X68548684Y-112820415D01*
X68506822Y-112879024D01*
X68492244Y-112950461D01*
X68492244Y-113012323D01*
X67959777Y-113012323D01*
X67967749Y-112900907D01*
X67971608Y-112862810D01*
X68002167Y-112741121D01*
X68060695Y-112632749D01*
X68148882Y-112534275D01*
X68185215Y-112502743D01*
X68288337Y-112431025D01*
X68401036Y-112379169D01*
X68528088Y-112345764D01*
X68674269Y-112329397D01*
X68844355Y-112328657D01*
X68850113Y-112328868D01*
G37*
G36*
X61377456Y-114305510D02*
G01*
X61328751Y-114413639D01*
X61254437Y-114504190D01*
X61156025Y-114574994D01*
X61035026Y-114623876D01*
X60981505Y-114633621D01*
X60908553Y-114639346D01*
X60831359Y-114639628D01*
X60811438Y-114638605D01*
X60692241Y-114620157D01*
X60588015Y-114582633D01*
X60503621Y-114528294D01*
X60443922Y-114459402D01*
X60427940Y-114434342D01*
X60404150Y-114402094D01*
X60389692Y-114389262D01*
X60383775Y-114402623D01*
X60379372Y-114439903D01*
X60377689Y-114492789D01*
X60377689Y-114596822D01*
X59911549Y-114596822D01*
X59916547Y-113960622D01*
X59916578Y-113956620D01*
X60389846Y-113956620D01*
X60396794Y-114052667D01*
X60402066Y-114094502D01*
X60429003Y-114169875D01*
X60478498Y-114223701D01*
X60552395Y-114258421D01*
X60560068Y-114260646D01*
X60658157Y-114276383D01*
X60749525Y-114268724D01*
X60827949Y-114238969D01*
X60887206Y-114188419D01*
X60900421Y-114169842D01*
X60919948Y-114117089D01*
X60909104Y-114065491D01*
X60867443Y-114011037D01*
X60813026Y-113956620D01*
X60389846Y-113956620D01*
X59916578Y-113956620D01*
X59921545Y-113324421D01*
X59963980Y-113233907D01*
X60006782Y-113159123D01*
X60091613Y-113062860D01*
X60199540Y-112986178D01*
X60328446Y-112930171D01*
X60476209Y-112895934D01*
X60640710Y-112884560D01*
X60664355Y-112884847D01*
X60822297Y-112899569D01*
X60962850Y-112935504D01*
X61084005Y-112991207D01*
X61183752Y-113065237D01*
X61260081Y-113156149D01*
X61310983Y-113262500D01*
X61334448Y-113382846D01*
X61342292Y-113492474D01*
X60873845Y-113492474D01*
X60873845Y-113448020D01*
X60868219Y-113411963D01*
X60848866Y-113367904D01*
X60836889Y-113352860D01*
X60779591Y-113310024D01*
X60707110Y-113285826D01*
X60627762Y-113280160D01*
X60549864Y-113292917D01*
X60481732Y-113323992D01*
X60431684Y-113373277D01*
X60419222Y-113401773D01*
X60405776Y-113457385D01*
X60397460Y-113523766D01*
X60389568Y-113634067D01*
X60707730Y-113639295D01*
X60747506Y-113639962D01*
X60847460Y-113641974D01*
X60922579Y-113644486D01*
X60978242Y-113648120D01*
X61019828Y-113653499D01*
X61052717Y-113661247D01*
X61082288Y-113671986D01*
X61113921Y-113686340D01*
X61145435Y-113702410D01*
X61248217Y-113775114D01*
X61324920Y-113866303D01*
X61375113Y-113975344D01*
X61398364Y-114101608D01*
X61398494Y-114117089D01*
X61399041Y-114181976D01*
X61377456Y-114305510D01*
G37*
G36*
X55247525Y-114305510D02*
G01*
X55198820Y-114413639D01*
X55124506Y-114504190D01*
X55026094Y-114574994D01*
X54905095Y-114623876D01*
X54851574Y-114633621D01*
X54778623Y-114639346D01*
X54701428Y-114639628D01*
X54681508Y-114638605D01*
X54562310Y-114620157D01*
X54458084Y-114582633D01*
X54373690Y-114528294D01*
X54313991Y-114459402D01*
X54298009Y-114434342D01*
X54274219Y-114402094D01*
X54259762Y-114389262D01*
X54253844Y-114402623D01*
X54249441Y-114439903D01*
X54247758Y-114492789D01*
X54247758Y-114596822D01*
X53781619Y-114596822D01*
X53786617Y-113960622D01*
X53786648Y-113956620D01*
X54259916Y-113956620D01*
X54266863Y-114052667D01*
X54272135Y-114094502D01*
X54299073Y-114169875D01*
X54348568Y-114223701D01*
X54422465Y-114258421D01*
X54430137Y-114260646D01*
X54528226Y-114276383D01*
X54619594Y-114268724D01*
X54698018Y-114238969D01*
X54757276Y-114188419D01*
X54770490Y-114169842D01*
X54790017Y-114117089D01*
X54779174Y-114065491D01*
X54737512Y-114011037D01*
X54683095Y-113956620D01*
X54259916Y-113956620D01*
X53786648Y-113956620D01*
X53791614Y-113324421D01*
X53834049Y-113233907D01*
X53876851Y-113159123D01*
X53961682Y-113062860D01*
X54069610Y-112986178D01*
X54198515Y-112930171D01*
X54346278Y-112895934D01*
X54510779Y-112884560D01*
X54534424Y-112884847D01*
X54692366Y-112899569D01*
X54832920Y-112935504D01*
X54954074Y-112991207D01*
X55053821Y-113065237D01*
X55130150Y-113156149D01*
X55181052Y-113262500D01*
X55204518Y-113382846D01*
X55212362Y-113492474D01*
X54743914Y-113492474D01*
X54743914Y-113448020D01*
X54738288Y-113411963D01*
X54718935Y-113367904D01*
X54706958Y-113352860D01*
X54649660Y-113310024D01*
X54577179Y-113285826D01*
X54497831Y-113280160D01*
X54419933Y-113292917D01*
X54351802Y-113323992D01*
X54301753Y-113373277D01*
X54289291Y-113401773D01*
X54275846Y-113457385D01*
X54267529Y-113523766D01*
X54259637Y-113634067D01*
X54577800Y-113639295D01*
X54617575Y-113639962D01*
X54717530Y-113641974D01*
X54792648Y-113644486D01*
X54848311Y-113648120D01*
X54889897Y-113653499D01*
X54922786Y-113661247D01*
X54952357Y-113671986D01*
X54983990Y-113686340D01*
X55015505Y-113702410D01*
X55118286Y-113775114D01*
X55194989Y-113866303D01*
X55245183Y-113975344D01*
X55268433Y-114101608D01*
X55268564Y-114117089D01*
X55269111Y-114181976D01*
X55247525Y-114305510D01*
G37*
G36*
X51742421Y-114305510D02*
G01*
X51693716Y-114413639D01*
X51619402Y-114504190D01*
X51520990Y-114574994D01*
X51399991Y-114623876D01*
X51346470Y-114633621D01*
X51273519Y-114639346D01*
X51196324Y-114639628D01*
X51176404Y-114638605D01*
X51057206Y-114620157D01*
X50952980Y-114582633D01*
X50868586Y-114528294D01*
X50808887Y-114459402D01*
X50792905Y-114434342D01*
X50769115Y-114402094D01*
X50754658Y-114389262D01*
X50748740Y-114402623D01*
X50744337Y-114439903D01*
X50742654Y-114492789D01*
X50742654Y-114596822D01*
X50276515Y-114596822D01*
X50281513Y-113960622D01*
X50281544Y-113956620D01*
X50754812Y-113956620D01*
X50761759Y-114052667D01*
X50767031Y-114094502D01*
X50793969Y-114169875D01*
X50843464Y-114223701D01*
X50917361Y-114258421D01*
X50925033Y-114260646D01*
X51023122Y-114276383D01*
X51114490Y-114268724D01*
X51192914Y-114238969D01*
X51252172Y-114188419D01*
X51265386Y-114169842D01*
X51284913Y-114117089D01*
X51274070Y-114065491D01*
X51232408Y-114011037D01*
X51177991Y-113956620D01*
X50754812Y-113956620D01*
X50281544Y-113956620D01*
X50286510Y-113324421D01*
X50328945Y-113233907D01*
X50371747Y-113159123D01*
X50456578Y-113062860D01*
X50564506Y-112986178D01*
X50693411Y-112930171D01*
X50841174Y-112895934D01*
X51005675Y-112884560D01*
X51029320Y-112884847D01*
X51187262Y-112899569D01*
X51327816Y-112935504D01*
X51448970Y-112991207D01*
X51548717Y-113065237D01*
X51625046Y-113156149D01*
X51675949Y-113262500D01*
X51699414Y-113382846D01*
X51707258Y-113492474D01*
X51238810Y-113492474D01*
X51238810Y-113448020D01*
X51233184Y-113411963D01*
X51213831Y-113367904D01*
X51201854Y-113352860D01*
X51144556Y-113310024D01*
X51072075Y-113285826D01*
X50992727Y-113280160D01*
X50914829Y-113292917D01*
X50846698Y-113323992D01*
X50796649Y-113373277D01*
X50784187Y-113401773D01*
X50770742Y-113457385D01*
X50762425Y-113523766D01*
X50754533Y-113634067D01*
X51072696Y-113639295D01*
X51112471Y-113639962D01*
X51212426Y-113641974D01*
X51287544Y-113644486D01*
X51343207Y-113648120D01*
X51384793Y-113653499D01*
X51417682Y-113661247D01*
X51447253Y-113671986D01*
X51478886Y-113686340D01*
X51510401Y-113702410D01*
X51613182Y-113775114D01*
X51689886Y-113866303D01*
X51740079Y-113975344D01*
X51763329Y-114101608D01*
X51763460Y-114117089D01*
X51764007Y-114181976D01*
X51742421Y-114305510D01*
G37*
G36*
X48134485Y-114048003D02*
G01*
X48111454Y-114167065D01*
X48059073Y-114299582D01*
X47981801Y-114412852D01*
X47881097Y-114505263D01*
X47758423Y-114575202D01*
X47615240Y-114621058D01*
X47608128Y-114622579D01*
X47449764Y-114643153D01*
X47296861Y-114638562D01*
X47153044Y-114610192D01*
X47021941Y-114559433D01*
X46907179Y-114487670D01*
X46812385Y-114396292D01*
X46741187Y-114286686D01*
X46720233Y-114240434D01*
X46696622Y-114172283D01*
X46679881Y-114096735D01*
X46669077Y-114007675D01*
X46663279Y-113898988D01*
X46661554Y-113764560D01*
X47149522Y-113764560D01*
X47149689Y-113861806D01*
X47150609Y-113937610D01*
X47152895Y-113991785D01*
X47157157Y-114029644D01*
X47164007Y-114056503D01*
X47174055Y-114077675D01*
X47187913Y-114098475D01*
X47193127Y-114105376D01*
X47234475Y-114146151D01*
X47279428Y-114174499D01*
X47340936Y-114192181D01*
X47426111Y-114195195D01*
X47507717Y-114176817D01*
X47577515Y-114139181D01*
X47627269Y-114084421D01*
X47628769Y-114081627D01*
X47639855Y-114041814D01*
X47648120Y-113977938D01*
X47653565Y-113896990D01*
X47656192Y-113805965D01*
X47656002Y-113711856D01*
X47652998Y-113621655D01*
X47647181Y-113542356D01*
X47638552Y-113480952D01*
X47627114Y-113444436D01*
X47608882Y-113418693D01*
X47549909Y-113369970D01*
X47476351Y-113341215D01*
X47395789Y-113332667D01*
X47315807Y-113344564D01*
X47243988Y-113377144D01*
X47187913Y-113430644D01*
X47174616Y-113450502D01*
X47164402Y-113471537D01*
X47157416Y-113498010D01*
X47153046Y-113535234D01*
X47150681Y-113588524D01*
X47149710Y-113663194D01*
X47149522Y-113764560D01*
X46661554Y-113764560D01*
X46662365Y-113668106D01*
X46666822Y-113552220D01*
X46676001Y-113457824D01*
X46690833Y-113378804D01*
X46712251Y-113309045D01*
X46741187Y-113242434D01*
X46781581Y-113173257D01*
X46868579Y-113073094D01*
X46977964Y-112992610D01*
X47106871Y-112933333D01*
X47252435Y-112896793D01*
X47411789Y-112884519D01*
X47511153Y-112889994D01*
X47659391Y-112919422D01*
X47793207Y-112972697D01*
X47909359Y-113047998D01*
X48004604Y-113143505D01*
X48075699Y-113257395D01*
X48077887Y-113262116D01*
X48107912Y-113350748D01*
X48130289Y-113464246D01*
X48144577Y-113596666D01*
X48150334Y-113742062D01*
X48148985Y-113805965D01*
X48147117Y-113894490D01*
X48134485Y-114048003D01*
G37*
G36*
X87678287Y-114596585D02*
G01*
X87567197Y-114596392D01*
X87425112Y-114595359D01*
X87308360Y-114593016D01*
X87212942Y-114588886D01*
X87134861Y-114582496D01*
X87070116Y-114573371D01*
X87014709Y-114561036D01*
X86964641Y-114545018D01*
X86915912Y-114524841D01*
X86864524Y-114500031D01*
X86834093Y-114483752D01*
X86711143Y-114397019D01*
X86607018Y-114288327D01*
X86525859Y-114162685D01*
X86471809Y-114025104D01*
X86466291Y-114003942D01*
X86458349Y-113966196D01*
X86452302Y-113923404D01*
X86447903Y-113871071D01*
X86444908Y-113804705D01*
X86443073Y-113719811D01*
X86442151Y-113611897D01*
X86441898Y-113476469D01*
X86441912Y-113428237D01*
X86442025Y-113381018D01*
X86947592Y-113381018D01*
X86948944Y-113517033D01*
X86954059Y-113884598D01*
X86998498Y-113960196D01*
X87039548Y-114015842D01*
X87118536Y-114080234D01*
X87131669Y-114087849D01*
X87160665Y-114102843D01*
X87190073Y-114113342D01*
X87226213Y-114120333D01*
X87275404Y-114124801D01*
X87343964Y-114127731D01*
X87438212Y-114130111D01*
X87682289Y-114135549D01*
X87682289Y-112816703D01*
X87454217Y-112823718D01*
X87448536Y-112823896D01*
X87333417Y-112829442D01*
X87244344Y-112838947D01*
X87175672Y-112854127D01*
X87121756Y-112876696D01*
X87076951Y-112908367D01*
X87035611Y-112950857D01*
X87030300Y-112957129D01*
X87003923Y-112991702D01*
X86983516Y-113027647D01*
X86968408Y-113069338D01*
X86957932Y-113121147D01*
X86951416Y-113187448D01*
X86948193Y-113272614D01*
X86947592Y-113381018D01*
X86442025Y-113381018D01*
X86442204Y-113306031D01*
X86443097Y-113209781D01*
X86444878Y-113134968D01*
X86447837Y-113077072D01*
X86452264Y-113031576D01*
X86458448Y-112993960D01*
X86466679Y-112959706D01*
X86477244Y-112924295D01*
X86478657Y-112919857D01*
X86541449Y-112773123D01*
X86628768Y-112646822D01*
X86740019Y-112541651D01*
X86874604Y-112458313D01*
X86928347Y-112433453D01*
X86985582Y-112411685D01*
X87046623Y-112394365D01*
X87115497Y-112381007D01*
X87196232Y-112371126D01*
X87292853Y-112364238D01*
X87409387Y-112359856D01*
X87549860Y-112357497D01*
X87718300Y-112356675D01*
X88194450Y-112356116D01*
X88194450Y-114596822D01*
X87678287Y-114596585D01*
G37*
G36*
X82752736Y-114596822D02*
G01*
X82272585Y-114596822D01*
X82272585Y-112932298D01*
X82752736Y-112932298D01*
X82752736Y-114596822D01*
G37*
G36*
X79150081Y-112890795D02*
G01*
X79262512Y-112914420D01*
X79363589Y-112957562D01*
X79447165Y-113017616D01*
X79507093Y-113091976D01*
X79518743Y-113111393D01*
X79541355Y-113143505D01*
X79555729Y-113156245D01*
X79556209Y-113156161D01*
X79562033Y-113139502D01*
X79566163Y-113099532D01*
X79567733Y-113044333D01*
X79567733Y-112932298D01*
X80047884Y-112932298D01*
X80047884Y-114596822D01*
X79567733Y-114596822D01*
X79567351Y-114088662D01*
X79567211Y-114029626D01*
X79566287Y-113905186D01*
X79564607Y-113790534D01*
X79562287Y-113690115D01*
X79559440Y-113608372D01*
X79556183Y-113549752D01*
X79552628Y-113518696D01*
X79522215Y-113447999D01*
X79466428Y-113388215D01*
X79393026Y-113350724D01*
X79387188Y-113349000D01*
X79316927Y-113334709D01*
X79256110Y-113339216D01*
X79188674Y-113363528D01*
X79163860Y-113375087D01*
X79138884Y-113389207D01*
X79118877Y-113406510D01*
X79103288Y-113430197D01*
X79091567Y-113463473D01*
X79083162Y-113509540D01*
X79077521Y-113571601D01*
X79074093Y-113652860D01*
X79072327Y-113756519D01*
X79071672Y-113885783D01*
X79071577Y-114043853D01*
X79071577Y-114596822D01*
X78591425Y-114596822D01*
X78591425Y-113241506D01*
X78640396Y-113143508D01*
X78646186Y-113132222D01*
X78713295Y-113034199D01*
X78798563Y-112961730D01*
X78903483Y-112913841D01*
X79029548Y-112889557D01*
X79032442Y-112889294D01*
X79150081Y-112890795D01*
G37*
G36*
X67595962Y-114596822D02*
G01*
X67115811Y-114596822D01*
X67115429Y-114088662D01*
X67115290Y-114029626D01*
X67114365Y-113905186D01*
X67112686Y-113790534D01*
X67110365Y-113690115D01*
X67107518Y-113608372D01*
X67104261Y-113549752D01*
X67100707Y-113518696D01*
X67070293Y-113447999D01*
X67014506Y-113388215D01*
X66941104Y-113350724D01*
X66935266Y-113349000D01*
X66865006Y-113334709D01*
X66804188Y-113339216D01*
X66736753Y-113363528D01*
X66711939Y-113375087D01*
X66686962Y-113389207D01*
X66666955Y-113406510D01*
X66651366Y-113430197D01*
X66639645Y-113463473D01*
X66631240Y-113509540D01*
X66625599Y-113571601D01*
X66622171Y-113652860D01*
X66620406Y-113756519D01*
X66619751Y-113885783D01*
X66619655Y-114043853D01*
X66619655Y-114596822D01*
X66139503Y-114596822D01*
X66139503Y-113241506D01*
X66188474Y-113143508D01*
X66194264Y-113132222D01*
X66261373Y-113034199D01*
X66346641Y-112961730D01*
X66451561Y-112913841D01*
X66577626Y-112889557D01*
X66580520Y-112889294D01*
X66698159Y-112890795D01*
X66810590Y-112914420D01*
X66911667Y-112957562D01*
X66995243Y-113017616D01*
X67055171Y-113091976D01*
X67066821Y-113111393D01*
X67089433Y-113143505D01*
X67103807Y-113156245D01*
X67104283Y-113155900D01*
X67107354Y-113136197D01*
X67110109Y-113089133D01*
X67112441Y-113018757D01*
X67114241Y-112929115D01*
X67115400Y-112824256D01*
X67115811Y-112708227D01*
X67115811Y-112260086D01*
X67595962Y-112260086D01*
X67595962Y-114596822D01*
G37*
G36*
X65771387Y-114596822D02*
G01*
X65291236Y-114596822D01*
X65291236Y-112932298D01*
X65771387Y-112932298D01*
X65771387Y-114596822D01*
G37*
G36*
X63993307Y-112890795D02*
G01*
X64105738Y-112914420D01*
X64206815Y-112957562D01*
X64290391Y-113017616D01*
X64350319Y-113091976D01*
X64361969Y-113111393D01*
X64384581Y-113143505D01*
X64398955Y-113156245D01*
X64399435Y-113156161D01*
X64405259Y-113139502D01*
X64409390Y-113099532D01*
X64410959Y-113044333D01*
X64410959Y-112932298D01*
X64891110Y-112932298D01*
X64891110Y-114596822D01*
X64410959Y-114596822D01*
X64410577Y-114088662D01*
X64410438Y-114029626D01*
X64409513Y-113905186D01*
X64407834Y-113790534D01*
X64405513Y-113690115D01*
X64402667Y-113608372D01*
X64399409Y-113549752D01*
X64395855Y-113518696D01*
X64365441Y-113447999D01*
X64309654Y-113388215D01*
X64236252Y-113350724D01*
X64230415Y-113349000D01*
X64160154Y-113334709D01*
X64099336Y-113339216D01*
X64031901Y-113363528D01*
X64007087Y-113375087D01*
X63982110Y-113389207D01*
X63962103Y-113406510D01*
X63946514Y-113430197D01*
X63934793Y-113463473D01*
X63926388Y-113509540D01*
X63920747Y-113571601D01*
X63917319Y-113652860D01*
X63915554Y-113756519D01*
X63914899Y-113885783D01*
X63914803Y-114043853D01*
X63914803Y-114596822D01*
X63434652Y-114596822D01*
X63434652Y-113241506D01*
X63483622Y-113143508D01*
X63489412Y-113132222D01*
X63556521Y-113034199D01*
X63641790Y-112961730D01*
X63746709Y-112913841D01*
X63872774Y-112889557D01*
X63875668Y-112889294D01*
X63993307Y-112890795D01*
G37*
G36*
X63050531Y-114596822D02*
G01*
X62570379Y-114596822D01*
X62570379Y-114146544D01*
X62495834Y-114060199D01*
X62492037Y-114055828D01*
X62454414Y-114015496D01*
X62424790Y-113988782D01*
X62409289Y-113981270D01*
X62406811Y-113984138D01*
X62390783Y-114009424D01*
X62362870Y-114057094D01*
X62325465Y-114122954D01*
X62280963Y-114202808D01*
X62231755Y-114292462D01*
X62066221Y-114596237D01*
X61782616Y-114596529D01*
X61499012Y-114596822D01*
X61673775Y-114309976D01*
X61728897Y-114219554D01*
X61796314Y-114109071D01*
X61863442Y-113999163D01*
X61924828Y-113898753D01*
X61975025Y-113816765D01*
X62101510Y-113610399D01*
X61807778Y-113277403D01*
X61798853Y-113267282D01*
X61723080Y-113181125D01*
X61655029Y-113103346D01*
X61597399Y-113037062D01*
X61552893Y-112985391D01*
X61524208Y-112951449D01*
X61514047Y-112938353D01*
X61524792Y-112936687D01*
X61562812Y-112934935D01*
X61623382Y-112933545D01*
X61701356Y-112932628D01*
X61791588Y-112932298D01*
X62069130Y-112932298D01*
X62303940Y-113228391D01*
X62346530Y-113281770D01*
X62409848Y-113359853D01*
X62465260Y-113426651D01*
X62509817Y-113478679D01*
X62540569Y-113512452D01*
X62554565Y-113524484D01*
X62556892Y-113520244D01*
X62560906Y-113488295D01*
X62564248Y-113425895D01*
X62566892Y-113334069D01*
X62568812Y-113213843D01*
X62569983Y-113066240D01*
X62570379Y-112892285D01*
X62570379Y-112260086D01*
X63050531Y-112260086D01*
X63050531Y-114596822D01*
G37*
G36*
X59561432Y-114596822D02*
G01*
X59081280Y-114596822D01*
X59081280Y-112932298D01*
X59561432Y-112932298D01*
X59561432Y-114596822D01*
G37*
G36*
X57864897Y-114596822D02*
G01*
X57350928Y-114596822D01*
X57355833Y-113876587D01*
X57356532Y-113757952D01*
X57357059Y-113617515D01*
X57357207Y-113489928D01*
X57356989Y-113378385D01*
X57356420Y-113286077D01*
X57355512Y-113216199D01*
X57354279Y-113171943D01*
X57352736Y-113156503D01*
X57346895Y-113166682D01*
X57329839Y-113203220D01*
X57303181Y-113263121D01*
X57268382Y-113343024D01*
X57226903Y-113439570D01*
X57180208Y-113549396D01*
X57129757Y-113669142D01*
X56914780Y-114181629D01*
X56724892Y-114177159D01*
X56535004Y-114172688D01*
X56323208Y-113673398D01*
X56285147Y-113583837D01*
X56237534Y-113472294D01*
X56194885Y-113372934D01*
X56158697Y-113289220D01*
X56130467Y-113224611D01*
X56111695Y-113182570D01*
X56103876Y-113166557D01*
X56102703Y-113175168D01*
X56101512Y-113212284D01*
X56100643Y-113275746D01*
X56100107Y-113362402D01*
X56099915Y-113469099D01*
X56100077Y-113592685D01*
X56100604Y-113730007D01*
X56101506Y-113877914D01*
X56106672Y-114596822D01*
X55592181Y-114596822D01*
X55592181Y-112356116D01*
X55916284Y-112356423D01*
X56240386Y-112356729D01*
X56472351Y-112932604D01*
X56484548Y-112962849D01*
X56535496Y-113088421D01*
X56582652Y-113203448D01*
X56624672Y-113304732D01*
X56660210Y-113389075D01*
X56687923Y-113453279D01*
X56706466Y-113494146D01*
X56714493Y-113508479D01*
X56715181Y-113507995D01*
X56725609Y-113488790D01*
X56746096Y-113444310D01*
X56775026Y-113378290D01*
X56810781Y-113294466D01*
X56851746Y-113196573D01*
X56896303Y-113088347D01*
X56941101Y-112978735D01*
X56989244Y-112861035D01*
X57034816Y-112749714D01*
X57075436Y-112650585D01*
X57108722Y-112569464D01*
X57132293Y-112512165D01*
X57196650Y-112356116D01*
X57864897Y-112356116D01*
X57864897Y-114596822D01*
G37*
G36*
X49012589Y-112890795D02*
G01*
X49125020Y-112914420D01*
X49226097Y-112957562D01*
X49309673Y-113017616D01*
X49369601Y-113091976D01*
X49381251Y-113111393D01*
X49403863Y-113143505D01*
X49418237Y-113156245D01*
X49418717Y-113156161D01*
X49424541Y-113139502D01*
X49428671Y-113099532D01*
X49430241Y-113044333D01*
X49430241Y-112932298D01*
X49910392Y-112932298D01*
X49910392Y-114596822D01*
X49430241Y-114596822D01*
X49429859Y-114088662D01*
X49429719Y-114029626D01*
X49428795Y-113905186D01*
X49427115Y-113790534D01*
X49424795Y-113690115D01*
X49421948Y-113608372D01*
X49418690Y-113549752D01*
X49415136Y-113518696D01*
X49384722Y-113447999D01*
X49328936Y-113388215D01*
X49255534Y-113350724D01*
X49249696Y-113349000D01*
X49179435Y-113334709D01*
X49118618Y-113339216D01*
X49051182Y-113363528D01*
X49026368Y-113375087D01*
X49001391Y-113389207D01*
X48981385Y-113406510D01*
X48965796Y-113430197D01*
X48954075Y-113463473D01*
X48945669Y-113509540D01*
X48940029Y-113571601D01*
X48936601Y-113652860D01*
X48934835Y-113756519D01*
X48934180Y-113885783D01*
X48934084Y-114043853D01*
X48934084Y-114596822D01*
X48453933Y-114596822D01*
X48453933Y-113241506D01*
X48502903Y-113143508D01*
X48508694Y-113132222D01*
X48575803Y-113034199D01*
X48661071Y-112961730D01*
X48765991Y-112913841D01*
X48892056Y-112889557D01*
X48894950Y-112889294D01*
X49012589Y-112890795D01*
G37*
G36*
X82552692Y-112184051D02*
G01*
X82631521Y-112205574D01*
X82699501Y-112246282D01*
X82749790Y-112306280D01*
X82770802Y-112358355D01*
X82783874Y-112435691D01*
X82781235Y-112513103D01*
X82762259Y-112576980D01*
X82743226Y-112607697D01*
X82688275Y-112666801D01*
X82624687Y-112707104D01*
X82597715Y-112713883D01*
X82545014Y-112719125D01*
X82484824Y-112719321D01*
X82445423Y-112716176D01*
X82371471Y-112697839D01*
X82313118Y-112659687D01*
X82260581Y-112596355D01*
X82236491Y-112542121D01*
X82224637Y-112465969D01*
X82229212Y-112385718D01*
X82250660Y-112313975D01*
X82265729Y-112287701D01*
X82319532Y-112233538D01*
X82389855Y-112198139D01*
X82469855Y-112181608D01*
X82552692Y-112184051D01*
G37*
G36*
X65571343Y-112184051D02*
G01*
X65650173Y-112205574D01*
X65718153Y-112246282D01*
X65768441Y-112306280D01*
X65789454Y-112358355D01*
X65802526Y-112435691D01*
X65799887Y-112513103D01*
X65780911Y-112576980D01*
X65761877Y-112607697D01*
X65706926Y-112666801D01*
X65643339Y-112707104D01*
X65616366Y-112713883D01*
X65563666Y-112719125D01*
X65503475Y-112719321D01*
X65464075Y-112716176D01*
X65390122Y-112697839D01*
X65331769Y-112659687D01*
X65279232Y-112596355D01*
X65255142Y-112542121D01*
X65243288Y-112465969D01*
X65247864Y-112385718D01*
X65269311Y-112313975D01*
X65284381Y-112287701D01*
X65338183Y-112233538D01*
X65408506Y-112198139D01*
X65488507Y-112181608D01*
X65571343Y-112184051D01*
G37*
G36*
X59361387Y-112184051D02*
G01*
X59440217Y-112205574D01*
X59508197Y-112246282D01*
X59558485Y-112306280D01*
X59579498Y-112358355D01*
X59592570Y-112435691D01*
X59589931Y-112513103D01*
X59570955Y-112576980D01*
X59551921Y-112607697D01*
X59496970Y-112666801D01*
X59433383Y-112707104D01*
X59406410Y-112713883D01*
X59353710Y-112719125D01*
X59293520Y-112719321D01*
X59254119Y-112716176D01*
X59180167Y-112697839D01*
X59121813Y-112659687D01*
X59069277Y-112596355D01*
X59045186Y-112542121D01*
X59033332Y-112465969D01*
X59037908Y-112385718D01*
X59059355Y-112313975D01*
X59074425Y-112287701D01*
X59128227Y-112233538D01*
X59198550Y-112198139D01*
X59278551Y-112181608D01*
X59361387Y-112184051D01*
G37*
X87147500Y-56847500D02*
X87147500Y-59387500D01*
X84607500Y-56847500D02*
X84607500Y-59387500D01*
X84607500Y-59387500D02*
G75*
G03*
X87147500Y-59387500I1270000J0D01*
G01*
X87147500Y-56847500D02*
G75*
G03*
X84607500Y-56847500I-1270000J0D01*
G01*
D11*
X296987500Y-53900000D02*
X294987500Y-53900000D01*
X294987500Y-53900000D02*
X294987500Y-50000000D01*
X296987500Y-53900000D02*
X296987500Y-50000000D01*
X61786250Y-54496359D02*
X61786250Y-54803641D01*
X61026250Y-54496359D02*
X61026250Y-54803641D01*
X120775000Y-72950000D02*
X118775000Y-72950000D01*
X120775000Y-72950000D02*
X120775000Y-69050000D01*
X118775000Y-72950000D02*
X118775000Y-69050000D01*
X154112500Y-53900000D02*
X154112500Y-50000000D01*
X154112500Y-53900000D02*
X152112500Y-53900000D01*
X152112500Y-53900000D02*
X152112500Y-50000000D01*
X77912500Y-53900000D02*
X77912500Y-50000000D01*
X75912500Y-53900000D02*
X75912500Y-50000000D01*
X77912500Y-53900000D02*
X75912500Y-53900000D01*
X175925000Y-72950000D02*
X175925000Y-69050000D01*
X177925000Y-72950000D02*
X177925000Y-69050000D01*
X177925000Y-72950000D02*
X175925000Y-72950000D01*
X101725000Y-72950000D02*
X101725000Y-69050000D01*
X99725000Y-72950000D02*
X99725000Y-69050000D01*
X101725000Y-72950000D02*
X99725000Y-72950000D01*
X211262500Y-53900000D02*
X211262500Y-50000000D01*
X209262500Y-53900000D02*
X209262500Y-50000000D01*
X211262500Y-53900000D02*
X209262500Y-53900000D01*
X133062500Y-53900000D02*
X133062500Y-50000000D01*
X135062500Y-53900000D02*
X135062500Y-50000000D01*
X135062500Y-53900000D02*
X133062500Y-53900000D01*
X130300000Y-92000000D02*
X130300000Y-88100000D01*
X130300000Y-92000000D02*
X128300000Y-92000000D01*
X128300000Y-92000000D02*
X128300000Y-88100000D01*
X223550000Y-92000000D02*
X223550000Y-88100000D01*
X225550000Y-92000000D02*
X225550000Y-88100000D01*
X225550000Y-92000000D02*
X223550000Y-92000000D01*
X69355932Y-58497543D02*
X72655932Y-58497543D01*
X72655932Y-58497543D02*
X72655932Y-62497543D01*
X56481250Y-72950000D02*
X56481250Y-69050000D01*
X54481250Y-72950000D02*
X54481250Y-69050000D01*
X56481250Y-72950000D02*
X54481250Y-72950000D01*
X92200000Y-92000000D02*
X92200000Y-88100000D01*
X92200000Y-92000000D02*
X90200000Y-92000000D01*
X90200000Y-92000000D02*
X90200000Y-88100000D01*
X254125000Y-72950000D02*
X254125000Y-69050000D01*
X252125000Y-72950000D02*
X252125000Y-69050000D01*
X254125000Y-72950000D02*
X252125000Y-72950000D01*
X116012500Y-53900000D02*
X116012500Y-50000000D01*
X114012500Y-53900000D02*
X114012500Y-50000000D01*
X116012500Y-53900000D02*
X114012500Y-53900000D01*
X146968750Y-111050000D02*
X146968750Y-107150000D01*
X146968750Y-111050000D02*
X144968750Y-111050000D01*
X144968750Y-111050000D02*
X144968750Y-107150000D01*
X149350000Y-92000000D02*
X147350000Y-92000000D01*
X147350000Y-92000000D02*
X147350000Y-88100000D01*
X149350000Y-92000000D02*
X149350000Y-88100000D01*
X72919365Y-59289706D02*
X72919365Y-59505378D01*
X73639365Y-59289706D02*
X73639365Y-59505378D01*
X96962500Y-111050000D02*
X94962500Y-111050000D01*
X96962500Y-111050000D02*
X96962500Y-107150000D01*
X94962500Y-111050000D02*
X94962500Y-107150000D01*
X206500000Y-92000000D02*
X206500000Y-88100000D01*
X206500000Y-92000000D02*
X204500000Y-92000000D01*
X204500000Y-92000000D02*
X204500000Y-88100000D01*
X111250000Y-92000000D02*
X111250000Y-88100000D01*
X111250000Y-92000000D02*
X109250000Y-92000000D01*
X109250000Y-92000000D02*
X109250000Y-88100000D01*
X187450000Y-92000000D02*
X187450000Y-88100000D01*
X187450000Y-92000000D02*
X185450000Y-92000000D01*
X185450000Y-92000000D02*
X185450000Y-88100000D01*
X285081250Y-72950000D02*
X283081250Y-72950000D01*
X283081250Y-72950000D02*
X283081250Y-69050000D01*
X285081250Y-72950000D02*
X285081250Y-69050000D01*
X56696250Y-42147164D02*
X56696250Y-42362836D01*
X55976250Y-42147164D02*
X55976250Y-42362836D01*
X214025000Y-72950000D02*
X214025000Y-69050000D01*
X216025000Y-72950000D02*
X216025000Y-69050000D01*
X216025000Y-72950000D02*
X214025000Y-72950000D01*
X77594450Y-111050000D02*
X77594450Y-107150000D01*
X77594450Y-111050000D02*
X75594450Y-111050000D01*
X75594450Y-111050000D02*
X75594450Y-107150000D01*
X249362500Y-53900000D02*
X247362500Y-53900000D01*
X247362500Y-53900000D02*
X247362500Y-50000000D01*
X249362500Y-53900000D02*
X249362500Y-50000000D01*
X96962500Y-53900000D02*
X94962500Y-53900000D01*
X94962500Y-53900000D02*
X94962500Y-50000000D01*
X96962500Y-53900000D02*
X96962500Y-50000000D01*
X62786250Y-54496359D02*
X62786250Y-54803641D01*
X62026250Y-54496359D02*
X62026250Y-54803641D01*
X50153641Y-75720000D02*
X49846359Y-75720000D01*
X50153641Y-76480000D02*
X49846359Y-76480000D01*
X66780009Y-75098491D02*
X66562728Y-75315772D01*
X66242608Y-74561090D02*
X66025327Y-74778371D01*
X67856250Y-42101359D02*
X67856250Y-42408641D01*
X67096250Y-42101359D02*
X67096250Y-42408641D01*
X271175000Y-53900000D02*
X271175000Y-50000000D01*
X273175000Y-53900000D02*
X273175000Y-50000000D01*
X273175000Y-53900000D02*
X271175000Y-53900000D01*
X66388125Y-52252064D02*
X66388125Y-51047936D01*
X64568125Y-52252064D02*
X64568125Y-51047936D01*
X139825000Y-72950000D02*
X137825000Y-72950000D01*
X137825000Y-72950000D02*
X137825000Y-69050000D01*
X139825000Y-72950000D02*
X139825000Y-69050000D01*
X61363001Y-65797546D02*
X61210498Y-65645043D01*
X61872118Y-65288429D02*
X61719615Y-65135926D01*
X61391285Y-64411617D02*
X61238782Y-64259114D01*
X61900402Y-63902500D02*
X61747899Y-63749997D01*
X69092500Y-60389706D02*
X69092500Y-60605378D01*
X68372500Y-60389706D02*
X68372500Y-60605378D01*
X158875000Y-72950000D02*
X158875000Y-69050000D01*
X158875000Y-72950000D02*
X156875000Y-72950000D01*
X156875000Y-72950000D02*
X156875000Y-69050000D01*
X67096250Y-44408641D02*
X67096250Y-44101359D01*
X67856250Y-44408641D02*
X67856250Y-44101359D01*
X230312500Y-53900000D02*
X228312500Y-53900000D01*
X228312500Y-53900000D02*
X228312500Y-50000000D01*
X230312500Y-53900000D02*
X230312500Y-50000000D01*
X168400000Y-92000000D02*
X168400000Y-88100000D01*
X166400000Y-92000000D02*
X166400000Y-88100000D01*
X168400000Y-92000000D02*
X166400000Y-92000000D01*
X63833864Y-74756114D02*
X63986367Y-74908617D01*
X64342981Y-74246997D02*
X64495484Y-74399500D01*
X70583436Y-69050000D02*
X70070784Y-69562652D01*
X65478125Y-74155311D02*
X65990777Y-73642659D01*
X60885466Y-69562652D02*
X60372814Y-69050000D01*
X65478125Y-63944689D02*
X64965473Y-64457341D01*
X70070784Y-68537348D02*
X70583436Y-69050000D01*
X64965473Y-73642659D02*
X65478125Y-74155311D01*
X65990777Y-64457341D02*
X65478125Y-63944689D01*
X252125000Y-112700000D02*
X252125000Y-108800000D01*
X254125000Y-112700000D02*
X252125000Y-112700000D01*
X254125000Y-112700000D02*
X254125000Y-108800000D01*
X171162500Y-53900000D02*
X171162500Y-50000000D01*
X173162500Y-53900000D02*
X171162500Y-53900000D01*
X173162500Y-53900000D02*
X173162500Y-50000000D01*
X192212500Y-53900000D02*
X192212500Y-50000000D01*
X192212500Y-53900000D02*
X190212500Y-53900000D01*
X190212500Y-53900000D02*
X190212500Y-50000000D01*
X56716250Y-44408641D02*
X56716250Y-44101359D01*
X55956250Y-44408641D02*
X55956250Y-44101359D01*
X61243750Y-92000000D02*
X61243750Y-88100000D01*
X59243750Y-92000000D02*
X59243750Y-88100000D01*
X61243750Y-92000000D02*
X59243750Y-92000000D01*
X82675000Y-72950000D02*
X80675000Y-72950000D01*
X80675000Y-72950000D02*
X80675000Y-69050000D01*
X82675000Y-72950000D02*
X82675000Y-69050000D01*
X59772011Y-70694261D02*
X59619508Y-70541758D01*
X60281128Y-70185144D02*
X60128625Y-70032641D01*
X235075000Y-72950000D02*
X233075000Y-72950000D01*
X233075000Y-72950000D02*
X233075000Y-69050000D01*
X235075000Y-72950000D02*
X235075000Y-69050000D01*
X71184239Y-70694261D02*
X71336742Y-70541758D01*
X70675122Y-70185144D02*
X70827625Y-70032641D01*
G36*
X275959379Y-113765439D02*
G01*
X275959379Y-113766408D01*
X275954933Y-113931384D01*
X275940873Y-114069715D01*
X275915977Y-114185623D01*
X275879024Y-114283332D01*
X275828794Y-114367066D01*
X275764065Y-114441047D01*
X275727643Y-114473243D01*
X275628970Y-114540180D01*
X275517731Y-114594084D01*
X275407285Y-114627956D01*
X275376467Y-114633033D01*
X275284925Y-114639770D01*
X275178662Y-114639150D01*
X275069153Y-114631801D01*
X274967870Y-114618352D01*
X274886285Y-114599431D01*
X274798515Y-114563969D01*
X274703409Y-114508720D01*
X274621422Y-114443538D01*
X274561927Y-114374910D01*
X274545465Y-114346569D01*
X274516625Y-114282946D01*
X274494972Y-114218279D01*
X274489966Y-114199330D01*
X274476722Y-114148174D01*
X274471612Y-114112536D01*
X274478613Y-114089632D01*
X274501699Y-114076679D01*
X274544846Y-114070894D01*
X274612030Y-114069495D01*
X274707227Y-114069698D01*
X274943302Y-114069860D01*
X274970288Y-114134107D01*
X274981461Y-114156350D01*
X275030369Y-114208330D01*
X275103136Y-114239475D01*
X275200148Y-114249979D01*
X275266851Y-114244839D01*
X275350434Y-114217676D01*
X275412101Y-114168444D01*
X275450283Y-114098579D01*
X275463406Y-114009516D01*
X275463465Y-113925490D01*
X274471153Y-113925490D01*
X274471431Y-113721425D01*
X274473430Y-113621737D01*
X274476159Y-113589384D01*
X274951304Y-113589384D01*
X275463465Y-113589384D01*
X275463406Y-113513360D01*
X275461103Y-113477111D01*
X275436845Y-113397911D01*
X275389179Y-113336631D01*
X275321878Y-113295942D01*
X275238715Y-113278513D01*
X275143466Y-113287014D01*
X275063683Y-113319368D01*
X275003002Y-113375431D01*
X274964789Y-113451817D01*
X274951393Y-113545370D01*
X274951304Y-113589384D01*
X274476159Y-113589384D01*
X274485995Y-113472789D01*
X274511190Y-113347677D01*
X274550283Y-113242390D01*
X274604538Y-113152915D01*
X274675221Y-113075240D01*
X274718564Y-113038892D01*
X274836768Y-112966868D01*
X274969381Y-112917434D01*
X275111031Y-112890513D01*
X275256345Y-112886028D01*
X275399948Y-112903901D01*
X275536468Y-112944057D01*
X275660531Y-113006417D01*
X275766763Y-113090905D01*
X275829147Y-113163577D01*
X275879301Y-113247934D01*
X275916175Y-113346002D01*
X275940995Y-113462079D01*
X275953867Y-113589384D01*
X275954987Y-113600459D01*
X275959379Y-113765439D01*
G37*
G36*
X270859626Y-114024590D02*
G01*
X270946150Y-114049269D01*
X271019912Y-114094547D01*
X271073820Y-114158763D01*
X271090737Y-114193736D01*
X271105343Y-114250881D01*
X271109568Y-114325616D01*
X271107823Y-114368490D01*
X271087175Y-114463425D01*
X271042706Y-114537846D01*
X270973725Y-114593110D01*
X270972952Y-114593546D01*
X270895620Y-114621594D01*
X270805630Y-114630934D01*
X270715849Y-114621552D01*
X270639146Y-114593437D01*
X270606541Y-114571167D01*
X270550999Y-114508468D01*
X270515886Y-114431285D01*
X270501136Y-114346194D01*
X270506684Y-114259769D01*
X270532465Y-114178583D01*
X270578413Y-114109213D01*
X270644464Y-114058231D01*
X270676666Y-114043673D01*
X270767434Y-114022171D01*
X270859626Y-114024590D01*
G37*
G36*
X270133315Y-114125043D02*
G01*
X270114853Y-114187091D01*
X270090564Y-114241210D01*
X270059664Y-114291133D01*
X270021366Y-114340596D01*
X269974886Y-114393334D01*
X269937952Y-114430248D01*
X269828819Y-114512309D01*
X269701790Y-114576880D01*
X269565608Y-114619136D01*
X269453180Y-114637494D01*
X269287612Y-114643978D01*
X269128891Y-114626404D01*
X268980510Y-114586141D01*
X268845963Y-114524555D01*
X268728745Y-114443016D01*
X268632349Y-114342890D01*
X268560269Y-114225547D01*
X268558785Y-114222368D01*
X268539030Y-114176868D01*
X268523118Y-114131514D01*
X268510648Y-114082289D01*
X268501216Y-114025172D01*
X268494418Y-113956145D01*
X268489851Y-113871190D01*
X268487112Y-113766286D01*
X268485797Y-113637417D01*
X268485504Y-113480562D01*
X268485521Y-113458790D01*
X268485720Y-113411908D01*
X268997429Y-113411908D01*
X268997429Y-113675659D01*
X268997760Y-113729416D01*
X268999848Y-113819120D01*
X269003557Y-113895733D01*
X269008541Y-113952950D01*
X269014452Y-113984466D01*
X269015769Y-113987825D01*
X269050527Y-114045687D01*
X269102571Y-114101580D01*
X269160102Y-114142685D01*
X269165174Y-114145172D01*
X269220909Y-114162107D01*
X269292324Y-114172213D01*
X269365284Y-114174204D01*
X269425650Y-114166798D01*
X269440902Y-114162331D01*
X269507995Y-114130948D01*
X269569092Y-114086201D01*
X269611351Y-114037061D01*
X269636125Y-113995122D01*
X268997429Y-113411908D01*
X268485720Y-113411908D01*
X268486188Y-113301696D01*
X268488131Y-113172171D01*
X268491811Y-113066276D01*
X268497691Y-112980071D01*
X268498161Y-112976197D01*
X269021899Y-112976197D01*
X269032000Y-113004617D01*
X269036240Y-113008503D01*
X269061937Y-113032273D01*
X269105885Y-113073048D01*
X269164348Y-113127359D01*
X269233591Y-113191736D01*
X269309879Y-113262709D01*
X269336284Y-113287274D01*
X269412934Y-113358472D01*
X269482781Y-113423199D01*
X269541671Y-113477615D01*
X269585452Y-113517881D01*
X269609973Y-113540157D01*
X269653636Y-113578958D01*
X269653636Y-113291829D01*
X269653517Y-113237381D01*
X269651843Y-113131985D01*
X269647060Y-113051401D01*
X269637740Y-112990615D01*
X269622456Y-112944611D01*
X269599783Y-112908375D01*
X269568294Y-112876893D01*
X269526562Y-112845149D01*
X269510087Y-112833740D01*
X269475904Y-112813973D01*
X269440924Y-112802951D01*
X269394750Y-112798171D01*
X269326986Y-112797134D01*
X269309845Y-112797176D01*
X269246297Y-112799064D01*
X269201942Y-112805456D01*
X269166265Y-112818684D01*
X269128748Y-112841080D01*
X269116564Y-112849517D01*
X269067857Y-112892432D01*
X269035077Y-112936730D01*
X269021899Y-112976197D01*
X268498161Y-112976197D01*
X268506233Y-112909617D01*
X268517898Y-112850973D01*
X268533148Y-112800201D01*
X268552446Y-112753360D01*
X268576252Y-112706513D01*
X268628874Y-112627423D01*
X268721194Y-112531105D01*
X268833323Y-112448428D01*
X268958570Y-112384125D01*
X269090246Y-112342929D01*
X269105383Y-112340031D01*
X269186884Y-112330532D01*
X269285205Y-112326023D01*
X269388319Y-112326516D01*
X269484199Y-112332019D01*
X269560819Y-112342543D01*
X269655408Y-112369016D01*
X269784237Y-112427364D01*
X269901385Y-112506027D01*
X270000290Y-112600366D01*
X270074392Y-112705739D01*
X270088780Y-112732871D01*
X270109846Y-112777294D01*
X270126712Y-112822369D01*
X270139839Y-112872014D01*
X270149685Y-112930149D01*
X270156711Y-113000694D01*
X270161375Y-113087567D01*
X270164138Y-113194688D01*
X270165459Y-113325976D01*
X270165797Y-113485351D01*
X270165709Y-113565149D01*
X270165612Y-113578958D01*
X270164602Y-113722864D01*
X270161594Y-113853977D01*
X270155901Y-113962221D01*
X270152517Y-113995122D01*
X270146736Y-114051332D01*
X270133315Y-114125043D01*
G37*
G36*
X276274934Y-112886699D02*
G01*
X276388874Y-112910966D01*
X276489914Y-112962703D01*
X276573929Y-113039302D01*
X276636795Y-113138156D01*
X276671846Y-113213265D01*
X276676470Y-113073221D01*
X276681095Y-112933177D01*
X277160000Y-112933177D01*
X277160000Y-114597701D01*
X276679848Y-114597701D01*
X276679848Y-114183755D01*
X276679474Y-114093090D01*
X276677963Y-113979968D01*
X276675457Y-113876991D01*
X276672132Y-113789627D01*
X276668164Y-113723341D01*
X276663730Y-113683597D01*
X276629739Y-113580020D01*
X276571549Y-113496018D01*
X276491671Y-113433598D01*
X276392606Y-113394714D01*
X276276853Y-113381318D01*
X276167687Y-113381318D01*
X276167687Y-112885162D01*
X276236805Y-112885162D01*
X276274934Y-112886699D01*
G37*
G36*
X272470051Y-112589069D02*
G01*
X272470523Y-113061647D01*
X272418506Y-113039395D01*
X272400727Y-113031715D01*
X272351273Y-113010094D01*
X272287155Y-112981870D01*
X272217725Y-112951153D01*
X272174084Y-112932084D01*
X272116420Y-112907886D01*
X272073959Y-112891310D01*
X272053674Y-112885162D01*
X272050925Y-112894786D01*
X272047752Y-112934525D01*
X272044997Y-113003721D01*
X272042685Y-113100942D01*
X272040843Y-113224757D01*
X272039495Y-113373731D01*
X272038668Y-113546434D01*
X272038387Y-113741432D01*
X272038387Y-114597701D01*
X271542230Y-114597701D01*
X271542230Y-112356996D01*
X271730290Y-112356642D01*
X271918349Y-112356289D01*
X272470051Y-112589069D01*
G37*
G36*
X273328702Y-113501356D02*
G01*
X273329537Y-113504705D01*
X273362002Y-113633909D01*
X273392299Y-113752677D01*
X273419514Y-113857569D01*
X273442736Y-113945142D01*
X273461053Y-114011955D01*
X273473552Y-114054566D01*
X273479320Y-114069535D01*
X273479380Y-114069523D01*
X273485386Y-114053771D01*
X273498175Y-114010487D01*
X273516824Y-113943109D01*
X273540413Y-113855076D01*
X273568018Y-113749825D01*
X273598720Y-113630795D01*
X273631597Y-113501424D01*
X273774934Y-112933314D01*
X274035015Y-112933245D01*
X274095727Y-112933589D01*
X274174979Y-112935260D01*
X274238168Y-112938086D01*
X274279979Y-112941802D01*
X274295097Y-112946145D01*
X274294070Y-112950567D01*
X274285210Y-112981089D01*
X274268000Y-113037945D01*
X274243325Y-113118273D01*
X274212072Y-113219216D01*
X274175128Y-113337914D01*
X274133380Y-113471508D01*
X274087714Y-113617138D01*
X274039017Y-113771946D01*
X274015767Y-113845772D01*
X273968422Y-113996290D01*
X273924519Y-114136102D01*
X273884943Y-114262377D01*
X273850580Y-114372284D01*
X273822313Y-114462992D01*
X273801027Y-114531668D01*
X273787606Y-114575482D01*
X273782936Y-114591601D01*
X273768940Y-114593476D01*
X273727782Y-114594757D01*
X273664455Y-114595310D01*
X273583980Y-114595092D01*
X273491373Y-114594061D01*
X273199810Y-114589699D01*
X272939692Y-113773442D01*
X272915295Y-113696836D01*
X272867325Y-113545938D01*
X272822835Y-113405620D01*
X272782720Y-113278726D01*
X272747873Y-113168102D01*
X272719191Y-113076590D01*
X272697569Y-113007037D01*
X272683901Y-112962286D01*
X272679082Y-112945181D01*
X272685133Y-112942557D01*
X272717526Y-112938834D01*
X272773177Y-112935860D01*
X272846724Y-112933890D01*
X272932806Y-112933177D01*
X273187023Y-112933177D01*
X273328702Y-113501356D01*
G37*
X67308750Y-112700000D02*
X65308750Y-112700000D01*
X67308750Y-112700000D02*
X67308750Y-108800000D01*
X65308750Y-112700000D02*
X65308750Y-108800000D01*
X289843750Y-92000000D02*
X287843750Y-92000000D01*
X289843750Y-92000000D02*
X289843750Y-88100000D01*
X287843750Y-92000000D02*
X287843750Y-88100000D01*
X187450000Y-111050000D02*
X187450000Y-107150000D01*
X185450000Y-111050000D02*
X185450000Y-107150000D01*
X187450000Y-111050000D02*
X185450000Y-111050000D01*
X59806250Y-52600000D02*
X59806250Y-53210000D01*
X59806250Y-53210000D02*
X62706250Y-53210000D01*
X61906250Y-50090000D02*
X61106250Y-50090000D01*
X61906250Y-50090000D02*
X62706250Y-50090000D01*
X277770000Y-111050000D02*
X275770000Y-111050000D01*
X277770000Y-111050000D02*
X277770000Y-107150000D01*
X275770000Y-111050000D02*
X275770000Y-107150000D01*
X224831250Y-111050000D02*
X224831250Y-107150000D01*
X222831250Y-111050000D02*
X222831250Y-107150000D01*
X224831250Y-111050000D02*
X222831250Y-111050000D01*
X244600000Y-92000000D02*
X242600000Y-92000000D01*
X244600000Y-92000000D02*
X244600000Y-88100000D01*
X242600000Y-92000000D02*
X242600000Y-88100000D01*
X54100000Y-53900000D02*
X54100000Y-50000000D01*
X52100000Y-53900000D02*
X52100000Y-50000000D01*
X54100000Y-53900000D02*
X52100000Y-53900000D01*
X66606250Y-44240000D02*
X66606250Y-42240000D01*
X57206250Y-44240000D02*
X57206250Y-42240000D01*
X57206250Y-40340000D02*
X57206250Y-38440000D01*
X66606250Y-40340000D02*
X66606250Y-38440000D01*
X57206250Y-38440000D02*
X66606250Y-38440000D01*
X60281128Y-67914856D02*
X60128625Y-68067359D01*
X59772011Y-67405739D02*
X59619508Y-67558242D01*
X196975000Y-72950000D02*
X194975000Y-72950000D01*
X196975000Y-72950000D02*
X196975000Y-69050000D01*
X194975000Y-72950000D02*
X194975000Y-69050000D01*
X65483666Y-60319236D02*
X65331163Y-60166733D01*
X64974549Y-60828353D02*
X64822046Y-60675850D01*
X263650000Y-92000000D02*
X261650000Y-92000000D01*
X263650000Y-92000000D02*
X263650000Y-88100000D01*
X261650000Y-92000000D02*
X261650000Y-88100000D01*
X65523126Y-61744626D02*
X65305845Y-61527345D01*
X64985725Y-62282027D02*
X64768444Y-62064746D01*
X72899365Y-61443902D02*
X72899365Y-61751184D01*
X73659365Y-61443902D02*
X73659365Y-61751184D01*
%LPC*%
D12*
X82170774Y-51166726D03*
X83337500Y-51650000D03*
X81687500Y-50000000D03*
X83337500Y-48350000D03*
X82170774Y-48833274D03*
X84504226Y-51166726D03*
X84987500Y-50000000D03*
D13*
X83337500Y-50000000D03*
D12*
X84504226Y-48833274D03*
D14*
X255737500Y-107150000D03*
D15*
X44920000Y-50000000D03*
D16*
X50000000Y-50000000D03*
D15*
X55080000Y-50000000D03*
D17*
X46190000Y-47460000D03*
X52540000Y-44920000D03*
D16*
X250025000Y-107150000D03*
D15*
X255105000Y-107150000D03*
X244945000Y-107150000D03*
D17*
X246215000Y-104610000D03*
X252565000Y-102070000D03*
D16*
X211925000Y-69050000D03*
D15*
X206845000Y-69050000D03*
X217005000Y-69050000D03*
D17*
X208115000Y-66510000D03*
X214465000Y-63970000D03*
D15*
X174142500Y-50000000D03*
X163982500Y-50000000D03*
D16*
X169062500Y-50000000D03*
D17*
X165252500Y-47460000D03*
X171602500Y-44920000D03*
D15*
X250342500Y-50000000D03*
D16*
X245262500Y-50000000D03*
D15*
X240182500Y-50000000D03*
D17*
X241452500Y-47460000D03*
X247802500Y-44920000D03*
D15*
X73495000Y-69050000D03*
D16*
X78575000Y-69050000D03*
D15*
X83655000Y-69050000D03*
D17*
X74765000Y-66510000D03*
X81115000Y-63970000D03*
D15*
X261613750Y-107150000D03*
D16*
X266693750Y-107150000D03*
D15*
X271773750Y-107150000D03*
D17*
X262883750Y-104610000D03*
X269233750Y-102070000D03*
D16*
X154775000Y-69050000D03*
D15*
X149695000Y-69050000D03*
X159855000Y-69050000D03*
D17*
X150965000Y-66510000D03*
X157315000Y-63970000D03*
D14*
X164300000Y-77500000D03*
D18*
X154775000Y-114135000D03*
D16*
X130962500Y-98895000D03*
X154775000Y-98895000D03*
D18*
X130962500Y-114135000D03*
D15*
X88417500Y-107150000D03*
D16*
X83337500Y-107150000D03*
D15*
X78257500Y-107150000D03*
D17*
X79527500Y-104610000D03*
X85877500Y-102070000D03*
D16*
X171443750Y-98895000D03*
X195256250Y-98895000D03*
D18*
X171443750Y-114135000D03*
X195256250Y-114135000D03*
D15*
X269392500Y-50000000D03*
X259232500Y-50000000D03*
D16*
X264312500Y-50000000D03*
D17*
X260502500Y-47460000D03*
X266852500Y-44920000D03*
D19*
X48888750Y-74130000D03*
D20*
X46348750Y-74130000D03*
D21*
X290387500Y-57500000D03*
X295387500Y-57500000D03*
X292887500Y-57500000D03*
X295387500Y-43000000D03*
X290387500Y-43000000D03*
D16*
X183350000Y-88100000D03*
D15*
X178270000Y-88100000D03*
X188430000Y-88100000D03*
D17*
X179540000Y-85560000D03*
X185890000Y-83020000D03*
D16*
X216687500Y-107150000D03*
D15*
X211607500Y-107150000D03*
X221767500Y-107150000D03*
D17*
X212877500Y-104610000D03*
X219227500Y-102070000D03*
D16*
X173825000Y-69050000D03*
D15*
X168745000Y-69050000D03*
X178905000Y-69050000D03*
D17*
X170015000Y-66510000D03*
X176365000Y-63970000D03*
D15*
X54445000Y-107150000D03*
D16*
X59525000Y-107150000D03*
D15*
X64605000Y-107150000D03*
D17*
X55715000Y-104610000D03*
X62065000Y-102070000D03*
D16*
X107150000Y-88100000D03*
D15*
X112230000Y-88100000D03*
X102070000Y-88100000D03*
D17*
X103340000Y-85560000D03*
X109690000Y-83020000D03*
D16*
X211925000Y-98895000D03*
D18*
X111912500Y-114135000D03*
X211925000Y-114135000D03*
D16*
X111912500Y-98895000D03*
D15*
X263995000Y-50000000D03*
D16*
X269075000Y-50000000D03*
D15*
X274155000Y-50000000D03*
D17*
X265265000Y-47460000D03*
X271615000Y-44920000D03*
D15*
X274155000Y-107150000D03*
D16*
X269075000Y-107150000D03*
D15*
X263995000Y-107150000D03*
D17*
X265265000Y-104610000D03*
X271615000Y-102070000D03*
D15*
X290823750Y-88100000D03*
X280663750Y-88100000D03*
D16*
X285743750Y-88100000D03*
D17*
X281933750Y-85560000D03*
X288283750Y-83020000D03*
D15*
X286061250Y-69050000D03*
D16*
X280981250Y-69050000D03*
D15*
X275901250Y-69050000D03*
D17*
X277171250Y-66510000D03*
X283521250Y-63970000D03*
D15*
X155092500Y-50000000D03*
D16*
X150012500Y-50000000D03*
D15*
X144932500Y-50000000D03*
D17*
X146202500Y-47460000D03*
X152552500Y-44920000D03*
D16*
X221450000Y-88100000D03*
D15*
X216370000Y-88100000D03*
X226530000Y-88100000D03*
D17*
X217640000Y-85560000D03*
X223990000Y-83020000D03*
D15*
X231292500Y-50000000D03*
X221132500Y-50000000D03*
D16*
X226212500Y-50000000D03*
D17*
X222402500Y-47460000D03*
X228752500Y-44920000D03*
D15*
X111595000Y-69050000D03*
D16*
X116675000Y-69050000D03*
D15*
X121755000Y-69050000D03*
D17*
X112865000Y-66510000D03*
X119215000Y-63970000D03*
D19*
X51111250Y-74130000D03*
D20*
X53651250Y-74130000D03*
D15*
X87782500Y-107150000D03*
X97942500Y-107150000D03*
D16*
X92862500Y-107150000D03*
D17*
X89052500Y-104610000D03*
X95402500Y-102070000D03*
D15*
X150330000Y-88100000D03*
X140170000Y-88100000D03*
D16*
X145250000Y-88100000D03*
D17*
X141440000Y-85560000D03*
X147790000Y-83020000D03*
D16*
X259550000Y-88100000D03*
D15*
X254470000Y-88100000D03*
X264630000Y-88100000D03*
D17*
X255740000Y-85560000D03*
X262090000Y-83020000D03*
D16*
X97625000Y-69050000D03*
D15*
X92545000Y-69050000D03*
X102705000Y-69050000D03*
D17*
X93815000Y-66510000D03*
X100165000Y-63970000D03*
D15*
X293205000Y-50000000D03*
X283045000Y-50000000D03*
D16*
X288125000Y-50000000D03*
D17*
X284315000Y-47460000D03*
X290665000Y-44920000D03*
D14*
X68237500Y-107150000D03*
D15*
X269392500Y-107150000D03*
X259232500Y-107150000D03*
D16*
X264312500Y-107150000D03*
D17*
X260502500Y-104610000D03*
X266852500Y-102070000D03*
D16*
X126200000Y-88100000D03*
D15*
X131280000Y-88100000D03*
X121120000Y-88100000D03*
D17*
X122390000Y-85560000D03*
X128740000Y-83020000D03*
D15*
X130645000Y-69050000D03*
D16*
X135725000Y-69050000D03*
D15*
X140805000Y-69050000D03*
D17*
X131915000Y-66510000D03*
X138265000Y-63970000D03*
D16*
X240500000Y-88100000D03*
D15*
X235420000Y-88100000D03*
X245580000Y-88100000D03*
D17*
X236690000Y-85560000D03*
X243040000Y-83020000D03*
D15*
X87782500Y-50000000D03*
D16*
X92862500Y-50000000D03*
D15*
X97942500Y-50000000D03*
D17*
X89052500Y-47460000D03*
X95402500Y-44920000D03*
D16*
X57143750Y-107150000D03*
D15*
X52063750Y-107150000D03*
X62223750Y-107150000D03*
D17*
X53333750Y-104610000D03*
X59683750Y-102070000D03*
D15*
X125882500Y-50000000D03*
X136042500Y-50000000D03*
D16*
X130962500Y-50000000D03*
D17*
X127152500Y-47460000D03*
X133502500Y-44920000D03*
D15*
X236055000Y-69050000D03*
D16*
X230975000Y-69050000D03*
D15*
X225895000Y-69050000D03*
D17*
X227165000Y-66510000D03*
X233515000Y-63970000D03*
D16*
X214306250Y-107150000D03*
D15*
X209226250Y-107150000D03*
X219386250Y-107150000D03*
D17*
X210496250Y-104610000D03*
X216846250Y-102070000D03*
D16*
X57143750Y-88100000D03*
D15*
X52063750Y-88100000D03*
X62223750Y-88100000D03*
D17*
X53333750Y-85560000D03*
X59683750Y-83020000D03*
D15*
X178270000Y-107150000D03*
X188430000Y-107150000D03*
D16*
X183350000Y-107150000D03*
D17*
X179540000Y-104610000D03*
X185890000Y-102070000D03*
D15*
X68732500Y-50000000D03*
X78892500Y-50000000D03*
D16*
X73812500Y-50000000D03*
D17*
X70002500Y-47460000D03*
X76352500Y-44920000D03*
D15*
X230657500Y-107150000D03*
X240817500Y-107150000D03*
D16*
X235737500Y-107150000D03*
D17*
X231927500Y-104610000D03*
X238277500Y-102070000D03*
D14*
X280981250Y-50000000D03*
D15*
X197955000Y-69050000D03*
D16*
X192875000Y-69050000D03*
D15*
X187795000Y-69050000D03*
D17*
X189065000Y-66510000D03*
X195415000Y-63970000D03*
D15*
X78892500Y-107150000D03*
D16*
X73812500Y-107150000D03*
D15*
X68732500Y-107150000D03*
D17*
X70002500Y-104610000D03*
X76352500Y-102070000D03*
D15*
X83020000Y-88100000D03*
D16*
X88100000Y-88100000D03*
D15*
X93180000Y-88100000D03*
D17*
X84290000Y-85560000D03*
X90640000Y-83020000D03*
D15*
X212242500Y-50000000D03*
X202082500Y-50000000D03*
D16*
X207162500Y-50000000D03*
D17*
X203352500Y-47460000D03*
X209702500Y-44920000D03*
D15*
X287807500Y-50000000D03*
X297967500Y-50000000D03*
D16*
X292887500Y-50000000D03*
D17*
X289077500Y-47460000D03*
X295427500Y-44920000D03*
D15*
X52698750Y-69050000D03*
D16*
X47618750Y-69050000D03*
D15*
X42538750Y-69050000D03*
D17*
X43808750Y-66510000D03*
X50158750Y-63970000D03*
D15*
X114611250Y-107150000D03*
D16*
X109531250Y-107150000D03*
D15*
X104451250Y-107150000D03*
D17*
X105721250Y-104610000D03*
X112071250Y-102070000D03*
D16*
X111912500Y-50000000D03*
D15*
X116992500Y-50000000D03*
X106832500Y-50000000D03*
D17*
X108102500Y-47460000D03*
X114452500Y-44920000D03*
D16*
X230975000Y-107150000D03*
D15*
X225895000Y-107150000D03*
X236055000Y-107150000D03*
D17*
X227165000Y-104610000D03*
X233515000Y-102070000D03*
D16*
X142868750Y-107150000D03*
D15*
X147948750Y-107150000D03*
X137788750Y-107150000D03*
D17*
X139058750Y-104610000D03*
X145408750Y-102070000D03*
D16*
X264312500Y-79845000D03*
D18*
X264312500Y-95085000D03*
X288125000Y-95085000D03*
D16*
X288125000Y-79845000D03*
D15*
X59842500Y-107150000D03*
D16*
X54762500Y-107150000D03*
D15*
X49682500Y-107150000D03*
D17*
X50952500Y-104610000D03*
X57302500Y-102070000D03*
D15*
X102070000Y-107150000D03*
X112230000Y-107150000D03*
D16*
X107150000Y-107150000D03*
D17*
X103340000Y-104610000D03*
X109690000Y-102070000D03*
D16*
X276218750Y-88100000D03*
D15*
X281298750Y-88100000D03*
X271138750Y-88100000D03*
D17*
X272408750Y-85560000D03*
X278758750Y-83020000D03*
D15*
X156838750Y-107150000D03*
X166998750Y-107150000D03*
D16*
X161918750Y-107150000D03*
D17*
X158108750Y-104610000D03*
X164458750Y-102070000D03*
D15*
X235420000Y-107150000D03*
X245580000Y-107150000D03*
D16*
X240500000Y-107150000D03*
D17*
X236690000Y-104610000D03*
X243040000Y-102070000D03*
D16*
X45237500Y-79845000D03*
D18*
X45237500Y-95085000D03*
D16*
X69050000Y-79845000D03*
D18*
X69050000Y-95085000D03*
D15*
X197320000Y-88100000D03*
X207480000Y-88100000D03*
D16*
X202400000Y-88100000D03*
D17*
X198590000Y-85560000D03*
X204940000Y-83020000D03*
D15*
X93180000Y-107150000D03*
D16*
X88100000Y-107150000D03*
D15*
X83020000Y-107150000D03*
D17*
X84290000Y-104610000D03*
X90640000Y-102070000D03*
D16*
X269075000Y-60795000D03*
D18*
X269075000Y-76035000D03*
X292887500Y-76035000D03*
D16*
X292887500Y-60795000D03*
D15*
X183032500Y-50000000D03*
X193192500Y-50000000D03*
D16*
X188112500Y-50000000D03*
D17*
X184302500Y-47460000D03*
X190652500Y-44920000D03*
D16*
X250025000Y-69050000D03*
D15*
X244945000Y-69050000D03*
X255105000Y-69050000D03*
D17*
X246215000Y-66510000D03*
X252565000Y-63970000D03*
D22*
X80797500Y-59387500D03*
D23*
X80797500Y-56847500D03*
X83337500Y-59387500D03*
X83337500Y-56847500D03*
X85877500Y-59387500D03*
X85877500Y-56847500D03*
D15*
X169380000Y-88100000D03*
D16*
X164300000Y-88100000D03*
D15*
X159220000Y-88100000D03*
D17*
X160490000Y-85560000D03*
X166840000Y-83020000D03*
D15*
X47301250Y-69050000D03*
D16*
X52381250Y-69050000D03*
D15*
X57461250Y-69050000D03*
D17*
X48571250Y-66510000D03*
X54921250Y-63970000D03*
D24*
X295987500Y-53300000D03*
X295987500Y-50000000D03*
D25*
X61406250Y-54140000D03*
X61406250Y-55160000D03*
D24*
X119775000Y-72350000D03*
X119775000Y-69050000D03*
X153112500Y-53300000D03*
X153112500Y-50000000D03*
X76912500Y-53300000D03*
X76912500Y-50000000D03*
X176925000Y-72350000D03*
X176925000Y-69050000D03*
X100725000Y-72350000D03*
X100725000Y-69050000D03*
X210262500Y-53300000D03*
X210262500Y-50000000D03*
X134062500Y-53300000D03*
X134062500Y-50000000D03*
X129300000Y-91400000D03*
X129300000Y-88100000D03*
X224550000Y-91400000D03*
X224550000Y-88100000D03*
D26*
X71855932Y-59397543D03*
X71855932Y-61597543D03*
X70155932Y-61597543D03*
X70155932Y-59397543D03*
D24*
X55481250Y-72350000D03*
X55481250Y-69050000D03*
X91200000Y-91400000D03*
X91200000Y-88100000D03*
X253125000Y-72350000D03*
X253125000Y-69050000D03*
X115012500Y-53300000D03*
X115012500Y-50000000D03*
X145968750Y-110450000D03*
X145968750Y-107150000D03*
X148350000Y-91400000D03*
X148350000Y-88100000D03*
D27*
X73279365Y-58917542D03*
X73279365Y-59877542D03*
D24*
X95962500Y-110450000D03*
X95962500Y-107150000D03*
X205500000Y-91400000D03*
X205500000Y-88100000D03*
X110250000Y-91400000D03*
X110250000Y-88100000D03*
X186450000Y-91400000D03*
X186450000Y-88100000D03*
X284081250Y-72350000D03*
X284081250Y-69050000D03*
D27*
X56336250Y-41775000D03*
X56336250Y-42735000D03*
D24*
X215025000Y-72350000D03*
X215025000Y-69050000D03*
X76594450Y-110450000D03*
X76594450Y-107150000D03*
X248362500Y-53300000D03*
X248362500Y-50000000D03*
X95962500Y-53300000D03*
X95962500Y-50000000D03*
D25*
X62406250Y-54140000D03*
X62406250Y-55160000D03*
D28*
X50510000Y-76100000D03*
X49490000Y-76100000D03*
D29*
X66763292Y-74577807D03*
X66042044Y-75299055D03*
D25*
X67476250Y-41745000D03*
X67476250Y-42765000D03*
D24*
X272175000Y-53300000D03*
X272175000Y-50000000D03*
D30*
X65478125Y-53050000D03*
X65478125Y-50250000D03*
D24*
X138825000Y-72350000D03*
X138825000Y-69050000D03*
D31*
X61880719Y-65806147D03*
X61201897Y-65127325D03*
X61909003Y-64420218D03*
X61230181Y-63741396D03*
D27*
X68732500Y-60017542D03*
X68732500Y-60977542D03*
D24*
X157875000Y-72350000D03*
X157875000Y-69050000D03*
D32*
X67476250Y-44765000D03*
X67476250Y-43745000D03*
D24*
X229312500Y-53300000D03*
X229312500Y-50000000D03*
X167400000Y-91400000D03*
X167400000Y-88100000D03*
D33*
X63825263Y-74238396D03*
X64504085Y-74917218D03*
D34*
X61350389Y-68457798D03*
X61703943Y-68104245D03*
X62057496Y-67750691D03*
X62411049Y-67397138D03*
X62764603Y-67043585D03*
X63118156Y-66690031D03*
X63471710Y-66336478D03*
X63825263Y-65982924D03*
X64178816Y-65629371D03*
X64532370Y-65275818D03*
X64885923Y-64922264D03*
D35*
X66070327Y-64922264D03*
X66423880Y-65275818D03*
X66777434Y-65629371D03*
X67130987Y-65982924D03*
X67484540Y-66336478D03*
X67838094Y-66690031D03*
X68191647Y-67043585D03*
X68545201Y-67397138D03*
X68898754Y-67750691D03*
X69252307Y-68104245D03*
X69605861Y-68457798D03*
D34*
X69605861Y-69642202D03*
X69252307Y-69995755D03*
X68898754Y-70349309D03*
X68545201Y-70702862D03*
X68191647Y-71056415D03*
X67838094Y-71409969D03*
X67484540Y-71763522D03*
X67130987Y-72117076D03*
X66777434Y-72470629D03*
X66423880Y-72824182D03*
X66070327Y-73177736D03*
D35*
X64885923Y-73177736D03*
X64532370Y-72824182D03*
X64178816Y-72470629D03*
X63825263Y-72117076D03*
X63471710Y-71763522D03*
X63118156Y-71409969D03*
X62764603Y-71056415D03*
X62411049Y-70702862D03*
X62057496Y-70349309D03*
X61703943Y-69995755D03*
X61350389Y-69642202D03*
D36*
X65478125Y-69050000D03*
D24*
X253125000Y-112100000D03*
X253125000Y-108800000D03*
X172162500Y-53300000D03*
X172162500Y-50000000D03*
X191212500Y-53300000D03*
X191212500Y-50000000D03*
D32*
X56336250Y-44765000D03*
X56336250Y-43745000D03*
D24*
X60243750Y-91400000D03*
X60243750Y-88100000D03*
X81675000Y-72350000D03*
X81675000Y-69050000D03*
D31*
X60289729Y-70702862D03*
X59610907Y-70024040D03*
D24*
X234075000Y-72350000D03*
X234075000Y-69050000D03*
D37*
X70666521Y-70702862D03*
X71345343Y-70024040D03*
D24*
X66308750Y-112100000D03*
X66308750Y-108800000D03*
X288843750Y-91400000D03*
X288843750Y-88100000D03*
X186450000Y-110450000D03*
X186450000Y-107150000D03*
D38*
X60731250Y-52600000D03*
X60731250Y-51650000D03*
X60731250Y-50700000D03*
X63081250Y-50700000D03*
X63081250Y-51650000D03*
X63081250Y-52600000D03*
D24*
X276770000Y-110450000D03*
X276770000Y-107150000D03*
X223831250Y-110450000D03*
X223831250Y-107150000D03*
X243600000Y-91400000D03*
X243600000Y-88100000D03*
X53100000Y-53300000D03*
X53100000Y-50000000D03*
D39*
X64796250Y-44940000D03*
X59016250Y-44940000D03*
D40*
X58656250Y-46385000D03*
X59456250Y-46385000D03*
D41*
X60656250Y-46385000D03*
X61656250Y-46385000D03*
X62156250Y-46385000D03*
X63156250Y-46385000D03*
D40*
X64356250Y-46385000D03*
X65156250Y-46385000D03*
X65156250Y-46385000D03*
X64356250Y-46385000D03*
D41*
X63656250Y-46385000D03*
X62656250Y-46385000D03*
X61156250Y-46385000D03*
X60156250Y-46385000D03*
D40*
X59456250Y-46385000D03*
X58656250Y-46385000D03*
D42*
X66226250Y-41290000D03*
D43*
X57586250Y-45470000D03*
D42*
X57586250Y-41290000D03*
D43*
X66226250Y-45470000D03*
D44*
X60289729Y-67397138D03*
X59610907Y-68075960D03*
D24*
X195975000Y-72350000D03*
X195975000Y-69050000D03*
D31*
X65492267Y-60836954D03*
X64813445Y-60158132D03*
D24*
X262650000Y-91400000D03*
X262650000Y-88100000D03*
D45*
X65506409Y-62265310D03*
X64785161Y-61544062D03*
D25*
X73279365Y-61087543D03*
X73279365Y-62107543D03*
M02*
